<?xml version="1.0" standalone="no"?>
<!DOCTYPE svg PUBLIC "-//W3C//DTD SVG 1.1//EN" "http://www.w3.org/Graphics/SVG/1.1/DTD/svg11.dtd" >
<svg xmlns="http://www.w3.org/2000/svg" xmlns:xlink="http://www.w3.org/1999/xlink" version="1.1">
<metadata>
Created by FontForge 20170731 at Tue Jan 31 08:19:34 2023
 By Aleksey,,,
Copyright (c) 2017 by Samuel Oakes. All rights reserved.
</metadata>
<defs>
<font id="MetroSans-Light" horiz-adv-x="1155" >
  <font-face 
    font-family="Metro Sans Light"
    font-weight="300"
    font-stretch="normal"
    units-per-em="2048"
    panose-1="0 0 4 0 0 0 0 0 0 0"
    ascent="1638"
    descent="-410"
    x-height="1024"
    cap-height="1434"
    bbox="-743 -911 2222 1921"
    underline-thickness="102"
    underline-position="-307"
    unicode-range="U+0020-2265"
  />
<missing-glyph horiz-adv-x="1228" 
 />
    <glyph glyph-name=".notdef" horiz-adv-x="1228" 
 />
    <glyph glyph-name=".null" horiz-adv-x="1228" 
 />
    <glyph glyph-name="nonmarkingreturn" horiz-adv-x="682" 
 />
    <glyph glyph-name="space" unicode=" " horiz-adv-x="573" 
 />
    <glyph glyph-name="exclam" unicode="!" horiz-adv-x="460" 
d="M119 422l-13 1114h121l-12 -1114h-96zM88 0v174h166v-174h-166z" />
    <glyph glyph-name="quotedbl" unicode="&#x22;" horiz-adv-x="544" 
d="M63 1284l-53 150v174h166v-174l-53 -150h-60zM367 1284l-54 150v174h166v-174l-53 -150h-59z" />
    <glyph glyph-name="numbersign" unicode="#" horiz-adv-x="1536" 
d="M365 0l51 365h-289l14 104h289l74 500h-291l16 102h285l53 367h103l-52 -367h400l51 367h102l-51 -367h289l-16 -102h-287l-70 -500h287l-14 -104h-287l-55 -365h-101l52 365h-402l-49 -365h-102zM532 469h400l72 500h-400z" />
    <glyph glyph-name="dollar" unicode="$" horiz-adv-x="1316" 
d="M694 -123v109q-103 5 -193.5 36.5t-163.5 86.5t-118.5 140.5t-52.5 192.5h131q19 -164 139.5 -256t317.5 -92q174 0 271 78.5t97 218.5q0 120 -86 183.5t-297 101.5q-286 51 -410 143t-124 254q0 155 135 264t326 109v96h108v-102q206 -26 322 -143.5t116 -305.5h-118
q-12 170 -118 258t-300 88q-149 0 -249.5 -75.5t-100.5 -188.5q0 -50 20.5 -90.5t55.5 -69.5t88 -52t110.5 -38.5t130.5 -27.5q288 -51 400 -140.5t112 -267.5q0 -167 -119 -274.5t-321 -124.5v-111h-109z" />
    <glyph glyph-name="percent" unicode="%" horiz-adv-x="1480" 
d="M391 938q-110 0 -188 90.5t-78 218.5t78 218.5t188 90.5t188 -90.5t78 -218.5t-78 -218.5t-188 -90.5zM141 0l1057 1536h121l-1057 -1536h-121zM391 1044q65 0 112.5 59.5t47.5 143.5t-47.5 143.5t-112.5 59.5t-111.5 -59.5t-46.5 -143.5t46.5 -143.5t111.5 -59.5z
M1092 -20q-110 0 -188.5 91t-78.5 220q0 128 78.5 218.5t188.5 90.5t188 -90.5t78 -218.5q0 -129 -78 -220t-188 -91zM1092 88q65 0 111 58.5t46 144.5q0 84 -46 142.5t-111 58.5q-66 0 -113 -58.5t-47 -142.5q0 -86 47 -144.5t113 -58.5z" />
    <glyph glyph-name="ampersand" unicode="&#x26;" horiz-adv-x="1521" 
d="M612 -33q-124 0 -228.5 50t-166 139.5t-61.5 199.5q0 139 65 246t207 193q-33 38 -52 63t-49 72t-45.5 98.5t-15.5 104.5q0 137 99 232t241 95q137 0 232.5 -91.5t95.5 -223.5q0 -120 -95 -227t-225 -154l400 -402l108 189h131l-155 -272l282 -279h-159l-179 182
q-174 -215 -430 -215zM530 848q120 40 204.5 123.5t84.5 175.5q0 86 -62 145.5t-151 59.5q-92 0 -156.5 -59t-64.5 -144q0 -81 39.5 -159.5t105.5 -141.5zM616 86q200 0 340 182l-448 443q-238 -138 -238 -332q0 -130 98 -211.5t248 -81.5z" />
    <glyph glyph-name="quotesingle" unicode="'" horiz-adv-x="204" 
d="M63 1284l-53 150v174h166v-174l-53 -150h-60z" />
    <glyph glyph-name="parenleft" unicode="(" horiz-adv-x="634" 
d="M535 -459q-154 196 -248 472.5t-94 584.5q0 307 92.5 585t249.5 435h110q-167 -188 -257.5 -457t-90.5 -563q0 -291 96.5 -564t245.5 -493h-104z" />
    <glyph glyph-name="parenright" unicode=")" horiz-adv-x="675" 
d="M55 -459q149 220 245.5 493t96.5 564q0 294 -90.5 563t-257.5 457h111q157 -157 249.5 -435t92.5 -585q0 -308 -94 -584.5t-248 -472.5h-105z" />
    <glyph glyph-name="asterisk" unicode="*" horiz-adv-x="522" 
d="M180 1067l-71 43l106 152l-186 -13v84l186 -14l-106 151l71 43l82 -165l80 165l74 -43l-107 -151l187 14v-84l-187 13l107 -152l-74 -43l-80 166z" />
    <glyph glyph-name="plus" unicode="+" horiz-adv-x="1652" 
d="M784 59v482h-440v90h440v479h86v-479h441v-90h-441v-482h-86z" />
    <glyph glyph-name="comma" unicode="," horiz-adv-x="268" 
d="M27 -184v78q40 2 63 31.5t19 74.5h-89v174h166v-174q1 -84 -44 -134t-115 -50z" />
    <glyph glyph-name="hyphen" unicode="-" horiz-adv-x="1099" 
d="M193 621v86h716v-86h-716z" />
    <glyph glyph-name="period" unicode="." horiz-adv-x="329" 
d="M61 0v174h166v-174h-166z" />
    <glyph glyph-name="slash" unicode="/" horiz-adv-x="1179" 
d="M147 -410l902 1946h110l-899 -1946h-113z" />
    <glyph glyph-name="zero" unicode="0" horiz-adv-x="1286" 
d="M641 -23q-238 0 -377 196.5t-139 531.5q0 336 140.5 532.5t379.5 196.5q238 0 377 -196t139 -533q0 -335 -140.5 -531.5t-379.5 -196.5zM641 88q188 0 298 166.5t110 450.5q0 286 -110.5 452t-299.5 166q-184 0 -292.5 -166.5t-108.5 -449.5q0 -286 108.5 -452.5
t294.5 -166.5z" />
    <glyph glyph-name="one" unicode="1" horiz-adv-x="1126" 
d="M958 0h-751v104h346v1168l-326 -258v125l338 270h94v-1305h299v-104z" />
    <glyph glyph-name="two" unicode="2" horiz-adv-x="1134" 
d="M113 0v113l512 465q154 140 215 235.5t61 204.5q0 146 -91.5 233.5t-242.5 87.5q-153 0 -249.5 -89t-106.5 -242h-115q15 191 147.5 312.5t321.5 121.5q194 0 318.5 -121.5t124.5 -300.5q0 -129 -63 -237t-208 -242l-471 -432l774 4v-113h-927z" />
    <glyph glyph-name="three" unicode="3" horiz-adv-x="1138" 
d="M745 758q53 -15 100.5 -40.5t95 -67.5t75.5 -108t28 -147q0 -167 -126 -286t-336 -119q-211 0 -346.5 125.5t-143.5 324.5h111q4 -153 110.5 -249.5t264.5 -96.5q86 0 156.5 27t114.5 71t67.5 97.5t23.5 109.5q0 135 -120.5 219t-305.5 84h-35v97h29q169 0 276 79.5
t107 204.5q0 112 -91.5 184t-234.5 72q-146 0 -239 -87t-105 -236h-106q12 198 137.5 314t325.5 116q184 0 301.5 -99.5t117.5 -256.5q0 -116 -73 -204t-179 -128z" />
    <glyph glyph-name="four" unicode="4" horiz-adv-x="1181" 
d="M874 0h-104v315h-713v103l674 1016h143v-1016h250v-105h-250v-313zM770 1325l-592 -907h592v907z" />
    <glyph glyph-name="five" unicode="5" horiz-adv-x="1150" 
d="M582 958q200 0 332.5 -135.5t132.5 -341.5q0 -131 -57 -239t-168 -174t-255 -66q-125 0 -233.5 59.5t-171 164.5t-53.5 227h104q0 -152 101.5 -248t258.5 -96q115 0 200.5 53.5t127 137t41.5 183.5q0 164 -106 268.5t-269 104.5q-182 0 -305 -141h-112l116 719h672v-105
h-588l-86 -491q136 120 318 120z" />
    <glyph glyph-name="six" unicode="6" horiz-adv-x="1157" 
d="M606 -23q-107 0 -200 43.5t-166.5 129t-115.5 227t-42 323.5q0 194 40 341.5t112.5 236t165.5 132.5t206 44q193 0 309.5 -101t139.5 -257h-111q-29 120 -114.5 183.5t-215.5 63.5q-206 0 -313.5 -167.5t-107.5 -489.5v-70q56 143 173.5 216t262.5 73q196 0 321 -126
t125 -324q0 -209 -132 -343.5t-337 -134.5zM614 86q160 0 252 105t92 266q0 149 -96.5 242.5t-247.5 93.5q-152 0 -254 -103t-102 -254q0 -138 100.5 -244t255.5 -106z" />
    <glyph glyph-name="seven" unicode="7" horiz-adv-x="1085" 
d="M389 0h-121l631 1327h-829v107h946v-105z" />
    <glyph glyph-name="eight" unicode="8" horiz-adv-x="1144" 
d="M571 -12q-202 0 -333.5 116.5t-131.5 280.5q0 143 75 238t212 139q-112 41 -181 133.5t-69 196.5q0 144 120.5 248t307.5 104t308.5 -104t121.5 -248q0 -104 -69 -196.5t-182 -133.5q138 -44 213 -139t75 -238q0 -106 -58.5 -196.5t-166.5 -145.5t-242 -55zM571 838
q138 0 226 70t88 179q0 102 -89.5 176t-224.5 74t-224 -74t-89 -176q0 -109 87.5 -179t225.5 -70zM571 96q153 0 253 87.5t100 213.5q0 133 -99 218t-254 85t-253.5 -84.5t-98.5 -218.5q0 -126 99.5 -213.5t252.5 -87.5z" />
    <glyph glyph-name="nine" unicode="9" horiz-adv-x="1157" 
d="M551 1454q107 0 200 -43.5t166.5 -129t115.5 -227t42 -323.5q0 -194 -40 -341.5t-112.5 -236t-165.5 -132.5t-206 -44q-193 0 -309.5 101.5t-139.5 257.5h111q29 -120 115 -184t215 -64q206 0 314 167.5t108 489.5v70q-56 -143 -174 -216t-263 -73q-196 0 -321 126.5
t-125 324.5q0 209 131.5 343t337.5 134zM543 1346q-160 0 -252 -105t-92 -266q0 -149 96.5 -242.5t247.5 -93.5q152 0 254 102.5t102 253.5q0 138 -100.5 244.5t-255.5 106.5z" />
    <glyph glyph-name="colon" unicode=":" horiz-adv-x="481" 
d="M100 852v174h166v-174h-166zM100 0v174h166v-174h-166z" />
    <glyph glyph-name="semicolon" unicode=";" horiz-adv-x="604" 
d="M205 850v174h166v-174h-166zM211 -184v78q40 2 63 31.5t19 74.5h-88v174h166v-174q1 -84 -44.5 -134t-115.5 -50z" />
    <glyph glyph-name="less" unicode="&#x3c;" horiz-adv-x="1513" 
d="M1323 53l-1130 572v125l1130 567v-107l-1040 -524l1040 -518v-115z" />
    <glyph glyph-name="equal" unicode="=" horiz-adv-x="1488" 
d="M131 688v94h1229v-94h-1229zM131 305v94h1229v-94h-1229z" />
    <glyph glyph-name="greater" unicode="&#x3e;" horiz-adv-x="1513" 
d="M193 53v115l1040 518l-1040 524v107l1130 -567v-125z" />
    <glyph glyph-name="question" unicode="?" horiz-adv-x="1015" 
d="M403 367v106q0 81 20.5 148t53 112t71.5 83t78.5 71.5t72 67t53 79t20.5 99.5q0 125 -91.5 212t-223.5 87q-121 0 -212.5 -80.5t-103.5 -196.5h-104q9 158 131 268.5t289 110.5q175 0 297.5 -117t122.5 -284q0 -82 -38 -149t-91.5 -116t-107.5 -99t-92 -120.5t-38 -156.5
v-125h-107zM375 0v174h166v-174h-166z" />
    <glyph glyph-name="at" unicode="@" horiz-adv-x="1239" 
d="M688 -10q-262 0 -430 166.5t-168 423.5q0 125 48.5 239t131 196t196.5 130.5t239 48.5q249 0 408 -148.5t159 -381.5q0 -164 -73.5 -267.5t-190.5 -103.5q-134 0 -168 108q-37 -54 -92 -85t-115 -31q-109 0 -175.5 71.5t-66.5 190.5q0 141 85 241.5t206 100.5
q114 0 172 -80l6 68h113l-41 -357q-2 -14 -2 -39q0 -94 78 -94q74 0 117.5 74t43.5 201q0 199 -126 317.5t-338 118.5q-217 0 -361.5 -147.5t-144.5 -368.5q0 -220 135 -358t354 -138h477v-96h-477zM647 379q75 0 131 70.5t56 168.5q0 83 -39 129t-107 46q-77 0 -129.5 -71
t-52.5 -175q0 -78 37.5 -123t103.5 -45z" />
    <glyph glyph-name="A" unicode="A" horiz-adv-x="1390" 
d="M211 0l-129 2l547 1432h129l551 -1434h-129l-154 412h-664zM406 530h579l-291 779z" />
    <glyph glyph-name="B" unicode="B" horiz-adv-x="1316" 
d="M195 -4v1438h618q141 -6 239.5 -114t98.5 -257q0 -92 -50 -175.5t-138 -117.5q111 -43 176 -141t65 -240q0 -164 -110.5 -278.5t-270.5 -114.5h-628zM311 807h484q105 0 177 74t72 180q0 112 -73 191t-176 79h-484v-524zM311 109h480q126 0 213.5 81.5t87.5 198.5
q0 132 -87.5 225t-213.5 93h-480v-598z" />
    <glyph glyph-name="C" unicode="C" horiz-adv-x="1454" 
d="M760 -12q-184 0 -329 90t-226.5 254.5t-81.5 376.5q0 218 83.5 386t229.5 258.5t332 90.5q224 0 382 -129t191 -328h-114q-36 149 -162 247.5t-293 98.5q-230 0 -377 -173.5t-147 -454.5q0 -268 145 -433.5t371 -165.5q172 0 301 98t162 247h114q-34 -204 -194 -333.5
t-387 -129.5z" />
    <glyph glyph-name="D" unicode="D" horiz-adv-x="1484" 
d="M195 -4v1438l526 4q295 0 468 -194.5t173 -516.5q0 -217 -74.5 -381.5t-215.5 -255t-331 -90.5zM311 109l398 4q250 0 395 165t145 441q0 278 -142.5 442.5t-387.5 161.5l-408 -4v-1210z" />
    <glyph glyph-name="E" unicode="E" horiz-adv-x="1175" 
d="M195 0v1434h878v-109h-762v-545h719v-108h-719v-563h762v-109h-878z" />
    <glyph glyph-name="F" unicode="F" horiz-adv-x="1114" 
d="M195 0v1434h878v-109h-762v-545h719v-108h-719v-672h-116z" />
    <glyph glyph-name="G" unicode="G" horiz-adv-x="1566" 
d="M776 -12q-136 0 -256.5 52.5t-208 146t-138 229t-50.5 293.5q0 163 51.5 302t140 234.5t210.5 149t261 53.5q219 0 387 -131.5t197 -329.5h-115q-25 150 -159.5 252t-304.5 102q-113 0 -213.5 -46.5t-174.5 -129t-117.5 -202t-43.5 -258.5q0 -131 42.5 -245t115 -192.5
t172 -123t210.5 -44.5q59 0 122.5 17.5t128 56.5t116.5 95t87 141t40 186h-449v117l555 -4v-709l-110 -2l2 276q-54 -96 -138.5 -162t-175 -95t-184.5 -29z" />
    <glyph glyph-name="H" unicode="H" horiz-adv-x="1419" 
d="M195 0v1434h116v-654h797v654h117v-1434h-117v672h-797v-672h-116z" />
    <glyph glyph-name="I" unicode="I" horiz-adv-x="522" 
d="M205 0v1434h112v-1434h-112z" />
    <glyph glyph-name="J" unicode="J" horiz-adv-x="1032" 
d="M459 -16q-178 0 -285.5 108t-112.5 291v111h113v-111q5 -134 82 -213.5t201 -79.5q134 0 210 84.5t76 233.5v1026h115v-1026q0 -196 -107 -310t-292 -114z" />
    <glyph glyph-name="K" unicode="K" horiz-adv-x="1226" 
d="M195 0v1434h112v-746l707 746l153 2l-575 -611l584 -825h-148l-516 739l-205 -217v-522h-112z" />
    <glyph glyph-name="L" unicode="L" horiz-adv-x="1042" 
d="M195 0v1434h116v-1325h660v-109h-776z" />
    <glyph glyph-name="M" unicode="M" horiz-adv-x="1683" 
d="M195 0v1434h163l490 -1330l477 1330h164v-1434h-113v1241l-446 -1241h-170l-453 1257v-1257h-112z" />
    <glyph glyph-name="N" unicode="N" horiz-adv-x="1464" 
d="M1137 -2l-830 1264v-1262h-112v1434h133l829 -1264v1262h113v-1434h-133z" />
    <glyph glyph-name="O" unicode="O" horiz-adv-x="1564" 
d="M782 -20q-187 0 -339 100t-236 268.5t-84 368.5q0 206 82 373t233 263.5t344 96.5t344.5 -97.5t233.5 -265t82 -374.5q0 -149 -50 -284t-136 -234t-209.5 -157t-264.5 -58zM778 94q159 0 286 82t196 221.5t69 307.5q0 177 -67.5 321t-193 227.5t-286.5 83.5
q-160 0 -284.5 -83.5t-191 -226t-66.5 -318.5q0 -169 67.5 -309.5t191.5 -223t279 -82.5z" />
    <glyph glyph-name="P" unicode="P" horiz-adv-x="1243" 
d="M195 -2v1436l546 2q189 -1 304.5 -116.5t115.5 -301.5q0 -185 -118.5 -297.5t-313.5 -112.5h-422v-610h-112zM307 715h434q141 0 227.5 83.5t86.5 219.5q0 141 -86.5 227t-227.5 86h-432z" />
    <glyph glyph-name="Q" unicode="Q" horiz-adv-x="1552" 
d="M1358 -53l-223 172q-160 -119 -371 -119q-180 0 -327 94t-230.5 258.5t-83.5 364.5q0 202 83 365.5t229.5 255.5t328.5 92q183 0 329.5 -92.5t229 -256.5t82.5 -368q0 -317 -188 -518l213 -168zM760 111q151 0 278 84l-198 153l80 80l204 -160q77 81 120.5 195t43.5 242
q0 170 -69.5 311.5t-190 222t-264.5 80.5q-146 0 -265 -80t-186 -219.5t-67 -310.5q0 -168 67 -305t185 -215t262 -78z" />
    <glyph glyph-name="R" unicode="R" horiz-adv-x="1341" 
d="M195 -2v1436l546 2q204 1 312 -98t108 -281q0 -103 -65 -195.5t-164 -122.5q41 -13 71.5 -31t50.5 -45.5t32.5 -53t20 -68.5t10.5 -75t7 -89q13 -192 23 -253.5t43 -123.5h-129q-8 18 -13 37t-8.5 35t-6.5 46.5t-4.5 51t-4.5 71t-6 85.5q-9 135 -12 154q-19 122 -96 166
q-59 34 -158 34h-445v-682h-112zM307 784h434q135 0 224.5 78.5t89.5 194.5q0 131 -80.5 202.5t-233.5 71.5h-432z" />
    <glyph glyph-name="S" unicode="S" horiz-adv-x="1302" 
d="M680 -14q-86 0 -166 17.5t-150 54.5t-123.5 90.5t-87 128.5t-40.5 165h131q19 -164 139.5 -256t316.5 -92q174 0 271.5 78.5t97.5 218.5q0 120 -86 183.5t-297 101.5q-286 51 -410 143t-124 254q0 157 133.5 265t326.5 108q253 0 400 -121.5t147 -333.5h-119
q-12 170 -118 258t-299 88q-149 0 -250 -76t-101 -188q0 -50 20.5 -90.5t55.5 -69.5t88.5 -52t111 -38.5t130.5 -27.5q288 -51 400 -140.5t112 -267.5q0 -181 -140 -291t-370 -110z" />
    <glyph glyph-name="T" unicode="T" horiz-adv-x="1249" 
d="M567 0v1325h-526v109h1167v-109h-524v-1325h-117z" />
    <glyph glyph-name="U" unicode="U" horiz-adv-x="1413" 
d="M707 -16q-242 0 -387.5 143t-145.5 391v916h115v-916q0 -197 114 -310.5t304 -113.5t303.5 113.5t113.5 310.5v916h115v-916q0 -248 -145 -391t-387 -143z" />
    <glyph glyph-name="V" unicode="V" horiz-adv-x="1325" 
d="M578 0l-517 1434h115l490 -1330l477 1330h121l-516 -1434h-170z" />
    <glyph glyph-name="W" unicode="W" horiz-adv-x="1884" 
d="M459 0l-387 1434h110l357 -1280l348 1280h114l351 -1282l346 1282h114l-387 -1434h-153l-328 1227l-332 -1227h-153z" />
    <glyph glyph-name="X" unicode="X" horiz-adv-x="1353" 
d="M82 0l526 717l-526 717h137l459 -623l457 623h137l-527 -717l527 -717h-137l-457 623l-459 -623h-137z" />
    <glyph glyph-name="Y" unicode="Y" horiz-adv-x="1277" 
d="M580 0v598l-519 836h125l453 -736l453 736h125l-519 -836v-598h-118z" />
    <glyph glyph-name="Z" unicode="Z" horiz-adv-x="1349" 
d="M123 0v109l981 1216h-969v109h1112v-109l-987 -1216h975v-109h-1112z" />
    <glyph glyph-name="bracketleft" unicode="[" horiz-adv-x="552" 
d="M170 -649v2322h383v-86h-285v-2150h285v-86h-383z" />
    <glyph glyph-name="backslash" unicode="\" horiz-adv-x="1179" 
d="M1069 -512l-1079 2048h112l1078 -2048h-111z" />
    <glyph glyph-name="bracketright" unicode="]" horiz-adv-x="552" 
d="M170 -649v86h285v2150h-285v86h383v-2322h-383z" />
    <glyph glyph-name="underscore" unicode="_" horiz-adv-x="1406" 
d="M193 -78v78h1024v-78h-1024z" />
    <glyph glyph-name="grave" unicode="`" horiz-adv-x="0" 
d="M-190 1229l-236 239h141l215 -239h-120z" />
    <glyph glyph-name="a" unicode="a" horiz-adv-x="1079" 
d="M449 -20q-93 0 -171 35.5t-127 107t-49 166.5q0 66 27 124.5t74 96.5q96 75 272 90q42 4 71.5 7.5t73.5 11t74 19t59.5 27.5t44.5 39.5t15 53.5q0 93 -75.5 142.5t-186.5 49.5q-123 0 -200.5 -58.5t-92.5 -162.5l-117 -2q17 148 126.5 235t281.5 87q177 0 277 -92
t100 -244v-713h-113v160q-138 -180 -364 -180zM459 90q59 0 119 19.5t114 58t87.5 105.5t33.5 153v166q-65 -71 -303 -90q-291 -25 -291 -211q0 -97 72.5 -149t167.5 -52z" />
    <glyph glyph-name="b" unicode="b" horiz-adv-x="1204" 
d="M643 -23q-110 0 -208.5 55t-147.5 146v-178h-113v1434h113v-605q47 92 146.5 148.5t215.5 56.5q198 0 325.5 -149t127.5 -379q0 -229 -129.5 -379t-329.5 -150zM641 88q155 0 247.5 116.5t92.5 301.5q0 186 -92.5 303t-247.5 117q-164 0 -263 -120.5t-99 -309.5
q0 -180 99 -294t263 -114z" />
    <glyph glyph-name="c" unicode="c" horiz-adv-x="1073" 
d="M553 -14q-194 0 -322.5 146t-128.5 380q0 241 128 386.5t331 145.5q160 0 275 -97t135 -249h-107q-22 106 -107 174t-192 68q-155 0 -249.5 -119.5t-94.5 -314.5q0 -184 93 -298t245 -114q113 0 199.5 69.5t105.5 174.5h107q-20 -153 -136.5 -252.5t-281.5 -99.5z" />
    <glyph glyph-name="d" unicode="d" horiz-adv-x="1204" 
d="M561 -23q-200 0 -329.5 150t-129.5 379q0 230 127.5 379t325.5 149q116 0 216 -56.5t147 -148.5v605h112v-1434h-112v178q-49 -91 -148 -146t-209 -55zM563 88q164 0 263.5 114t99.5 294q0 188 -99.5 309t-263.5 121q-155 0 -247.5 -117t-92.5 -303q0 -185 92.5 -301.5
t247.5 -116.5z" />
    <glyph glyph-name="e" unicode="e" horiz-adv-x="1114" 
d="M565 -23q-205 0 -334 145.5t-129 381.5q0 238 124.5 385t340.5 147q206 0 324.5 -150t120.5 -394h-789v-3q0 -184 93 -293.5t255 -109.5q116 0 204 69.5t112 174.5h108q-20 -153 -140.5 -253t-289.5 -100zM229 596h658q-20 159 -95.5 246.5t-228.5 87.5
q-149 0 -231.5 -90t-102.5 -244z" />
    <glyph glyph-name="f" unicode="f" horiz-adv-x="573" 
d="M178 0v920h-137v104h137v152q0 123 65 190.5t177 67.5h112v-107h-112q-58 0 -93.5 -39t-35.5 -112v-152h233v-104h-233v-920h-113z" />
    <glyph glyph-name="g" unicode="g" horiz-adv-x="1193" 
d="M563 -422q-179 0 -297 94.5t-125 249.5h115q7 -79 54.5 -135t112.5 -80t140 -24q163 0 259 94.5t96 281.5v136q-47 -92 -147 -148.5t-216 -56.5q-198 0 -325.5 149t-127.5 379q0 229 129.5 379t329.5 150q110 0 209 -55t148 -146v178h112v-965q0 -120 -35 -213t-98 -151
t-147.5 -87.5t-186.5 -29.5zM563 98q164 0 263.5 121t99.5 309q0 180 -99.5 294t-263.5 114q-155 0 -247.5 -116.5t-92.5 -301.5q0 -186 92.5 -303t247.5 -117z" />
    <glyph glyph-name="h" unicode="h" 
d="M174 0v1434h113v-557q42 75 130 124.5t197 49.5q174 0 275.5 -116.5t101.5 -305.5v-629h-112v629q-2 132 -78 226.5t-195 94.5q-149 0 -233 -100.5t-86 -274.5v-575h-113z" />
    <glyph glyph-name="i" unicode="i" horiz-adv-x="460" 
d="M164 1284v150h133v-150h-133zM174 0v1024h113v-1024h-113z" />
    <glyph glyph-name="j" unicode="j" horiz-adv-x="446" 
d="M160 1284v150h133v-150h-133zM0 -362v110h39q58 0 93.5 38t35.5 110v1128h113v-1128q0 -123 -65 -190.5t-177 -67.5h-39z" />
    <glyph glyph-name="k" unicode="k" horiz-adv-x="1034" 
d="M174 0v1434h113v-940l508 530h139l-377 -395l416 -629l-135 2l-361 537l-190 -199v-340h-113z" />
    <glyph glyph-name="l" unicode="l" horiz-adv-x="460" 
d="M174 0v1434h113v-1434h-113z" />
    <glyph glyph-name="m" unicode="m" horiz-adv-x="1859" 
d="M174 0v1024h113v-147q42 75 130 124.5t197 49.5q119 0 205.5 -57t130.5 -158q48 92 146 153.5t229 61.5q171 0 271 -117t100 -305v-629h-113v629q0 143 -75 232t-197 89q-137 0 -228 -103t-92 -272v-575h-112v629q0 143 -75 232t-198 89q-137 0 -227.5 -103t-91.5 -272
v-575h-113z" />
    <glyph glyph-name="n" unicode="n" 
d="M174 0v1024h113v-147q42 75 130 124.5t197 49.5q174 0 275.5 -116.5t101.5 -305.5v-629h-112v629q0 143 -76 232t-197 89q-137 0 -227.5 -103t-91.5 -272v-575h-113z" />
    <glyph glyph-name="o" unicode="o" horiz-adv-x="1153" 
d="M578 -10q-209 0 -342.5 146.5t-133.5 375.5q0 232 133.5 379t342.5 147q219 0 346 -145t127 -381q0 -229 -133 -375.5t-340 -146.5zM573 96q161 0 264 115.5t103 296.5q0 191 -95.5 307.5t-266.5 116.5q-158 0 -259.5 -118t-101.5 -302q0 -183 99.5 -299.5t256.5 -116.5z
" />
    <glyph glyph-name="p" unicode="p" horiz-adv-x="1204" 
d="M174 -410v1434h113v-178q49 91 147.5 146t208.5 55q200 0 329.5 -150t129.5 -379q0 -230 -127.5 -379t-325.5 -149q-116 0 -215.5 56.5t-146.5 148.5v-605h-113zM641 98q155 0 247.5 117t92.5 303q0 185 -92.5 301.5t-247.5 116.5q-164 0 -263 -114t-99 -294
q0 -189 99 -309.5t263 -120.5z" />
    <glyph glyph-name="q" unicode="q" horiz-adv-x="1204" 
d="M918 -410v605q-47 -92 -147 -148.5t-216 -56.5q-198 0 -325.5 149t-127.5 379q0 229 129.5 379t329.5 150q110 0 209 -55t148 -146v178h112v-1434h-112zM563 98q164 0 263.5 121t99.5 309q0 180 -99.5 294t-263.5 114q-155 0 -247.5 -116.5t-92.5 -301.5
q0 -186 92.5 -303t247.5 -117z" />
    <glyph glyph-name="r" unicode="r" horiz-adv-x="692" 
d="M174 0v1024h113v-147q11 27 33 54t61 55.5t104 44t146 9.5v-110q-160 6 -252 -70.5t-92 -251.5v-608h-113z" />
    <glyph glyph-name="s" unicode="s" horiz-adv-x="980" 
d="M512 -23q-169 0 -290 92.5t-130 258.5h119q9 -121 95.5 -184.5t219.5 -63.5q69 0 120 17.5t78 47.5t39.5 63.5t12.5 72.5q0 83 -60.5 123t-199.5 65q-203 35 -298 103.5t-95 193.5q0 117 99.5 196.5t242.5 79.5q178 0 291 -89.5t110 -258.5h-110q-3 124 -76 186t-209 62
q-101 0 -169.5 -50.5t-68.5 -125.5q0 -80 72 -122.5t207 -65.5q204 -35 290.5 -101t86.5 -201q0 -126 -98.5 -212.5t-278.5 -86.5z" />
    <glyph glyph-name="t" unicode="t" horiz-adv-x="589" 
d="M416 0q-112 0 -177 67.5t-65 190.5v662h-154v104h154v283h113v-283h237v-104h-237v-662q0 -72 35.5 -109.5t93.5 -37.5h112v-111h-112z" />
    <glyph glyph-name="u" unicode="u" 
d="M541 -27q-174 0 -275.5 116.5t-101.5 305.5v629h112v-629q2 -132 78 -226.5t195 -94.5q149 0 233 100.5t86 274.5v575h113v-1024h-113v147q-42 -75 -130 -124.5t-197 -49.5z" />
    <glyph glyph-name="v" unicode="v" horiz-adv-x="1015" 
d="M428 0l-387 1024h121l344 -913l344 913h125l-391 -1024h-156z" />
    <glyph glyph-name="w" unicode="w" horiz-adv-x="1519" 
d="M362 0l-311 1024h135l254 -915l252 915h135l254 -915l252 915h135l-309 -1024h-158l-239 874l-240 -874h-160z" />
    <glyph glyph-name="x" unicode="x" horiz-adv-x="972" 
d="M61 0l361 512l-361 512h132l294 -418l293 418h131l-360 -512l360 -512h-129l-295 420l-297 -420h-129z" />
    <glyph glyph-name="y" unicode="y" horiz-adv-x="1001" 
d="M92 -410v109h58q84 0 133.5 38.5t78.5 108.5l82 213l-403 965h133l328 -815l327 815h132l-480 -1192q-22 -58 -46.5 -98t-62 -74.5t-93 -51.5t-129.5 -18h-58z" />
    <glyph glyph-name="z" unicode="z" horiz-adv-x="1030" 
d="M102 0v104l670 816h-670v106l805 -2v-104l-663 -816h659v-104h-801z" />
    <glyph glyph-name="braceleft" unicode="{" horiz-adv-x="653" 
d="M496 -635q-88 0 -159 77.5t-71 184.5v486q0 79 -4.5 125.5t-20 91.5t-46 75t-82.5 56v100q42 21 70 47.5t44.5 54t25 68.5t11 78.5t2.5 97.5v486q0 115 69 187.5t159 72.5h51v-84q-189 0 -189 -197v-495q0 -130 -29 -217t-120 -150q91 -62 120 -149t29 -218v-501
q0 -98 46.5 -144.5t142.5 -46.5v-86h-49z" />
    <glyph glyph-name="bar" unicode="|" horiz-adv-x="587" 
d="M248 -307v1843h92v-1843h-92z" />
    <glyph glyph-name="braceright" unicode="}" horiz-adv-x="653" 
d="M113 -635v86q96 0 142 46.5t46 144.5v501q0 130 29.5 217.5t120.5 149.5q-91 63 -120.5 150t-29.5 217v495q0 197 -188 197v84h51q90 0 158.5 -72.5t68.5 -187.5v-486q0 -59 2.5 -97t11 -79t25 -68.5t45 -54t70.5 -47.5v-100q-42 -21 -69.5 -46t-44.5 -52t-26 -67.5
t-11.5 -80.5t-2.5 -102v-486q0 -107 -71 -184.5t-158 -77.5h-49z" />
    <glyph glyph-name="exclamdown" unicode="&#xa1;" horiz-adv-x="583" 
d="M211 952v174h166v-174h-166zM229 -410l13 1115h96l12 -1115h-121z" />
    <glyph glyph-name="cent" unicode="&#xa2;" horiz-adv-x="1097" 
d="M522 0v154q-178 15 -293.5 158.5t-115.5 365.5q0 225 112.5 368t296.5 162v158h99v-158q143 -15 242 -109.5t118 -234.5h-107q-22 106 -107 174t-192 68q-155 0 -249.5 -119.5t-94.5 -314.5q0 -184 93 -298t245 -114q113 0 199.5 69.5t105.5 174.5h107
q-19 -140 -117.5 -235.5t-242.5 -112.5v-156h-99z" />
    <glyph glyph-name="sterling" unicode="&#xa3;" horiz-adv-x="1228" 
d="M1137 301q-8 -148 -90.5 -236t-215.5 -88q-64 0 -137 23.5t-126.5 51.5t-116 51.5t-107.5 23.5q-65 0 -106.5 -36t-47.5 -97h-110q8 86 59 149t129 82q45 81 45 166q0 109 -45 273h-174v96h144q-48 165 -48 303q2 177 129 300.5t320 123.5t309 -102.5t131 -284.5h-104
q-40 284 -336 284q-142 0 -243 -98t-101 -237q0 -40 6.5 -83t12 -64.5t21 -75t19.5 -66.5h482v-96h-449q41 -173 41 -275q0 -73 -35 -160q59 -13 209.5 -77t218.5 -64q97 0 148.5 54.5t56.5 158.5h111z" />
    <glyph glyph-name="yen" unicode="&#xa5;" horiz-adv-x="1357" 
d="M618 0v340h-428v90h428v213h-428v94h428l-528 799h131l457 -700l459 700h131l-529 -799h435v-94h-435v-213h435v-90h-435v-340h-121z" />
    <glyph glyph-name="brokenbar" unicode="&#xa6;" horiz-adv-x="587" 
d="M248 799v737h92v-737h-92zM248 -307v737h92v-737h-92z" />
    <glyph glyph-name="dieresis" unicode="&#xa8;" horiz-adv-x="108" 
d="M201 1231v174h166v-174h-166zM512 1231v174h166v-174h-166z" />
    <glyph glyph-name="copyright" unicode="&#xa9;" horiz-adv-x="1794" 
d="M897 -20q-160 0 -306 62.5t-251.5 168t-168 251.5t-62.5 306t62.5 306t168 251.5t251.5 168t306 62.5q128 0 248.5 -40t217.5 -113t170 -170t113 -217t40 -248t-40 -248t-113 -217t-170 -170t-217.5 -113t-248.5 -40zM897 63q145 0 276 55.5t225.5 150t150 225
t55.5 274.5t-55.5 274.5t-150 225t-225.5 150t-276 55.5q-192 0 -354 -94t-256 -256.5t-94 -354.5t94 -354.5t256 -256.5t354 -94zM891 344q-166 0 -270.5 118.5t-104.5 305.5q0 189 106 309.5t273 120.5q131 0 226 -78t114 -200h-96q-19 81 -86 132.5t-154 51.5
q-125 0 -203 -94t-78 -246q0 -142 76.5 -231t198.5 -89q91 0 160 51t86 130h96q-20 -123 -116 -202t-228 -79z" />
    <glyph glyph-name="guillemotleft" unicode="&#xab;" horiz-adv-x="1253" 
d="M547 195l-311 376l311 377h119l-312 -377l312 -376h-119zM899 195l-311 376l311 377h121l-311 -377l311 -376h-121z" />
    <glyph glyph-name="uni00AD" unicode="&#xad;" horiz-adv-x="1208" 
d="M193 483v78h716v-78h-716z" />
    <glyph glyph-name="registered" unicode="&#xae;" horiz-adv-x="1794" 
d="M897 -20q-160 0 -306 62.5t-251.5 168t-168 251.5t-62.5 306t62.5 306t168 251.5t251.5 168t306 62.5q128 0 248.5 -40t217.5 -113t170 -170t113 -217t40 -248t-40 -248t-113 -217t-170 -170t-217.5 -113t-248.5 -40zM897 63q145 0 276 55.5t225.5 150t150 225
t55.5 274.5t-55.5 274.5t-150 225t-225.5 150t-276 55.5q-192 0 -354 -94t-256 -256.5t-94 -354.5t94 -354.5t256 -256.5t354 -94zM1114 362q-6 13 -9.5 25t-6.5 32.5t-4 31.5t-3.5 46.5t-3.5 53.5q-7 90 -13 111q-19 64 -90 73q-15 2 -32 2h-233v-368h-96v827h325
q120 0 186 -60t66 -169q0 -54 -28.5 -103.5t-75.5 -77.5q48 -27 63.5 -72.5t20.5 -129.5q7 -101 15.5 -144t27.5 -78h-109zM719 829h229q69 0 114.5 39.5t45.5 98.5q0 67 -41 102t-119 35h-229v-275z" />
    <glyph glyph-name="macron" unicode="&#xaf;" horiz-adv-x="137" 
d="M70 1243v94h635v-94h-635z" />
    <glyph glyph-name="degree" unicode="&#xb0;" horiz-adv-x="1013" 
d="M508 1008q-114 0 -194.5 80.5t-80.5 193.5q0 114 80.5 194t194.5 80q113 0 193.5 -80t80.5 -194q0 -112 -81 -193t-193 -81zM508 1085q82 0 139.5 57.5t57.5 139.5q0 83 -57.5 140t-139.5 57q-83 0 -140 -57t-57 -140q0 -82 57 -139.5t140 -57.5z" />
    <glyph glyph-name="acute" unicode="&#xb4;" horiz-adv-x="0" 
d="M-305 1229h-121l215 239h141z" />
    <glyph glyph-name="periodcentered" unicode="&#xb7;" horiz-adv-x="552" 
d="M207 537v174h166v-174h-166z" />
    <glyph glyph-name="cedilla" unicode="&#xb8;" horiz-adv-x="108" 
d="M303 -532q-66 0 -133.5 34.5t-99.5 85.5l65 33q26 -34 75 -57t93 -23q55 0 92 37.5t37 93.5q0 57 -36.5 90t-96.5 33q-36 0 -86 -16l-63 45l86 176h75l-65 -143q30 6 57 6q89 0 147 -53.5t58 -137.5q0 -86 -59.5 -145t-145.5 -59z" />
    <glyph glyph-name="guillemotright" unicode="&#xbb;" horiz-adv-x="1253" 
d="M233 195l312 376l-312 377h119l312 -377l-312 -376h-119zM586 195l311 376l-311 377h121l311 -377l-311 -376h-121z" />
    <glyph glyph-name="questiondown" unicode="&#xbf;" horiz-adv-x="1032" 
d="M475 950v174h166v-174h-166zM559 -410q-175 0 -297.5 117.5t-122.5 284.5q0 60 20 112t52.5 90.5t71.5 75t78.5 73.5t72 77t52.5 95t20 118v125h106v-107q0 -81 -20.5 -148t-53 -112t-71.5 -83t-78 -71t-71.5 -66.5t-53 -79t-20.5 -99.5q0 -125 91.5 -212t223.5 -87
q121 0 212 80t103 196h105q-9 -158 -131 -268.5t-289 -110.5z" />
    <glyph glyph-name="Agrave" unicode="&#xc0;" horiz-adv-x="1390" 
d="M688 1559l-235 239h141l215 -239h-121zM211 0l-129 2l547 1432h129l551 -1434h-129l-154 412h-664zM406 530h579l-291 779z" />
    <glyph glyph-name="Aacute" unicode="&#xc1;" horiz-adv-x="1390" 
d="M750 1554h-121l215 240h141zM211 0l-129 2l547 1432h129l551 -1434h-129l-154 412h-664zM406 530h579l-291 779z" />
    <glyph glyph-name="Acircumflex" unicode="&#xc2;" horiz-adv-x="1390" 
d="M623 1745h145l205 -205h-137l-140 137l-137 -137h-141zM211 0l-129 2l547 1432h129l551 -1434h-129l-154 412h-664zM406 530h579l-291 779z" />
    <glyph glyph-name="Atilde" unicode="&#xc3;" horiz-adv-x="1390" 
d="M844 1532q-118 0 -185 108q-42 68 -106 68q-46 0 -74 -35t-28 -92q0 -21 2 -31h-91q-2 10 -2 33q0 94 53 153.5t136 59.5q116 0 184 -108q42 -68 109 -68q46 0 74 35.5t28 93.5q0 4 -1 13.5t-1 13.5h88q2 -12 2 -37q0 -91 -52 -149t-136 -58zM211 0l-129 2l547 1432h129
l551 -1434h-129l-154 412h-664zM406 530h579l-291 779z" />
    <glyph glyph-name="Adieresis" unicode="&#xc4;" horiz-adv-x="1390" 
d="M453 1544v174h165v-174h-165zM764 1544v174h166v-174h-166zM211 0l-129 2l547 1432h129l551 -1434h-129l-154 412h-664zM406 530h579l-291 779z" />
    <glyph glyph-name="Aring" unicode="&#xc5;" horiz-adv-x="1390" 
d="M696 1526q-83 0 -141.5 58t-58.5 138q0 82 58.5 140.5t141.5 58.5q80 0 137.5 -58.5t57.5 -140.5q0 -80 -58 -138t-137 -58zM696 1608q47 0 81 33.5t34 80.5q0 49 -34 84t-81 35q-49 0 -82.5 -34.5t-33.5 -84.5q0 -48 33.5 -81t82.5 -33zM211 0l-129 2l547 1432h129
l551 -1434h-129l-154 412h-664zM406 530h579l-291 779z" />
    <glyph glyph-name="AE" unicode="&#xc6;" horiz-adv-x="1775" 
d="M1673 1325h-762v-545h719v-108h-719v-563h762v-109h-878v422h-424l-160 -422l-129 2l547 1432h1044v-109zM406 530h389v795h-97z" />
    <glyph glyph-name="Ccedilla" unicode="&#xc7;" horiz-adv-x="1454" 
d="M764 106q172 0 301 98t162 247h114q-34 -204 -194 -333.5t-387 -129.5h-21l-39 -86q30 6 58 6q89 0 147 -53.5t58 -137.5q0 -86 -59.5 -145t-145.5 -59q-66 0 -134 34.5t-100 85.5l66 33q26 -34 75 -57t93 -23q55 0 92 37.5t37 93.5q0 57 -36.5 90t-96.5 33
q-36 0 -86 -16l-64 45l62 125q-244 34 -393.5 228.5t-149.5 486.5q0 218 83.5 386t229.5 258.5t332 90.5q224 0 382 -129t191 -328h-114q-36 149 -162 247.5t-293 98.5q-230 0 -377 -173.5t-147 -454.5q0 -268 145 -433.5t371 -165.5z" />
    <glyph glyph-name="Egrave" unicode="&#xc8;" horiz-adv-x="1175" 
d="M623 1559l-236 239h141l215 -239h-120zM195 0v1434h878v-109h-762v-545h719v-108h-719v-563h762v-109h-878z" />
    <glyph glyph-name="Eacute" unicode="&#xc9;" horiz-adv-x="1175" 
d="M684 1554h-121l215 240h142zM195 0v1434h878v-109h-762v-545h719v-108h-719v-563h762v-109h-878z" />
    <glyph glyph-name="Ecircumflex" unicode="&#xca;" horiz-adv-x="1175" 
d="M557 1745h145l205 -205h-137l-139 137l-137 -137h-142zM195 0v1434h878v-109h-762v-545h719v-108h-719v-563h762v-109h-878z" />
    <glyph glyph-name="Edieresis" unicode="&#xcb;" horiz-adv-x="1175" 
d="M387 1544v174h166v-174h-166zM698 1544v174h166v-174h-166zM195 0v1434h878v-109h-762v-545h719v-108h-719v-563h762v-109h-878z" />
    <glyph glyph-name="Igrave" unicode="&#xcc;" horiz-adv-x="522" 
d="M254 1559l-236 239h142l215 -239h-121zM205 0v1434h112v-1434h-112z" />
    <glyph glyph-name="Iacute" unicode="&#xcd;" horiz-adv-x="522" 
d="M315 1554h-120l215 240h141zM205 0v1434h112v-1434h-112z" />
    <glyph glyph-name="Icircumflex" unicode="&#xce;" horiz-adv-x="518" 
d="M188 1745h146l205 -205h-138l-139 137l-137 -137h-141zM205 0v1434h112v-1434h-112z" />
    <glyph glyph-name="Idieresis" unicode="&#xcf;" horiz-adv-x="503" 
d="M18 1544v174h166v-174h-166zM330 1544v174h166v-174h-166zM205 0v1434h112v-1434h-112z" />
    <glyph glyph-name="Eth" unicode="&#xd0;" horiz-adv-x="1538" 
d="M774 1438q295 0 468 -194.5t173 -516.5q0 -330 -167 -528.5t-453 -198.5l-547 -4v674h-53v104h53v660zM762 113q250 0 395.5 165t145.5 441q0 277 -142.5 442t-388.5 162l-407 -4v-545h190v-104h-190v-561z" />
    <glyph glyph-name="Ntilde" unicode="&#xd1;" horiz-adv-x="1464" 
d="M881 1532q-118 0 -185 108q-42 68 -106 68q-46 0 -74.5 -35t-28.5 -92q0 -21 2 -31h-90q-2 10 -2 33q0 94 53 153.5t136 59.5q116 0 184 -108q42 -68 109 -68q46 0 74 35.5t28 93.5q0 4 -1 13.5t-1 13.5h88q2 -12 2 -37q0 -91 -52 -149t-136 -58zM1137 -2l-830 1264
v-1262h-112v1434h133l829 -1264v1262h113v-1434h-133z" />
    <glyph glyph-name="Ograve" unicode="&#xd2;" horiz-adv-x="1564" 
d="M774 1559l-235 239h141l215 -239h-121zM782 -20q-187 0 -339 100t-236 268.5t-84 368.5q0 206 82 373t233 263.5t344 96.5t344.5 -97.5t233.5 -265t82 -374.5q0 -149 -50 -284t-136 -234t-209.5 -157t-264.5 -58zM778 94q159 0 286 82t196 221.5t69 307.5
q0 177 -67.5 321t-193 227.5t-286.5 83.5q-160 0 -284.5 -83.5t-191 -226t-66.5 -318.5q0 -169 67.5 -309.5t191.5 -223t279 -82.5z" />
    <glyph glyph-name="Oacute" unicode="&#xd3;" horiz-adv-x="1564" 
d="M836 1554h-121l215 240h141zM782 -20q-187 0 -339 100t-236 268.5t-84 368.5q0 206 82 373t233 263.5t344 96.5t344.5 -97.5t233.5 -265t82 -374.5q0 -149 -50 -284t-136 -234t-209.5 -157t-264.5 -58zM778 94q159 0 286 82t196 221.5t69 307.5q0 177 -67.5 321
t-193 227.5t-286.5 83.5q-160 0 -284.5 -83.5t-191 -226t-66.5 -318.5q0 -169 67.5 -309.5t191.5 -223t279 -82.5z" />
    <glyph glyph-name="Ocircumflex" unicode="&#xd4;" horiz-adv-x="1564" 
d="M709 1745h145l205 -205h-137l-140 137l-137 -137h-141zM782 -20q-187 0 -339 100t-236 268.5t-84 368.5q0 206 82 373t233 263.5t344 96.5t344.5 -97.5t233.5 -265t82 -374.5q0 -149 -50 -284t-136 -234t-209.5 -157t-264.5 -58zM778 94q159 0 286 82t196 221.5t69 307.5
q0 177 -67.5 321t-193 227.5t-286.5 83.5q-160 0 -284.5 -83.5t-191 -226t-66.5 -318.5q0 -169 67.5 -309.5t191.5 -223t279 -82.5z" />
    <glyph glyph-name="Otilde" unicode="&#xd5;" horiz-adv-x="1564" 
d="M930 1532q-118 0 -185 108q-42 68 -106 68q-46 0 -74 -35t-28 -92q0 -21 2 -31h-90q-3 15 -3 33q0 94 53 153.5t136 59.5q116 0 184 -108q42 -68 109 -68q46 0 74 35.5t28 93.5q0 4 -1 13.5t-1 13.5h88q2 -12 2 -37q0 -91 -52 -149t-136 -58zM782 -20q-187 0 -339 100
t-236 268.5t-84 368.5q0 206 82 373t233 263.5t344 96.5t344.5 -97.5t233.5 -265t82 -374.5q0 -149 -50 -284t-136 -234t-209.5 -157t-264.5 -58zM778 94q159 0 286 82t196 221.5t69 307.5q0 177 -67.5 321t-193 227.5t-286.5 83.5q-160 0 -284.5 -83.5t-191 -226
t-66.5 -318.5q0 -169 67.5 -309.5t191.5 -223t279 -82.5z" />
    <glyph glyph-name="Odieresis" unicode="&#xd6;" horiz-adv-x="1564" 
d="M539 1544v174h166v-174h-166zM850 1544v174h166v-174h-166zM782 -20q-187 0 -339 100t-236 268.5t-84 368.5q0 206 82 373t233 263.5t344 96.5t344.5 -97.5t233.5 -265t82 -374.5q0 -149 -50 -284t-136 -234t-209.5 -157t-264.5 -58zM778 94q159 0 286 82t196 221.5
t69 307.5q0 177 -67.5 321t-193 227.5t-286.5 83.5q-160 0 -284.5 -83.5t-191 -226t-66.5 -318.5q0 -169 67.5 -309.5t191.5 -223t279 -82.5z" />
    <glyph glyph-name="multiply" unicode="&#xd7;" horiz-adv-x="1497" 
d="M367 150l-76 75l409 410l-409 412l76 75l409 -411l412 411l76 -75l-412 -412l412 -410l-76 -75l-412 409z" />
    <glyph glyph-name="Oslash" unicode="&#xd8;" horiz-adv-x="1581" 
d="M1260 1237q88 -100 135 -234.5t47 -289.5q0 -149 -50 -284t-136 -234t-209.5 -157t-264.5 -58q-252 0 -434 176l-133 -156h-115l189 221q-79 101 -122.5 229t-43.5 267q0 206 82 373t233 263.5t344 96.5q243 0 416 -152l115 136h114zM240 709q0 -234 122 -400l762 901
q-143 127 -342 127q-160 0 -284.5 -83.5t-191 -226t-66.5 -318.5zM778 94q159 0 286 82t196 221.5t69 307.5q0 262 -143 442l-766 -905q148 -148 358 -148z" />
    <glyph glyph-name="Ugrave" unicode="&#xd9;" horiz-adv-x="1413" 
d="M698 1559l-235 239h141l215 -239h-121zM707 -16q-242 0 -387.5 143t-145.5 391v916h115v-916q0 -197 114 -310.5t304 -113.5t303.5 113.5t113.5 310.5v916h115v-916q0 -248 -145 -391t-387 -143z" />
    <glyph glyph-name="Uacute" unicode="&#xda;" horiz-adv-x="1413" 
d="M760 1554h-121l215 240h141zM707 -16q-242 0 -387.5 143t-145.5 391v916h115v-916q0 -197 114 -310.5t304 -113.5t303.5 113.5t113.5 310.5v916h115v-916q0 -248 -145 -391t-387 -143z" />
    <glyph glyph-name="Ucircumflex" unicode="&#xdb;" horiz-adv-x="1413" 
d="M633 1745h145l205 -205h-137l-139 137l-138 -137h-141zM707 -16q-242 0 -387.5 143t-145.5 391v916h115v-916q0 -197 114 -310.5t304 -113.5t303.5 113.5t113.5 310.5v916h115v-916q0 -248 -145 -391t-387 -143z" />
    <glyph glyph-name="Udieresis" unicode="&#xdc;" horiz-adv-x="1413" 
d="M463 1544v174h166v-174h-166zM774 1544v174h166v-174h-166zM707 -16q-242 0 -387.5 143t-145.5 391v916h115v-916q0 -197 114 -310.5t304 -113.5t303.5 113.5t113.5 310.5v916h115v-916q0 -248 -145 -391t-387 -143z" />
    <glyph glyph-name="Yacute" unicode="&#xdd;" horiz-adv-x="1277" 
d="M692 1554h-121l215 240h142zM580 0v598l-519 836h125l453 -736l453 736h125l-519 -836v-598h-118z" />
    <glyph glyph-name="Thorn" unicode="&#xde;" horiz-adv-x="1243" 
d="M195 -2v1436h112v-285l434 2q189 -1 304.5 -116.5t115.5 -301.5q0 -185 -118.5 -297t-313.5 -112h-422v-326h-112zM307 430h434q141 0 227.5 83.5t86.5 219.5q0 141 -86.5 227.5t-227.5 86.5h-432z" />
    <glyph glyph-name="germandbls" unicode="&#xdf;" horiz-adv-x="1257" 
d="M467 -20l-2 104h213q149 0 244.5 81t95.5 208q0 131 -106.5 220t-297.5 89h-34v96h28q177 0 280 89t103 216q0 83 -48.5 143t-120 86.5t-156.5 26.5q-164 0 -260.5 -93t-96.5 -251v-1011h-114v1011q0 207 130.5 329t352.5 122q191 0 313.5 -96.5t122.5 -259.5
q0 -126 -74 -219t-198 -130q144 -31 223.5 -129t79.5 -229q0 -177 -131 -290t-336 -113h-211z" />
    <glyph glyph-name="agrave" unicode="&#xe0;" horiz-adv-x="1079" 
d="M532 1149l-235 240h141l215 -240h-121zM449 -20q-93 0 -171 35.5t-127 107t-49 166.5q0 66 27 124.5t74 96.5q96 75 272 90q42 4 71.5 7.5t73.5 11t74 19t59.5 27.5t44.5 39.5t15 53.5q0 93 -75.5 142.5t-186.5 49.5q-123 0 -200.5 -58.5t-92.5 -162.5l-117 -2
q17 148 126.5 235t281.5 87q177 0 277 -92t100 -244v-713h-113v160q-138 -180 -364 -180zM459 90q59 0 119 19.5t114 58t87.5 105.5t33.5 153v166q-65 -71 -303 -90q-291 -25 -291 -211q0 -97 72.5 -149t167.5 -52z" />
    <glyph glyph-name="aacute" unicode="&#xe1;" horiz-adv-x="1079" 
d="M594 1145h-121l215 239h141zM449 -20q-93 0 -171 35.5t-127 107t-49 166.5q0 66 27 124.5t74 96.5q96 75 272 90q42 4 71.5 7.5t73.5 11t74 19t59.5 27.5t44.5 39.5t15 53.5q0 93 -75.5 142.5t-186.5 49.5q-123 0 -200.5 -58.5t-92.5 -162.5l-117 -2q17 148 126.5 235
t281.5 87q177 0 277 -92t100 -244v-713h-113v160q-138 -180 -364 -180zM459 90q59 0 119 19.5t114 58t87.5 105.5t33.5 153v166q-65 -71 -303 -90q-291 -25 -291 -211q0 -97 72.5 -149t167.5 -52z" />
    <glyph glyph-name="acircumflex" unicode="&#xe2;" horiz-adv-x="1079" 
d="M467 1335h145l205 -205h-137l-139 138l-138 -138h-141zM449 -20q-93 0 -171 35.5t-127 107t-49 166.5q0 66 27 124.5t74 96.5q96 75 272 90q42 4 71.5 7.5t73.5 11t74 19t59.5 27.5t44.5 39.5t15 53.5q0 93 -75.5 142.5t-186.5 49.5q-123 0 -200.5 -58.5t-92.5 -162.5
l-117 -2q17 148 126.5 235t281.5 87q177 0 277 -92t100 -244v-713h-113v160q-138 -180 -364 -180zM459 90q59 0 119 19.5t114 58t87.5 105.5t33.5 153v166q-65 -71 -303 -90q-291 -25 -291 -211q0 -97 72.5 -149t167.5 -52z" />
    <glyph glyph-name="atilde" unicode="&#xe3;" horiz-adv-x="1079" 
d="M688 1122q-117 0 -184 109q-41 67 -107 67q-46 0 -74 -35t-28 -92q0 -20 2 -30h-90q-2 10 -2 33q0 94 52.5 153t135.5 59q117 0 185 -108q42 -68 108 -68q46 0 74 35.5t28 93.5q0 4 -1 13.5t-1 13.5h88q3 -18 3 -37q0 -91 -52.5 -149t-136.5 -58zM449 -20
q-93 0 -171 35.5t-127 107t-49 166.5q0 66 27 124.5t74 96.5q96 75 272 90q42 4 71.5 7.5t73.5 11t74 19t59.5 27.5t44.5 39.5t15 53.5q0 93 -75.5 142.5t-186.5 49.5q-123 0 -200.5 -58.5t-92.5 -162.5l-117 -2q17 148 126.5 235t281.5 87q177 0 277 -92t100 -244v-713
h-113v160q-138 -180 -364 -180zM459 90q59 0 119 19.5t114 58t87.5 105.5t33.5 153v166q-65 -71 -303 -90q-291 -25 -291 -211q0 -97 72.5 -149t167.5 -52z" />
    <glyph glyph-name="adieresis" unicode="&#xe4;" horiz-adv-x="1079" 
d="M297 1135v174h166v-174h-166zM608 1135v174h166v-174h-166zM449 -20q-93 0 -171 35.5t-127 107t-49 166.5q0 66 27 124.5t74 96.5q96 75 272 90q42 4 71.5 7.5t73.5 11t74 19t59.5 27.5t44.5 39.5t15 53.5q0 93 -75.5 142.5t-186.5 49.5q-123 0 -200.5 -58.5
t-92.5 -162.5l-117 -2q17 148 126.5 235t281.5 87q177 0 277 -92t100 -244v-713h-113v160q-138 -180 -364 -180zM459 90q59 0 119 19.5t114 58t87.5 105.5t33.5 153v166q-65 -71 -303 -90q-291 -25 -291 -211q0 -97 72.5 -149t167.5 -52z" />
    <glyph glyph-name="aring" unicode="&#xe5;" horiz-adv-x="1079" 
d="M541 1116q-83 0 -142 58.5t-59 138.5q0 82 59 140t142 58q80 0 137 -58t57 -140q0 -80 -57.5 -138.5t-136.5 -58.5zM541 1198q47 0 80.5 34t33.5 81q0 49 -33.5 84t-80.5 35q-49 0 -83 -34.5t-34 -84.5q0 -48 34 -81.5t83 -33.5zM449 -20q-93 0 -171 35.5t-127 107
t-49 166.5q0 66 27 124.5t74 96.5q96 75 272 90q42 4 71.5 7.5t73.5 11t74 19t59.5 27.5t44.5 39.5t15 53.5q0 93 -75.5 142.5t-186.5 49.5q-123 0 -200.5 -58.5t-92.5 -162.5l-117 -2q17 148 126.5 235t281.5 87q177 0 277 -92t100 -244v-713h-113v160q-138 -180 -364 -180
zM459 90q59 0 119 19.5t114 58t87.5 105.5t33.5 153v166q-65 -71 -303 -90q-291 -25 -291 -211q0 -97 72.5 -149t167.5 -52z" />
    <glyph glyph-name="ae" unicode="&#xe6;" horiz-adv-x="1843" 
d="M1300 86q116 0 204 69.5t112 174.5h108q-20 -153 -140.5 -253t-289.5 -100q-137 0 -243.5 68.5t-163.5 190.5q-14 -41 -52.5 -84.5t-94.5 -82.5t-135 -64t-163 -25q-141 0 -240.5 84t-99.5 225q0 66 27 124.5t74 96.5q96 75 272 90q42 4 71.5 7.5t73.5 11t74 19
t59.5 27.5t44.5 39.5t15 53.5q0 93 -75.5 142.5t-186.5 49.5q-123 0 -200.5 -58.5t-92.5 -162.5l-117 -2q17 148 126.5 235t281.5 87q142 0 234.5 -60.5t125.5 -165.5q60 102 158.5 157.5t228.5 55.5q206 0 324.5 -150t120.5 -394h-789v-3q0 -184 93 -293.5t255 -109.5z
M1292 930q-149 0 -231.5 -90t-102.5 -244h658q-20 159 -95.5 246.5t-228.5 87.5zM813 426v166q-65 -71 -303 -90q-291 -22 -291 -211q0 -97 72.5 -149t167.5 -52q59 0 119 19.5t114 58t87.5 105.5t33.5 153z" />
    <glyph glyph-name="ccedilla" unicode="&#xe7;" horiz-adv-x="1073" 
d="M559 94q113 0 199.5 69.5t105.5 174.5h107q-20 -153 -136.5 -252.5t-281.5 -99.5h-6l-37 -82q30 6 57 6q89 0 147 -53.5t58 -137.5q0 -86 -59.5 -145t-145.5 -59q-66 0 -133.5 34.5t-99.5 85.5l65 33q26 -34 75 -57t93 -23q55 0 92 37.5t37 93.5q0 57 -36.5 90t-96.5 33
q-36 0 -86 -16l-63 45l59 121q-165 31 -268 171.5t-103 348.5q0 241 128 386.5t331 145.5q160 0 275 -97t135 -249h-107q-22 106 -107 174t-192 68q-155 0 -249.5 -119.5t-94.5 -314.5q0 -184 93 -298t245 -114z" />
    <glyph glyph-name="egrave" unicode="&#xe8;" horiz-adv-x="1114" 
d="M549 1149l-236 240h142l215 -240h-121zM565 -23q-205 0 -334 145.5t-129 381.5q0 238 124.5 385t340.5 147q206 0 324.5 -150t120.5 -394h-789v-3q0 -184 93 -293.5t255 -109.5q116 0 204 69.5t112 174.5h108q-20 -153 -140.5 -253t-289.5 -100zM229 596h658
q-20 159 -95.5 246.5t-228.5 87.5q-149 0 -231.5 -90t-102.5 -244z" />
    <glyph glyph-name="eacute" unicode="&#xe9;" horiz-adv-x="1114" 
d="M610 1145h-121l216 239h141zM565 -23q-205 0 -334 145.5t-129 381.5q0 238 124.5 385t340.5 147q206 0 324.5 -150t120.5 -394h-789v-3q0 -184 93 -293.5t255 -109.5q116 0 204 69.5t112 174.5h108q-20 -153 -140.5 -253t-289.5 -100zM229 596h658q-20 159 -95.5 246.5
t-228.5 87.5q-149 0 -231.5 -90t-102.5 -244z" />
    <glyph glyph-name="ecircumflex" unicode="&#xea;" horiz-adv-x="1114" 
d="M483 1335h146l205 -205h-138l-139 138l-137 -138h-141zM565 -23q-205 0 -334 145.5t-129 381.5q0 238 124.5 385t340.5 147q206 0 324.5 -150t120.5 -394h-789v-3q0 -184 93 -293.5t255 -109.5q116 0 204 69.5t112 174.5h108q-20 -153 -140.5 -253t-289.5 -100zM229 596
h658q-20 159 -95.5 246.5t-228.5 87.5q-149 0 -231.5 -90t-102.5 -244z" />
    <glyph glyph-name="edieresis" unicode="&#xeb;" horiz-adv-x="1114" 
d="M313 1135v174h166v-174h-166zM625 1135v174h166v-174h-166zM565 -23q-205 0 -334 145.5t-129 381.5q0 238 124.5 385t340.5 147q206 0 324.5 -150t120.5 -394h-789v-3q0 -184 93 -293.5t255 -109.5q116 0 204 69.5t112 174.5h108q-20 -153 -140.5 -253t-289.5 -100z
M229 596h658q-20 159 -95.5 246.5t-228.5 87.5q-149 0 -231.5 -90t-102.5 -244z" />
    <glyph glyph-name="igrave" unicode="&#xec;" horiz-adv-x="446" 
d="M240 1149l-236 240h141l215 -240h-120zM190 0v1024h113v-1024h-113z" />
    <glyph glyph-name="iacute" unicode="&#xed;" horiz-adv-x="471" 
d="M254 1145h-121l215 239h141zM143 0v1024h113v-1024h-113z" />
    <glyph glyph-name="icircumflex" unicode="&#xee;" horiz-adv-x="454" 
d="M147 1335h146l205 -205h-138l-139 138l-137 -138h-141zM164 0v1024h112v-1024h-112z" />
    <glyph glyph-name="idieresis" unicode="&#xef;" horiz-adv-x="425" 
d="M-31 1135v174h166v-174h-166zM281 1135v174h165v-174h-165zM156 0v1024h112v-1024h-112z" />
    <glyph glyph-name="eth" unicode="&#xf0;" horiz-adv-x="1341" 
d="M1167 1241v-92h-137v-1149h-112v178q-49 -91 -148 -146t-209 -55q-200 0 -329.5 150t-129.5 379q0 230 127.5 379t325.5 149q116 0 216 -56.5t147 -148.5v320h-216v92h216v193h112v-193h137zM563 88q164 0 263.5 114t99.5 294q0 188 -99.5 309t-263.5 121
q-155 0 -247.5 -117t-92.5 -303q0 -185 92.5 -301.5t247.5 -116.5z" />
    <glyph glyph-name="ntilde" unicode="&#xf1;" 
d="M725 1122q-117 0 -184 109q-41 67 -107 67q-46 0 -74 -35t-28 -92q0 -20 2 -30h-90q-2 10 -2 33q0 94 52.5 153t135.5 59q116 0 184 -108q42 -68 109 -68q46 0 74 35.5t28 93.5q0 4 -1 13.5t-1 13.5h88q2 -12 2 -37q0 -91 -52 -149t-136 -58zM174 0v1024h113v-147
q42 75 130 124.5t197 49.5q174 0 275.5 -116.5t101.5 -305.5v-629h-112v629q0 143 -76 232t-197 89q-137 0 -227.5 -103t-91.5 -272v-575h-113z" />
    <glyph glyph-name="ograve" unicode="&#xf2;" horiz-adv-x="1153" 
d="M569 1149l-235 240h141l215 -240h-121zM578 -10q-209 0 -342.5 146.5t-133.5 375.5q0 232 133.5 379t342.5 147q219 0 346 -145t127 -381q0 -229 -133 -375.5t-340 -146.5zM573 96q161 0 264 115.5t103 296.5q0 191 -95.5 307.5t-266.5 116.5q-158 0 -259.5 -118
t-101.5 -302q0 -183 99.5 -299.5t256.5 -116.5z" />
    <glyph glyph-name="oacute" unicode="&#xf3;" horiz-adv-x="1153" 
d="M631 1145h-121l215 239h141zM578 -10q-209 0 -342.5 146.5t-133.5 375.5q0 232 133.5 379t342.5 147q219 0 346 -145t127 -381q0 -229 -133 -375.5t-340 -146.5zM573 96q161 0 264 115.5t103 296.5q0 191 -95.5 307.5t-266.5 116.5q-158 0 -259.5 -118t-101.5 -302
q0 -183 99.5 -299.5t256.5 -116.5z" />
    <glyph glyph-name="ocircumflex" unicode="&#xf4;" horiz-adv-x="1153" 
d="M504 1335h145l205 -205h-137l-139 138l-138 -138h-141zM578 -10q-209 0 -342.5 146.5t-133.5 375.5q0 232 133.5 379t342.5 147q219 0 346 -145t127 -381q0 -229 -133 -375.5t-340 -146.5zM573 96q161 0 264 115.5t103 296.5q0 191 -95.5 307.5t-266.5 116.5
q-158 0 -259.5 -118t-101.5 -302q0 -183 99.5 -299.5t256.5 -116.5z" />
    <glyph glyph-name="otilde" unicode="&#xf5;" horiz-adv-x="1153" 
d="M725 1122q-117 0 -184 109q-41 67 -107 67q-46 0 -74 -35t-28 -92q0 -20 2 -30h-90q-2 10 -2 33q0 94 52.5 153t135.5 59q116 0 184 -108q42 -68 109 -68q46 0 74 35.5t28 93.5q0 4 -1 13.5t-1 13.5h88q2 -12 2 -37q0 -91 -52 -149t-136 -58zM578 -10
q-209 0 -342.5 146.5t-133.5 375.5q0 232 133.5 379t342.5 147q219 0 346 -145t127 -381q0 -229 -133 -375.5t-340 -146.5zM573 96q161 0 264 115.5t103 296.5q0 191 -95.5 307.5t-266.5 116.5q-158 0 -259.5 -118t-101.5 -302q0 -183 99.5 -299.5t256.5 -116.5z" />
    <glyph glyph-name="odieresis" unicode="&#xf6;" horiz-adv-x="1153" 
d="M334 1135v174h166v-174h-166zM645 1135v174h166v-174h-166zM578 -10q-209 0 -342.5 146.5t-133.5 375.5q0 232 133.5 379t342.5 147q219 0 346 -145t127 -381q0 -229 -133 -375.5t-340 -146.5zM573 96q161 0 264 115.5t103 296.5q0 191 -95.5 307.5t-266.5 116.5
q-158 0 -259.5 -118t-101.5 -302q0 -183 99.5 -299.5t256.5 -116.5z" />
    <glyph glyph-name="divide" unicode="&#xf7;" horiz-adv-x="1488" 
d="M662 850v174h165v-174h-165zM246 541v96h1005v-96h-1005zM662 147v175h165v-175h-165z" />
    <glyph glyph-name="oslash" unicode="&#xf8;" horiz-adv-x="1177" 
d="M1079 1024l-137 -154q109 -140 109 -358q0 -229 -133 -375.5t-340 -146.5q-191 0 -320 123l-100 -113h-103l154 170q-107 142 -107 342q0 232 133.5 379t342.5 147q188 0 311 -110l88 96h102zM217 512q0 -148 68 -256l530 590q-92 86 -237 86q-158 0 -259.5 -118
t-101.5 -302zM940 508q0 169 -74 278l-532 -591q99 -99 239 -99q161 0 264 115.5t103 296.5z" />
    <glyph glyph-name="ugrave" unicode="&#xf9;" 
d="M569 1149l-235 240h141l215 -240h-121zM541 -27q-174 0 -275.5 116.5t-101.5 305.5v629h112v-629q2 -132 78 -226.5t195 -94.5q149 0 233 100.5t86 274.5v575h113v-1024h-113v147q-42 -75 -130 -124.5t-197 -49.5z" />
    <glyph glyph-name="uacute" unicode="&#xfa;" 
d="M631 1145h-121l215 239h141zM541 -27q-174 0 -275.5 116.5t-101.5 305.5v629h112v-629q2 -132 78 -226.5t195 -94.5q149 0 233 100.5t86 274.5v575h113v-1024h-113v147q-42 -75 -130 -124.5t-197 -49.5z" />
    <glyph glyph-name="ucircumflex" unicode="&#xfb;" 
d="M504 1335h145l205 -205h-137l-139 138l-138 -138h-141zM541 -27q-174 0 -275.5 116.5t-101.5 305.5v629h112v-629q2 -132 78 -226.5t195 -94.5q149 0 233 100.5t86 274.5v575h113v-1024h-113v147q-42 -75 -130 -124.5t-197 -49.5z" />
    <glyph glyph-name="udieresis" unicode="&#xfc;" 
d="M334 1135v174h166v-174h-166zM645 1135v174h166v-174h-166zM541 -27q-174 0 -275.5 116.5t-101.5 305.5v629h112v-629q2 -132 78 -226.5t195 -94.5q149 0 233 100.5t86 274.5v575h113v-1024h-113v147q-42 -75 -130 -124.5t-197 -49.5z" />
    <glyph glyph-name="yacute" unicode="&#xfd;" horiz-adv-x="1001" 
d="M555 1145h-121l215 239h142zM92 -410v109h58q84 0 133.5 38.5t78.5 108.5l82 213l-403 965h133l328 -815l327 815h132l-480 -1192q-22 -58 -46.5 -98t-62 -74.5t-93 -51.5t-129.5 -18h-58z" />
    <glyph glyph-name="thorn" unicode="&#xfe;" horiz-adv-x="1126" 
d="M121 -326v1704h112v-532q49 91 148 146t209 55q200 0 329.5 -150t129.5 -379q0 -230 -127.5 -379t-325.5 -149q-116 0 -216 56.5t-147 148.5v-521h-112zM588 98q155 0 247.5 117t92.5 303q0 185 -92.5 301.5t-247.5 116.5q-164 0 -263.5 -114t-99.5 -294
q0 -188 99.5 -309t263.5 -121z" />
    <glyph glyph-name="ydieresis" unicode="&#xff;" horiz-adv-x="1001" 
d="M258 1135v174h166v-174h-166zM569 1135v174h166v-174h-166zM92 -410v109h58q84 0 133.5 38.5t78.5 108.5l82 213l-403 965h133l328 -815l327 815h132l-480 -1192q-22 -58 -46.5 -98t-62 -74.5t-93 -51.5t-129.5 -18h-58z" />
    <glyph glyph-name="Amacron" unicode="&#x100;" horiz-adv-x="1390" 
d="M385 1589v94h635v-94h-635zM211 0l-129 2l547 1432h129l551 -1434h-129l-154 412h-664zM406 530h579l-291 779z" />
    <glyph glyph-name="amacron" unicode="&#x101;" horiz-adv-x="1079" 
d="M229 1180v94h635v-94h-635zM449 -20q-93 0 -171 35.5t-127 107t-49 166.5q0 66 27 124.5t74 96.5q96 75 272 90q42 4 71.5 7.5t73.5 11t74 19t59.5 27.5t44.5 39.5t15 53.5q0 93 -75.5 142.5t-186.5 49.5q-123 0 -200.5 -58.5t-92.5 -162.5l-117 -2q17 148 126.5 235
t281.5 87q177 0 277 -92t100 -244v-713h-113v160q-138 -180 -364 -180zM459 90q59 0 119 19.5t114 58t87.5 105.5t33.5 153v166q-65 -71 -303 -90q-291 -25 -291 -211q0 -97 72.5 -149t167.5 -52z" />
    <glyph glyph-name="Abreve" unicode="&#x102;" horiz-adv-x="1390" 
d="M696 1546q-143 0 -236 84.5t-93 220.5h88q0 -95 63 -159t178 -64q116 0 181 64.5t65 158.5h86q0 -136 -94 -220.5t-238 -84.5zM211 0l-129 2l547 1432h129l551 -1434h-129l-154 412h-664zM406 530h579l-291 779z" />
    <glyph glyph-name="abreve" unicode="&#x103;" horiz-adv-x="1079" 
d="M541 1137q-143 0 -236.5 84.5t-93.5 220.5h88q0 -95 63.5 -159t178.5 -64q116 0 180.5 64t64.5 159h86q0 -136 -93.5 -220.5t-237.5 -84.5zM449 -20q-93 0 -171 35.5t-127 107t-49 166.5q0 66 27 124.5t74 96.5q96 75 272 90q42 4 71.5 7.5t73.5 11t74 19t59.5 27.5
t44.5 39.5t15 53.5q0 93 -75.5 142.5t-186.5 49.5q-123 0 -200.5 -58.5t-92.5 -162.5l-117 -2q17 148 126.5 235t281.5 87q177 0 277 -92t100 -244v-713h-113v160q-138 -180 -364 -180zM459 90q59 0 119 19.5t114 58t87.5 105.5t33.5 153v166q-65 -71 -303 -90
q-291 -25 -291 -211q0 -97 72.5 -149t167.5 -52z" />
    <glyph glyph-name="Aogonek" unicode="&#x104;" horiz-adv-x="1228" 
d="M1397 -365l47 -67q-103 -100 -256 -100q-103 0 -164 56.5t-61 151.5q0 179 225 324h-8l-154 412h-664l-151 -412l-129 2l547 1432h129l551 -1432l8 -2q-98 -43 -178 -128.5t-80 -182.5q0 -64 36.5 -103t104.5 -39q119 0 197 88zM406 530h579l-291 779z" />
    <glyph glyph-name="aogonek" unicode="&#x105;" horiz-adv-x="1079" 
d="M1008 -365l47 -67q-103 -100 -256 -100q-103 0 -164.5 56.5t-61.5 151.5q0 173 240 326v158q-138 -180 -364 -180q-93 0 -171 35.5t-127 107t-49 166.5q0 66 27 124.5t74 96.5q96 75 272 90q42 4 71.5 7.5t73.5 11t74 19t59.5 27.5t44.5 39.5t15 53.5q0 93 -75.5 142.5
t-186.5 49.5q-123 0 -200.5 -58.5t-92.5 -162.5l-117 -2q17 148 126.5 235t281.5 87q177 0 277 -92t100 -244v-713q-98 -42 -177 -128t-79 -183q0 -64 36.5 -103t104.5 -39q119 0 197 88zM459 90q59 0 119 19.5t114 58t87.5 105.5t33.5 153v166q-65 -71 -303 -90
q-291 -25 -291 -211q0 -97 72.5 -149t167.5 -52z" />
    <glyph glyph-name="Cacute" unicode="&#x106;" horiz-adv-x="1454" 
d="M780 1554h-121l215 240h142zM760 -12q-184 0 -329 90t-226.5 254.5t-81.5 376.5q0 218 83.5 386t229.5 258.5t332 90.5q224 0 382 -129t191 -328h-114q-36 149 -162 247.5t-293 98.5q-230 0 -377 -173.5t-147 -454.5q0 -268 145 -433.5t371 -165.5q172 0 301 98t162 247
h114q-34 -204 -194 -333.5t-387 -129.5z" />
    <glyph glyph-name="cacute" unicode="&#x107;" horiz-adv-x="1073" 
d="M590 1145h-121l215 239h141zM553 -14q-194 0 -322.5 146t-128.5 380q0 241 128 386.5t331 145.5q160 0 275 -97t135 -249h-107q-22 106 -107 174t-192 68q-155 0 -249.5 -119.5t-94.5 -314.5q0 -184 93 -298t245 -114q113 0 199.5 69.5t105.5 174.5h107
q-20 -153 -136.5 -252.5t-281.5 -99.5z" />
    <glyph glyph-name="Ccircumflex" unicode="&#x108;" horiz-adv-x="1454" 
d="M653 1745h146l205 -205h-138l-139 137l-137 -137h-141zM760 -12q-184 0 -329 90t-226.5 254.5t-81.5 376.5q0 218 83.5 386t229.5 258.5t332 90.5q224 0 382 -129t191 -328h-114q-36 149 -162 247.5t-293 98.5q-230 0 -377 -173.5t-147 -454.5q0 -268 145 -433.5
t371 -165.5q172 0 301 98t162 247h114q-34 -204 -194 -333.5t-387 -129.5z" />
    <glyph glyph-name="ccircumflex" unicode="&#x109;" horiz-adv-x="1073" 
d="M463 1335h145l205 -205h-137l-139 138l-138 -138h-141zM553 -14q-194 0 -322.5 146t-128.5 380q0 241 128 386.5t331 145.5q160 0 275 -97t135 -249h-107q-22 106 -107 174t-192 68q-155 0 -249.5 -119.5t-94.5 -314.5q0 -184 93 -298t245 -114q113 0 199.5 69.5
t105.5 174.5h107q-20 -153 -136.5 -252.5t-281.5 -99.5z" />
    <glyph glyph-name="Cdotaccent" unicode="&#x10a;" horiz-adv-x="1454" 
d="M639 1571v174h166v-174h-166zM760 -12q-184 0 -329 90t-226.5 254.5t-81.5 376.5q0 218 83.5 386t229.5 258.5t332 90.5q224 0 382 -129t191 -328h-114q-36 149 -162 247.5t-293 98.5q-230 0 -377 -173.5t-147 -454.5q0 -268 145 -433.5t371 -165.5q172 0 301 98t162 247
h114q-34 -204 -194 -333.5t-387 -129.5z" />
    <glyph glyph-name="cdotaccent" unicode="&#x10b;" horiz-adv-x="1073" 
d="M449 1161v174h165v-174h-165zM553 -14q-194 0 -322.5 146t-128.5 380q0 241 128 386.5t331 145.5q160 0 275 -97t135 -249h-107q-22 106 -107 174t-192 68q-155 0 -249.5 -119.5t-94.5 -314.5q0 -184 93 -298t245 -114q113 0 199.5 69.5t105.5 174.5h107
q-20 -153 -136.5 -252.5t-281.5 -99.5z" />
    <glyph glyph-name="Ccaron" unicode="&#x10c;" horiz-adv-x="1454" 
d="M442 1733h142l137 -138l139 138h137l-204 -205h-146zM760 -12q-184 0 -329 90t-226.5 254.5t-81.5 376.5q0 218 83.5 386t229.5 258.5t332 90.5q224 0 382 -129t191 -328h-114q-36 149 -162 247.5t-293 98.5q-230 0 -377 -173.5t-147 -454.5q0 -268 145 -433.5
t371 -165.5q172 0 301 98t162 247h114q-34 -204 -194 -333.5t-387 -129.5z" />
    <glyph glyph-name="ccaron" unicode="&#x10d;" horiz-adv-x="1073" 
d="M252 1323h141l137 -137l140 137h137l-205 -205h-145zM553 -14q-194 0 -322.5 146t-128.5 380q0 241 128 386.5t331 145.5q160 0 275 -97t135 -249h-107q-22 106 -107 174t-192 68q-155 0 -249.5 -119.5t-94.5 -314.5q0 -184 93 -298t245 -114q113 0 199.5 69.5
t105.5 174.5h107q-20 -153 -136.5 -252.5t-281.5 -99.5z" />
    <glyph glyph-name="Dcaron" unicode="&#x10e;" horiz-adv-x="1484" 
d="M459 1733h141l137 -138l140 138h137l-205 -205h-145zM195 -4v1438l526 4q295 0 468 -194.5t173 -516.5q0 -217 -74.5 -381.5t-215.5 -255t-331 -90.5zM311 109l398 4q250 0 395 165t145 441q0 278 -142.5 442.5t-387.5 161.5l-408 -4v-1210z" />
    <glyph glyph-name="dcaron" unicode="&#x10f;" horiz-adv-x="1204" 
d="M561 -23q-200 0 -329.5 150t-129.5 379q0 230 127.5 379t325.5 149q116 0 216 -56.5t147 -148.5v605h112v-1434h-112v178q-49 -91 -148 -146t-209 -55zM254 1434h141l137 -138l140 138h137l-205 -205h-145zM563 88q164 0 263.5 114t99.5 294q0 188 -99.5 309t-263.5 121
q-155 0 -247.5 -117t-92.5 -303q0 -185 92.5 -301.5t247.5 -116.5z" />
    <glyph glyph-name="Dcroat" unicode="&#x110;" horiz-adv-x="1624" 
d="M805 1438q295 0 468 -194.5t173 -516.5q0 -217 -74.5 -381.5t-215.5 -255t-331 -90.5l-546 -4v674h-115v104h115v660zM793 113q250 0 395 165t145 441q0 278 -142.5 442.5t-387.5 161.5l-408 -4v-545h353v-104h-353v-561z" />
    <glyph glyph-name="Emacron" unicode="&#x112;" horiz-adv-x="1175" 
d="M319 1589v94h635v-94h-635zM195 0v1434h878v-109h-762v-545h719v-108h-719v-563h762v-109h-878z" />
    <glyph glyph-name="emacron" unicode="&#x113;" horiz-adv-x="1114" 
d="M246 1180v94h635v-94h-635zM565 -23q-205 0 -334 145.5t-129 381.5q0 238 124.5 385t340.5 147q206 0 324.5 -150t120.5 -394h-789v-3q0 -184 93 -293.5t255 -109.5q116 0 204 69.5t112 174.5h108q-20 -153 -140.5 -253t-289.5 -100zM229 596h658q-20 159 -95.5 246.5
t-228.5 87.5q-149 0 -231.5 -90t-102.5 -244z" />
    <glyph glyph-name="Ebreve" unicode="&#x114;" horiz-adv-x="1175" 
d="M631 1546q-143 0 -236.5 84.5t-93.5 220.5h88q0 -95 63.5 -159t178.5 -64q116 0 181 64.5t65 158.5h86q0 -136 -94 -220.5t-238 -84.5zM195 0v1434h878v-109h-762v-545h719v-108h-719v-563h762v-109h-878z" />
    <glyph glyph-name="ebreve" unicode="&#x115;" horiz-adv-x="1114" 
d="M557 1137q-143 0 -236.5 84.5t-93.5 220.5h88q0 -95 63.5 -159t178.5 -64q116 0 181 64.5t65 158.5h86q0 -136 -94 -220.5t-238 -84.5zM565 -23q-205 0 -334 145.5t-129 381.5q0 238 124.5 385t340.5 147q206 0 324.5 -150t120.5 -394h-789v-3q0 -184 93 -293.5
t255 -109.5q116 0 204 69.5t112 174.5h108q-20 -153 -140.5 -253t-289.5 -100zM229 596h658q-20 159 -95.5 246.5t-228.5 87.5q-149 0 -231.5 -90t-102.5 -244z" />
    <glyph glyph-name="Edotaccent" unicode="&#x116;" horiz-adv-x="1175" 
d="M543 1571v174h166v-174h-166zM195 0v1434h878v-109h-762v-545h719v-108h-719v-563h762v-109h-878z" />
    <glyph glyph-name="edotaccent" unicode="&#x117;" horiz-adv-x="1114" 
d="M469 1161v174h166v-174h-166zM565 -23q-205 0 -334 145.5t-129 381.5q0 238 124.5 385t340.5 147q206 0 324.5 -150t120.5 -394h-789v-3q0 -184 93 -293.5t255 -109.5q116 0 204 69.5t112 174.5h108q-20 -153 -140.5 -253t-289.5 -100zM229 596h658q-20 159 -95.5 246.5
t-228.5 87.5q-149 0 -231.5 -90t-102.5 -244z" />
    <glyph glyph-name="Eogonek" unicode="&#x118;" horiz-adv-x="1175" 
d="M1153 -362l47 -68q-103 -100 -256 -100q-103 0 -164 56.5t-61 151.5q0 172 233 322h-757v1434h878v-109h-762v-545h719v-108h-719v-563h762v-109h-6q-98 -44 -175 -128.5t-77 -180.5q0 -64 36.5 -103t104.5 -39q118 0 197 89z" />
    <glyph glyph-name="eogonek" unicode="&#x119;" horiz-adv-x="1114" 
d="M571 86q116 0 204 69.5t112 174.5h108q-19 -140 -122.5 -236.5t-254.5 -113.5h3q-98 -42 -177 -128.5t-79 -183.5q0 -64 36.5 -102.5t104.5 -38.5q118 0 196 88l48 -68q-103 -100 -256 -100q-103 0 -164.5 57t-61.5 152q0 172 238 326q-182 20 -293 161.5t-111 360.5
q0 238 124.5 385t340.5 147q206 0 324.5 -150t120.5 -394h-789v-3q0 -184 93 -293.5t255 -109.5zM563 930q-149 0 -231.5 -90t-102.5 -244h658q-20 159 -95.5 246.5t-228.5 87.5z" />
    <glyph glyph-name="Ecaron" unicode="&#x11a;" horiz-adv-x="1175" 
d="M346 1733h141l138 -138l139 138h137l-205 -205h-145zM195 0v1434h878v-109h-762v-545h719v-108h-719v-563h762v-109h-878z" />
    <glyph glyph-name="ecaron" unicode="&#x11b;" horiz-adv-x="1114" 
d="M272 1323h142l137 -137l139 137h137l-204 -205h-146zM565 -23q-205 0 -334 145.5t-129 381.5q0 238 124.5 385t340.5 147q206 0 324.5 -150t120.5 -394h-789v-3q0 -184 93 -293.5t255 -109.5q116 0 204 69.5t112 174.5h108q-20 -153 -140.5 -253t-289.5 -100zM229 596
h658q-20 159 -95.5 246.5t-228.5 87.5q-149 0 -231.5 -90t-102.5 -244z" />
    <glyph glyph-name="Gcircumflex" unicode="&#x11c;" horiz-adv-x="1566" 
d="M711 1745h145l205 -205h-137l-140 137l-137 -137h-141zM776 -12q-136 0 -256.5 52.5t-208 146t-138 229t-50.5 293.5q0 163 51.5 302t140 234.5t210.5 149t261 53.5q219 0 387 -131.5t197 -329.5h-115q-25 150 -159.5 252t-304.5 102q-113 0 -213.5 -46.5t-174.5 -129
t-117.5 -202t-43.5 -258.5q0 -131 42.5 -245t115 -192.5t172 -123t210.5 -44.5q59 0 122.5 17.5t128 56.5t116.5 95t87 141t40 186h-449v117l555 -4v-709l-110 -2l2 276q-54 -96 -138.5 -162t-175 -95t-184.5 -29z" />
    <glyph glyph-name="gcircumflex" unicode="&#x11d;" horiz-adv-x="1193" 
d="M512 1354h145l205 -205h-137l-139 137l-137 -137h-142zM563 -422q-179 0 -297 94.5t-125 249.5h115q7 -79 54.5 -135t112.5 -80t140 -24q163 0 259 94.5t96 281.5v136q-47 -92 -147 -148.5t-216 -56.5q-198 0 -325.5 149t-127.5 379q0 229 129.5 379t329.5 150
q110 0 209 -55t148 -146v178h112v-965q0 -120 -35 -213t-98 -151t-147.5 -87.5t-186.5 -29.5zM563 98q164 0 263.5 121t99.5 309q0 180 -99.5 294t-263.5 114q-155 0 -247.5 -116.5t-92.5 -301.5q0 -186 92.5 -303t247.5 -117z" />
    <glyph glyph-name="Gbreve" unicode="&#x11e;" horiz-adv-x="1566" 
d="M784 1546q-143 0 -236 84.5t-93 220.5h88q0 -95 63 -159t178 -64q116 0 181 64.5t65 158.5h86q0 -136 -94 -220.5t-238 -84.5zM776 -12q-136 0 -256.5 52.5t-208 146t-138 229t-50.5 293.5q0 163 51.5 302t140 234.5t210.5 149t261 53.5q219 0 387 -131.5t197 -329.5
h-115q-25 150 -159.5 252t-304.5 102q-113 0 -213.5 -46.5t-174.5 -129t-117.5 -202t-43.5 -258.5q0 -131 42.5 -245t115 -192.5t172 -123t210.5 -44.5q59 0 122.5 17.5t128 56.5t116.5 95t87 141t40 186h-449v117l555 -4v-709l-110 -2l2 276q-54 -96 -138.5 -162t-175 -95
t-184.5 -29z" />
    <glyph glyph-name="gbreve" unicode="&#x11f;" horiz-adv-x="1193" 
d="M586 1155q-143 0 -236.5 84.5t-93.5 220.5h88q0 -95 63.5 -159t178.5 -64q116 0 180.5 64t64.5 159h87q0 -136 -94 -220.5t-238 -84.5zM563 -422q-179 0 -297 94.5t-125 249.5h115q7 -79 54.5 -135t112.5 -80t140 -24q163 0 259 94.5t96 281.5v136q-47 -92 -147 -148.5
t-216 -56.5q-198 0 -325.5 149t-127.5 379q0 229 129.5 379t329.5 150q110 0 209 -55t148 -146v178h112v-965q0 -120 -35 -213t-98 -151t-147.5 -87.5t-186.5 -29.5zM563 98q164 0 263.5 121t99.5 309q0 180 -99.5 294t-263.5 114q-155 0 -247.5 -116.5t-92.5 -301.5
q0 -186 92.5 -303t247.5 -117z" />
    <glyph glyph-name="Gdotaccent" unicode="&#x120;" horiz-adv-x="1566" 
d="M696 1571v174h166v-174h-166zM776 -12q-136 0 -256.5 52.5t-208 146t-138 229t-50.5 293.5q0 163 51.5 302t140 234.5t210.5 149t261 53.5q219 0 387 -131.5t197 -329.5h-115q-25 150 -159.5 252t-304.5 102q-113 0 -213.5 -46.5t-174.5 -129t-117.5 -202t-43.5 -258.5
q0 -131 42.5 -245t115 -192.5t172 -123t210.5 -44.5q59 0 122.5 17.5t128 56.5t116.5 95t87 141t40 186h-449v117l555 -4v-709l-110 -2l2 276q-54 -96 -138.5 -162t-175 -95t-184.5 -29z" />
    <glyph glyph-name="gdotaccent" unicode="&#x121;" horiz-adv-x="1193" 
d="M498 1180v174h166v-174h-166zM563 -422q-179 0 -297 94.5t-125 249.5h115q7 -79 54.5 -135t112.5 -80t140 -24q163 0 259 94.5t96 281.5v136q-47 -92 -147 -148.5t-216 -56.5q-198 0 -325.5 149t-127.5 379q0 229 129.5 379t329.5 150q110 0 209 -55t148 -146v178h112
v-965q0 -120 -35 -213t-98 -151t-147.5 -87.5t-186.5 -29.5zM563 98q164 0 263.5 121t99.5 309q0 180 -99.5 294t-263.5 114q-155 0 -247.5 -116.5t-92.5 -301.5q0 -186 92.5 -303t247.5 -117z" />
    <glyph glyph-name="uni0122" unicode="&#x122;" horiz-adv-x="1566" 
d="M776 -12q-136 0 -256.5 52.5t-208 146t-138 229t-50.5 293.5q0 163 51.5 302t140 234.5t210.5 149t261 53.5q219 0 387 -131.5t197 -329.5h-115q-25 150 -159.5 252t-304.5 102q-113 0 -213.5 -46.5t-174.5 -129t-117.5 -202t-43.5 -258.5q0 -131 42.5 -245t115 -192.5
t172 -123t210.5 -44.5q59 0 122.5 17.5t128 56.5t116.5 95t87 141t40 186h-449v117l555 -4v-709l-110 -2l2 276q-54 -96 -138.5 -162t-175 -95t-184.5 -29zM707 -502v78q40 2 62.5 31.5t18.5 75.5h-88v174h166v-174q1 -84 -44.5 -134.5t-114.5 -50.5z" />
    <glyph glyph-name="uni0123" unicode="&#x123;" horiz-adv-x="1193" 
d="M563 -422q-179 0 -297 94.5t-125 249.5h115q7 -79 54.5 -135t112.5 -80t140 -24q163 0 259 94.5t96 281.5v136q-47 -92 -147 -148.5t-216 -56.5q-198 0 -325.5 149t-127.5 379q0 229 129.5 379t329.5 150q110 0 209 -55t148 -146v178h112v-965q0 -120 -35 -213t-98 -151
t-147.5 -87.5t-186.5 -29.5zM563 98q164 0 263.5 121t99.5 309q0 180 -99.5 294t-263.5 114q-155 0 -247.5 -116.5t-92.5 -301.5q0 -186 92.5 -303t247.5 -117zM520 -911v77q40 2 63 32t19 75h-88v174h166v-174q1 -84 -44.5 -134t-115.5 -50z" />
    <glyph glyph-name="Hcircumflex" unicode="&#x124;" horiz-adv-x="1419" 
d="M637 1745h145l205 -205h-137l-139 137l-138 -137h-141zM195 0v1434h116v-654h797v654h117v-1434h-117v672h-797v-672h-116z" />
    <glyph glyph-name="hcircumflex" unicode="&#x125;" 
d="M174 0v1434h113v-557q42 75 130 124.5t197 49.5q174 0 275.5 -116.5t101.5 -305.5v-629h-112v629q-2 132 -78 226.5t-195 94.5q-149 0 -233 -100.5t-86 -274.5v-575h-113zM596 1434h145l205 -205h-137l-139 137l-138 -137h-141z" />
    <glyph glyph-name="Hbar" unicode="&#x126;" horiz-adv-x="1533" 
d="M1317 1214v-110h-92v-1104h-117v672h-797v-672h-116v1104h-91v110h91v220h116v-220h797v220h117v-220h92zM1108 780v324h-797v-324h797z" />
    <glyph glyph-name="hbar" unicode="&#x127;" horiz-adv-x="1300" 
d="M760 1051q174 0 275.5 -116.5t101.5 -305.5v-629h-113v629q-2 132 -77.5 226.5t-194.5 94.5q-149 0 -233.5 -101t-86.5 -274v-575h-113v1208h-145v88h145v138h113v-138h270v-88h-270v-331q42 74 130.5 124t197.5 50z" />
    <glyph glyph-name="Itilde" unicode="&#x128;" horiz-adv-x="522" 
d="M410 1532q-118 0 -185 108q-42 68 -106 68q-46 0 -74.5 -35t-28.5 -92q0 -21 2 -31h-90q-2 10 -2 33q0 94 53 153.5t136 59.5q116 0 184 -108q42 -68 109 -68q46 0 74 35.5t28 93.5q0 4 -1 13.5t-1 13.5h88q2 -12 2 -37q0 -91 -52 -149t-136 -58zM205 0v1434h112v-1434
h-112z" />
    <glyph glyph-name="itilde" unicode="&#x129;" horiz-adv-x="550" 
d="M410 1122q-118 0 -185 109q-41 67 -106 67q-46 0 -74.5 -35t-28.5 -92q0 -20 2 -30h-90q-2 10 -2 33q0 94 53 153t136 59q116 0 184 -108q42 -68 109 -68q46 0 74 35.5t28 93.5q0 4 -1 13.5t-1 13.5h88q2 -12 2 -37q0 -91 -52 -149t-136 -58zM205 0v1024h112v-1024h-112z
" />
    <glyph glyph-name="Imacron" unicode="&#x12a;" horiz-adv-x="497" 
d="M-49 1589v94h635v-94h-635zM205 0v1434h112v-1434h-112z" />
    <glyph glyph-name="imacron" unicode="&#x12b;" horiz-adv-x="516" 
d="M-70 1180v94h635v-94h-635zM184 0v1024h113v-1024h-113z" />
    <glyph glyph-name="Ibreve" unicode="&#x12c;" horiz-adv-x="438" 
d="M221 1546q-143 0 -236.5 84.5t-93.5 220.5h89q0 -95 63 -159t178 -64q116 0 181 64.5t65 158.5h86q0 -136 -94 -220.5t-238 -84.5zM164 0v1434h112v-1434h-112z" />
    <glyph glyph-name="ibreve" unicode="&#x12d;" horiz-adv-x="563" 
d="M283 1137q-143 0 -236.5 84.5t-93.5 220.5h88q0 -95 63.5 -159t178.5 -64q116 0 180.5 64t64.5 159h86q0 -136 -93.5 -220.5t-237.5 -84.5zM225 0v1024h113v-1024h-113z" />
    <glyph glyph-name="Iogonek" unicode="&#x12e;" horiz-adv-x="425" 
d="M350 -365l47 -67q-103 -100 -256 -100q-103 0 -164 56.5t-61 151.5q0 174 242 328v1430h112v-1434h-2q-98 -42 -177 -128t-79 -183q0 -64 37 -103t105 -39q118 0 196 88z" />
    <glyph glyph-name="iogonek" unicode="&#x12f;" horiz-adv-x="460" 
d="M297 1434v-150h-133v150h133zM369 -365l47 -67q-103 -100 -256 -100q-103 0 -164.5 56.5t-61.5 151.5q0 173 240 326v1022h113v-1024q-98 -42 -177 -128t-79 -183q0 -64 36.5 -103t104.5 -39q119 0 197 88z" />
    <glyph glyph-name="Idotaccent" unicode="&#x130;" horiz-adv-x="522" 
d="M174 1571v174h166v-174h-166zM205 0v1434h112v-1434h-112z" />
    <glyph glyph-name="dotlessi" unicode="&#x131;" horiz-adv-x="440" 
d="M164 0v1024h112v-1024h-112z" />
    <glyph glyph-name="Jcircumflex" unicode="&#x134;" horiz-adv-x="1032" 
d="M723 1688h145l205 -205h-137l-139 137l-138 -137h-141zM459 -16q-178 0 -285.5 108t-112.5 291v111h113v-111q5 -134 82 -213.5t201 -79.5q134 0 210 84.5t76 233.5v1026h115v-1026q0 -196 -107 -310t-292 -114z" />
    <glyph glyph-name="jcircumflex" unicode="&#x135;" horiz-adv-x="632" 
d="M250 1329h145l205 -205h-137l-139 138l-138 -138h-141zM104 -362v110h39q58 0 93.5 38t35.5 110v1128h113v-1128q0 -123 -65 -190.5t-177 -67.5h-39z" />
    <glyph glyph-name="uni0136" unicode="&#x136;" horiz-adv-x="1226" 
d="M195 0v1434h112v-746l707 746l153 2l-575 -611l584 -825h-148l-516 739l-205 -217v-522h-112zM537 -502v78q40 2 62.5 31.5t18.5 75.5h-88v174h166v-174q1 -84 -44.5 -134.5t-114.5 -50.5z" />
    <glyph glyph-name="uni0137" unicode="&#x137;" horiz-adv-x="1034" 
d="M174 0v1434h113v-940l508 530h139l-377 -395l416 -629l-135 2l-361 537l-190 -199v-340h-113zM440 -502v78q40 2 63 32t19 75h-88v174h166v-174q1 -84 -44.5 -134.5t-115.5 -50.5z" />
    <glyph glyph-name="Lacute" unicode="&#x139;" horiz-adv-x="1042" 
d="M317 1554h-120l215 240h141zM195 0v1434h116v-1325h660v-109h-776z" />
    <glyph glyph-name="lacute" unicode="&#x13a;" horiz-adv-x="460" 
d="M285 1554h-121l215 240h141zM174 0v1434h113v-1434h-113z" />
    <glyph glyph-name="uni013B" unicode="&#x13b;" horiz-adv-x="1042" 
d="M195 0v1434h116v-1325h660v-109h-776zM444 -502v78q40 2 63 32t19 75h-88v174h166v-174q1 -84 -44.5 -134.5t-115.5 -50.5z" />
    <glyph glyph-name="uni013C" unicode="&#x13c;" horiz-adv-x="460" 
d="M174 0v1434h113v-1434h-113zM154 -502v78q40 2 63 32t19 75h-89v174h166v-174q1 -84 -44.5 -134.5t-114.5 -50.5z" />
    <glyph glyph-name="Lcaron" unicode="&#x13d;" horiz-adv-x="1042" 
d="M-20 1733h141l137 -138l139 138h138l-205 -205h-146zM195 0v1434h116v-1325h660v-109h-776z" />
    <glyph glyph-name="lcaron" unicode="&#x13e;" horiz-adv-x="460" 
d="M-53 1733h141l137 -138l140 138h137l-205 -205h-145zM174 0v1434h113v-1434h-113z" />
    <glyph glyph-name="Ldot" unicode="&#x13f;" horiz-adv-x="1042" 
d="M164 1587v174h166v-174h-166zM195 0v1434h116v-1325h660v-109h-776z" />
    <glyph glyph-name="ldot" unicode="&#x140;" horiz-adv-x="489" 
d="M150 1534v174h165v-174h-165zM174 0v1434h113v-1434h-113z" />
    <glyph glyph-name="Lslash" unicode="&#x141;" horiz-adv-x="1099" 
d="M311 109h660v-109h-776v653l-193 -96v111l193 96v670h116v-611l353 178v-110l-353 -178v-604z" />
    <glyph glyph-name="lslash" unicode="&#x142;" horiz-adv-x="559" 
d="M455 967v-103l-168 -76v-788h-113v737l-147 -67v102l147 68v594h113v-543z" />
    <glyph glyph-name="Nacute" unicode="&#x143;" horiz-adv-x="1464" 
d="M786 1554h-120l215 240h141zM1137 -2l-830 1264v-1262h-112v1434h133l829 -1264v1262h113v-1434h-133z" />
    <glyph glyph-name="nacute" unicode="&#x144;" 
d="M631 1145h-121l215 239h141zM174 0v1024h113v-147q42 75 130 124.5t197 49.5q174 0 275.5 -116.5t101.5 -305.5v-629h-112v629q0 143 -76 232t-197 89q-137 0 -227.5 -103t-91.5 -272v-575h-113z" />
    <glyph glyph-name="uni0145" unicode="&#x145;" horiz-adv-x="1464" 
d="M1137 -2l-830 1264v-1262h-112v1434h133l829 -1264v1262h113v-1434h-133zM655 -502v78q40 2 63 32t19 75h-88v174h166v-174q1 -84 -44.5 -134.5t-115.5 -50.5z" />
    <glyph glyph-name="uni0146" unicode="&#x146;" 
d="M174 0v1024h113v-147q42 75 130 124.5t197 49.5q174 0 275.5 -116.5t101.5 -305.5v-629h-112v629q0 143 -76 232t-197 89q-137 0 -227.5 -103t-91.5 -272v-575h-113zM500 -502v78q40 2 63 32t19 75h-88v174h165v-174q1 -84 -44.5 -134.5t-114.5 -50.5z" />
    <glyph glyph-name="Ncaron" unicode="&#x147;" horiz-adv-x="1464" 
d="M449 1733h141l137 -138l139 138h138l-205 -205h-146zM1137 -2l-830 1264v-1262h-112v1434h133l829 -1264v1262h113v-1434h-133z" />
    <glyph glyph-name="ncaron" unicode="&#x148;" 
d="M293 1323h141l137 -137l140 137h137l-205 -205h-145zM174 0v1024h113v-147q42 75 130 124.5t197 49.5q174 0 275.5 -116.5t101.5 -305.5v-629h-112v629q0 143 -76 232t-197 89q-137 0 -227.5 -103t-91.5 -272v-575h-113z" />
    <glyph glyph-name="Eng" unicode="&#x14a;" horiz-adv-x="1464" 
d="M1157 1432h113v-1434q-1 -165 -76.5 -251.5t-206.5 -86.5v113q58 0 107 49.5t49 124.5q0 24 -6 51l-830 1264v-1262h-112v1434h133l829 -1264v1262z" />
    <glyph glyph-name="eng" unicode="&#x14b;" 
d="M614 1051q174 0 275.5 -116.5t101.5 -305.5v-629q-1 -182 -69.5 -261t-212.5 -79v111q93 0 133.5 52.5t36.5 176.5v629q0 143 -76 232t-197 89q-137 0 -227.5 -103t-91.5 -272v-575h-113v1024h113v-147q42 75 130 124.5t197 49.5z" />
    <glyph glyph-name="Omacron" unicode="&#x14c;" horiz-adv-x="1564" 
d="M471 1589v94h635v-94h-635zM782 -20q-187 0 -339 100t-236 268.5t-84 368.5q0 206 82 373t233 263.5t344 96.5t344.5 -97.5t233.5 -265t82 -374.5q0 -149 -50 -284t-136 -234t-209.5 -157t-264.5 -58zM778 94q159 0 286 82t196 221.5t69 307.5q0 177 -67.5 321
t-193 227.5t-286.5 83.5q-160 0 -284.5 -83.5t-191 -226t-66.5 -318.5q0 -169 67.5 -309.5t191.5 -223t279 -82.5z" />
    <glyph glyph-name="omacron" unicode="&#x14d;" horiz-adv-x="1153" 
d="M266 1180v94h635v-94h-635zM578 -10q-209 0 -342.5 146.5t-133.5 375.5q0 232 133.5 379t342.5 147q219 0 346 -145t127 -381q0 -229 -133 -375.5t-340 -146.5zM573 96q161 0 264 115.5t103 296.5q0 191 -95.5 307.5t-266.5 116.5q-158 0 -259.5 -118t-101.5 -302
q0 -183 99.5 -299.5t256.5 -116.5z" />
    <glyph glyph-name="Obreve" unicode="&#x14e;" horiz-adv-x="1564" 
d="M782 1546q-143 0 -236 84.5t-93 220.5h88q0 -95 63 -159t178 -64q116 0 181 64.5t65 158.5h86q0 -136 -94 -220.5t-238 -84.5zM782 -20q-187 0 -339 100t-236 268.5t-84 368.5q0 206 82 373t233 263.5t344 96.5t344.5 -97.5t233.5 -265t82 -374.5q0 -149 -50 -284
t-136 -234t-209.5 -157t-264.5 -58zM778 94q159 0 286 82t196 221.5t69 307.5q0 177 -67.5 321t-193 227.5t-286.5 83.5q-160 0 -284.5 -83.5t-191 -226t-66.5 -318.5q0 -169 67.5 -309.5t191.5 -223t279 -82.5z" />
    <glyph glyph-name="obreve" unicode="&#x14f;" horiz-adv-x="1153" 
d="M578 1137q-143 0 -236.5 84.5t-93.5 220.5h88q0 -95 63.5 -159t178.5 -64q116 0 180.5 64t64.5 159h86q0 -136 -93.5 -220.5t-237.5 -84.5zM578 -10q-209 0 -342.5 146.5t-133.5 375.5q0 232 133.5 379t342.5 147q219 0 346 -145t127 -381q0 -229 -133 -375.5
t-340 -146.5zM573 96q161 0 264 115.5t103 296.5q0 191 -95.5 307.5t-266.5 116.5q-158 0 -259.5 -118t-101.5 -302q0 -183 99.5 -299.5t256.5 -116.5z" />
    <glyph glyph-name="Ohungarumlaut" unicode="&#x150;" horiz-adv-x="1564" 
d="M537 1561v174h165v-174h-165zM848 1561v174h166v-174h-166zM782 -20q-187 0 -339 100t-236 268.5t-84 368.5q0 206 82 373t233 263.5t344 96.5t344.5 -97.5t233.5 -265t82 -374.5q0 -149 -50 -284t-136 -234t-209.5 -157t-264.5 -58zM778 94q159 0 286 82t196 221.5
t69 307.5q0 177 -67.5 321t-193 227.5t-286.5 83.5q-160 0 -284.5 -83.5t-191 -226t-66.5 -318.5q0 -169 67.5 -309.5t191.5 -223t279 -82.5z" />
    <glyph glyph-name="ohungarumlaut" unicode="&#x151;" horiz-adv-x="1153" 
d="M332 1151v174h166v-174h-166zM643 1151v174h166v-174h-166zM578 -10q-209 0 -342.5 146.5t-133.5 375.5q0 232 133.5 379t342.5 147q219 0 346 -145t127 -381q0 -229 -133 -375.5t-340 -146.5zM573 96q161 0 264 115.5t103 296.5q0 191 -95.5 307.5t-266.5 116.5
q-158 0 -259.5 -118t-101.5 -302q0 -183 99.5 -299.5t256.5 -116.5z" />
    <glyph glyph-name="OE" unicode="&#x152;" horiz-adv-x="2324" 
d="M2222 1325h-762v-545h719v-108h-719v-563h762v-109h-879v319q-87 -157 -233.5 -248t-327.5 -91q-187 0 -339 100t-236 268.5t-84 368.5q0 206 82 373t233 263.5t344 96.5q184 0 330 -89t231 -245v318h879v-109zM778 94q159 0 286 82t196 221.5t69 307.5q0 177 -67.5 321
t-193 227.5t-286.5 83.5q-160 0 -284.5 -83.5t-191 -226t-66.5 -318.5q0 -169 67.5 -309.5t191.5 -223t279 -82.5z" />
    <glyph glyph-name="oe" unicode="&#x153;" horiz-adv-x="1974" 
d="M1432 86q116 0 203.5 69t111.5 175h108q-20 -153 -140.5 -253t-289.5 -100q-148 0 -258 77.5t-163 215.5q-58 -131 -169.5 -205.5t-256.5 -74.5q-209 0 -342.5 146.5t-133.5 375.5q0 232 133.5 379t342.5 147q154 0 264.5 -73.5t163.5 -204.5q51 131 157 203.5t264 72.5
q217 0 330 -147.5t115 -396.5h-789v-3q0 -184 93.5 -293.5t255.5 -109.5zM573 96q161 0 264 115.5t103 296.5q0 191 -95.5 307.5t-266.5 116.5q-158 0 -259.5 -118t-101.5 -302q0 -183 99.5 -299.5t256.5 -116.5zM1423 930q-149 0 -231 -89.5t-102 -244.5h657
q-20 159 -95.5 246.5t-228.5 87.5z" />
    <glyph glyph-name="Racute" unicode="&#x154;" horiz-adv-x="1341" 
d="M725 1554h-121l215 240h142zM195 -2v1436l546 2q204 1 312 -98t108 -281q0 -103 -65 -195.5t-164 -122.5q41 -13 71.5 -31t50.5 -45.5t32.5 -53t20 -68.5t10.5 -75t7 -89q13 -192 23 -253.5t43 -123.5h-129q-8 18 -13 37t-8.5 35t-6.5 46.5t-4.5 51t-4.5 71t-6 85.5
q-9 135 -12 154q-19 122 -96 166q-59 34 -158 34h-445v-682h-112zM307 784h434q135 0 224.5 78.5t89.5 194.5q0 131 -80.5 202.5t-233.5 71.5h-432z" />
    <glyph glyph-name="racute" unicode="&#x155;" horiz-adv-x="692" 
d="M399 1145h-120l215 239h141zM174 0v1024h113v-147q11 27 33 54t61 55.5t104 44t146 9.5v-110q-160 6 -252 -70.5t-92 -251.5v-608h-113z" />
    <glyph glyph-name="uni0156" unicode="&#x156;" horiz-adv-x="1341" 
d="M195 -2v1436l546 2q204 1 312 -98t108 -281q0 -103 -65 -195.5t-164 -122.5q41 -13 71.5 -31t50.5 -45.5t32.5 -53t20 -68.5t10.5 -75t7 -89q13 -192 23 -253.5t43 -123.5h-129q-8 18 -13 37t-8.5 35t-6.5 46.5t-4.5 51t-4.5 71t-6 85.5q-9 135 -12 154q-19 122 -96 166
q-59 34 -158 34h-445v-682h-112zM307 784h434q135 0 224.5 78.5t89.5 194.5q0 131 -80.5 202.5t-233.5 71.5h-432zM594 -502v78q40 2 63 32t19 75h-88v174h166v-174q1 -84 -44.5 -134.5t-115.5 -50.5z" />
    <glyph glyph-name="uni0157" unicode="&#x157;" horiz-adv-x="692" 
d="M174 0v1024h113v-147q11 27 33 54t61 55.5t104 44t146 9.5v-110q-160 6 -252 -70.5t-92 -251.5v-608h-113zM154 -502v78q40 2 63 32t19 75h-89v174h166v-174q1 -84 -44.5 -134.5t-114.5 -50.5z" />
    <glyph glyph-name="Rcaron" unicode="&#x158;" horiz-adv-x="1341" 
d="M387 1733h141l138 -138l139 138h137l-205 -205h-145zM195 -2v1436l546 2q204 1 312 -98t108 -281q0 -103 -65 -195.5t-164 -122.5q41 -13 71.5 -31t50.5 -45.5t32.5 -53t20 -68.5t10.5 -75t7 -89q13 -192 23 -253.5t43 -123.5h-129q-8 18 -13 37t-8.5 35t-6.5 46.5
t-4.5 51t-4.5 71t-6 85.5q-9 135 -12 154q-19 122 -96 166q-59 34 -158 34h-445v-682h-112zM307 784h434q135 0 224.5 78.5t89.5 194.5q0 131 -80.5 202.5t-233.5 71.5h-432z" />
    <glyph glyph-name="rcaron" unicode="&#x159;" horiz-adv-x="692" 
d="M61 1323h142l137 -137l139 137h137l-204 -205h-146zM174 0v1024h113v-147q11 27 33 54t61 55.5t104 44t146 9.5v-110q-160 6 -252 -70.5t-92 -251.5v-608h-113z" />
    <glyph glyph-name="Sacute" unicode="&#x15a;" horiz-adv-x="1302" 
d="M705 1554h-121l215 240h141zM680 -14q-86 0 -166 17.5t-150 54.5t-123.5 90.5t-87 128.5t-40.5 165h131q19 -164 139.5 -256t316.5 -92q174 0 271.5 78.5t97.5 218.5q0 120 -86 183.5t-297 101.5q-286 51 -410 143t-124 254q0 157 133.5 265t326.5 108q253 0 400 -121.5
t147 -333.5h-119q-12 170 -118 258t-299 88q-149 0 -250 -76t-101 -188q0 -50 20.5 -90.5t55.5 -69.5t88.5 -52t111 -38.5t130.5 -27.5q288 -51 400 -140.5t112 -267.5q0 -181 -140 -291t-370 -110z" />
    <glyph glyph-name="sacute" unicode="&#x15b;" horiz-adv-x="980" 
d="M545 1145h-121l215 239h141zM512 -23q-169 0 -290 92.5t-130 258.5h119q9 -121 95.5 -184.5t219.5 -63.5q69 0 120 17.5t78 47.5t39.5 63.5t12.5 72.5q0 83 -60.5 123t-199.5 65q-203 35 -298 103.5t-95 193.5q0 117 99.5 196.5t242.5 79.5q178 0 291 -89.5t110 -258.5
h-110q-3 124 -76 186t-209 62q-101 0 -169.5 -50.5t-68.5 -125.5q0 -80 72 -122.5t207 -65.5q204 -35 290.5 -101t86.5 -201q0 -126 -98.5 -212.5t-278.5 -86.5z" />
    <glyph glyph-name="Scircumflex" unicode="&#x15c;" horiz-adv-x="1302" 
d="M578 1745h145l205 -205h-137l-140 137l-137 -137h-141zM680 -14q-86 0 -166 17.5t-150 54.5t-123.5 90.5t-87 128.5t-40.5 165h131q19 -164 139.5 -256t316.5 -92q174 0 271.5 78.5t97.5 218.5q0 120 -86 183.5t-297 101.5q-286 51 -410 143t-124 254q0 157 133.5 265
t326.5 108q253 0 400 -121.5t147 -333.5h-119q-12 170 -118 258t-299 88q-149 0 -250 -76t-101 -188q0 -50 20.5 -90.5t55.5 -69.5t88.5 -52t111 -38.5t130.5 -27.5q288 -51 400 -140.5t112 -267.5q0 -181 -140 -291t-370 -110z" />
    <glyph glyph-name="scircumflex" unicode="&#x15d;" horiz-adv-x="980" 
d="M418 1335h145l205 -205h-137l-139 138l-138 -138h-141zM512 -23q-169 0 -290 92.5t-130 258.5h119q9 -121 95.5 -184.5t219.5 -63.5q69 0 120 17.5t78 47.5t39.5 63.5t12.5 72.5q0 83 -60.5 123t-199.5 65q-203 35 -298 103.5t-95 193.5q0 117 99.5 196.5t242.5 79.5
q178 0 291 -89.5t110 -258.5h-110q-3 124 -76 186t-209 62q-101 0 -169.5 -50.5t-68.5 -125.5q0 -80 72 -122.5t207 -65.5q204 -35 290.5 -101t86.5 -201q0 -126 -98.5 -212.5t-278.5 -86.5z" />
    <glyph glyph-name="Scedilla" unicode="&#x15e;" horiz-adv-x="1302" 
d="M680 -14h-23l-32 -72q30 6 57 6q89 0 147 -53t58 -137q0 -86 -59.5 -145.5t-145.5 -59.5q-66 0 -133.5 35t-99.5 86l65 32q26 -34 74.5 -56.5t93.5 -22.5q55 0 92 37.5t37 93.5q0 57 -36.5 90t-96.5 33q-33 0 -86 -17l-64 45l54 111q-93 12 -173.5 45.5t-144.5 88.5
t-104 136t-47 180h131q19 -164 139.5 -256t316.5 -92q174 0 271.5 78.5t97.5 218.5q0 120 -86 183.5t-297 101.5q-286 51 -410 143t-124 254q0 157 133.5 265t326.5 108q253 0 400 -121.5t147 -333.5h-119q-12 170 -118 258t-299 88q-149 0 -250 -76t-101 -188
q0 -50 20.5 -90.5t55.5 -69.5t88.5 -52t111 -38.5t130.5 -27.5q288 -51 400 -140.5t112 -267.5q0 -181 -140 -291t-370 -110z" />
    <glyph glyph-name="scedilla" unicode="&#x15f;" horiz-adv-x="980" 
d="M512 -23h-14l-33 -73q30 6 57 6q89 0 147 -53.5t58 -137.5q0 -86 -59.5 -145t-145.5 -59q-66 0 -133.5 34.5t-99.5 85.5l65 33q26 -34 75 -57t93 -23q55 0 92 37.5t37 93.5q0 57 -36.5 90t-96.5 33q-36 0 -86 -16l-63 45l55 113q-139 23 -232 111.5t-100 232.5h119
q9 -121 95.5 -184.5t219.5 -63.5q69 0 120 17.5t78 47.5t39.5 63.5t12.5 72.5q0 83 -60.5 123t-199.5 65q-203 35 -298 103.5t-95 193.5q0 117 99.5 196.5t242.5 79.5q178 0 291 -89.5t110 -258.5h-110q-3 124 -76 186t-209 62q-101 0 -169.5 -50.5t-68.5 -125.5
q0 -80 72 -122.5t207 -65.5q204 -35 290.5 -101t86.5 -201q0 -126 -98.5 -212.5t-278.5 -86.5z" />
    <glyph glyph-name="Scaron" unicode="&#x160;" horiz-adv-x="1302" 
d="M367 1733h141l137 -138l139 138h138l-205 -205h-146zM680 -14q-86 0 -166 17.5t-150 54.5t-123.5 90.5t-87 128.5t-40.5 165h131q19 -164 139.5 -256t316.5 -92q174 0 271.5 78.5t97.5 218.5q0 120 -86 183.5t-297 101.5q-286 51 -410 143t-124 254q0 157 133.5 265
t326.5 108q253 0 400 -121.5t147 -333.5h-119q-12 170 -118 258t-299 88q-149 0 -250 -76t-101 -188q0 -50 20.5 -90.5t55.5 -69.5t88.5 -52t111 -38.5t130.5 -27.5q288 -51 400 -140.5t112 -267.5q0 -181 -140 -291t-370 -110z" />
    <glyph glyph-name="scaron" unicode="&#x161;" horiz-adv-x="980" 
d="M207 1323h141l137 -137l140 137h137l-205 -205h-145zM512 -23q-169 0 -290 92.5t-130 258.5h119q9 -121 95.5 -184.5t219.5 -63.5q69 0 120 17.5t78 47.5t39.5 63.5t12.5 72.5q0 83 -60.5 123t-199.5 65q-203 35 -298 103.5t-95 193.5q0 117 99.5 196.5t242.5 79.5
q178 0 291 -89.5t110 -258.5h-110q-3 124 -76 186t-209 62q-101 0 -169.5 -50.5t-68.5 -125.5q0 -80 72 -122.5t207 -65.5q204 -35 290.5 -101t86.5 -201q0 -126 -98.5 -212.5t-278.5 -86.5z" />
    <glyph glyph-name="uni0162" unicode="&#x162;" horiz-adv-x="1249" 
d="M684 1325v-1288q12 2 37 2q89 0 147 -53.5t58 -137.5q0 -86 -59.5 -145t-145.5 -59q-66 0 -134 34.5t-100 85.5l66 33q26 -34 75 -57t93 -23q55 0 92 37.5t37 93.5q0 57 -36.5 90t-96.5 33q-36 0 -86 -16l-64 45v1325h-526v109h1167v-109h-524z" />
    <glyph glyph-name="uni0163" unicode="&#x163;" horiz-adv-x="622" 
d="M356 -53q89 0 147 -53.5t58 -137.5q0 -86 -59.5 -145.5t-145.5 -59.5q-66 0 -133.5 35t-99.5 86l65 33q26 -34 75 -57t93 -23q55 0 92 37.5t37 93.5q0 57 -36.5 90t-96.5 33q-36 0 -86 -16l-63 45l65 135q-94 65 -94 215v662h-154v104h154v283h113v-283h237v-104h-237
v-662q0 -72 35.5 -109.5t93.5 -37.5h112v-111h-112q-46 0 -84 12l-33 -71q30 6 57 6z" />
    <glyph glyph-name="Tcaron" unicode="&#x164;" horiz-adv-x="1249" 
d="M340 1733h141l137 -138l140 138h137l-205 -205h-145zM567 0v1325h-526v109h1167v-109h-524v-1325h-117z" />
    <glyph glyph-name="tcaron" unicode="&#x165;" horiz-adv-x="589" 
d="M-49 1606h141l137 -138l140 138h137l-205 -205h-145zM416 0q-112 0 -177 67.5t-65 190.5v662h-154v104h154v283h113v-283h237v-104h-237v-662q0 -72 35.5 -109.5t93.5 -37.5h112v-111h-112z" />
    <glyph glyph-name="Tbar" unicode="&#x166;" horiz-adv-x="1249" 
d="M313 1589v94h635v-94h-635zM567 0v1325h-526v109h1167v-109h-524v-1325h-117z" />
    <glyph glyph-name="tbar" unicode="&#x167;" horiz-adv-x="589" 
d="M528 717h-241v-459q0 -72 35.5 -109.5t93.5 -37.5h112v-111h-112q-112 0 -177 67.5t-65 190.5v459h-151v94h151v109h-154v104h154v283h113v-283h237v-104h-237v-109h241v-94z" />
    <glyph glyph-name="Utilde" unicode="&#x168;" horiz-adv-x="1413" 
d="M854 1532q-117 0 -184 108q-42 68 -107 68q-46 0 -74 -35t-28 -92q0 -21 2 -31h-90q-2 10 -2 33q0 94 52.5 153.5t135.5 59.5q116 0 184 -108q42 -68 109 -68q46 0 74 35.5t28 93.5q0 4 -1 13.5t-1 13.5h88q2 -12 2 -37q0 -91 -52 -149t-136 -58zM707 -16
q-242 0 -387.5 143t-145.5 391v916h115v-916q0 -197 114 -310.5t304 -113.5t303.5 113.5t113.5 310.5v916h115v-916q0 -248 -145 -391t-387 -143z" />
    <glyph glyph-name="utilde" unicode="&#x169;" 
d="M725 1122q-117 0 -184 109q-41 67 -107 67q-46 0 -74 -35t-28 -92q0 -20 2 -30h-90q-2 10 -2 33q0 94 52.5 153t135.5 59q116 0 184 -108q42 -68 109 -68q46 0 74 35.5t28 93.5q0 4 -1 13.5t-1 13.5h88q2 -12 2 -37q0 -91 -52 -149t-136 -58zM541 -27
q-174 0 -275.5 116.5t-101.5 305.5v629h112v-629q2 -132 78 -226.5t195 -94.5q149 0 233 100.5t86 274.5v575h113v-1024h-113v147q-42 -75 -130 -124.5t-197 -49.5z" />
    <glyph glyph-name="Umacron" unicode="&#x16a;" horiz-adv-x="1413" 
d="M395 1589v94h635v-94h-635zM707 -16q-242 0 -387.5 143t-145.5 391v916h115v-916q0 -197 114 -310.5t304 -113.5t303.5 113.5t113.5 310.5v916h115v-916q0 -248 -145 -391t-387 -143z" />
    <glyph glyph-name="umacron" unicode="&#x16b;" 
d="M266 1180v94h635v-94h-635zM541 -27q-174 0 -275.5 116.5t-101.5 305.5v629h112v-629q2 -132 78 -226.5t195 -94.5q149 0 233 100.5t86 274.5v575h113v-1024h-113v147q-42 -75 -130 -124.5t-197 -49.5z" />
    <glyph glyph-name="Ubreve" unicode="&#x16c;" horiz-adv-x="1413" 
d="M707 1546q-143 0 -236.5 84.5t-93.5 220.5h88q0 -95 63.5 -159t178.5 -64q116 0 180.5 64t64.5 159h86q0 -136 -93.5 -220.5t-237.5 -84.5zM707 -16q-242 0 -387.5 143t-145.5 391v916h115v-916q0 -197 114 -310.5t304 -113.5t303.5 113.5t113.5 310.5v916h115v-916
q0 -248 -145 -391t-387 -143z" />
    <glyph glyph-name="ubreve" unicode="&#x16d;" 
d="M578 1137q-143 0 -236.5 84.5t-93.5 220.5h88q0 -95 63.5 -159t178.5 -64q116 0 180.5 64t64.5 159h86q0 -136 -93.5 -220.5t-237.5 -84.5zM541 -27q-174 0 -275.5 116.5t-101.5 305.5v629h112v-629q2 -132 78 -226.5t195 -94.5q149 0 233 100.5t86 274.5v575h113v-1024
h-113v147q-42 -75 -130 -124.5t-197 -49.5z" />
    <glyph glyph-name="Uring" unicode="&#x16e;" horiz-adv-x="1413" 
d="M707 1526q-83 0 -142 58t-59 138q0 82 59 140.5t142 58.5q80 0 137 -58.5t57 -140.5q0 -80 -57.5 -138t-136.5 -58zM707 1608q47 0 80.5 33.5t33.5 80.5q0 49 -33.5 84t-80.5 35q-49 0 -83 -34.5t-34 -84.5q0 -47 34 -80.5t83 -33.5zM707 -16q-242 0 -387.5 143
t-145.5 391v916h115v-916q0 -197 114 -310.5t304 -113.5t303.5 113.5t113.5 310.5v916h115v-916q0 -248 -145 -391t-387 -143z" />
    <glyph glyph-name="uring" unicode="&#x16f;" 
d="M578 1116q-83 0 -142 58.5t-59 138.5q0 82 59 140t142 58q80 0 137 -58t57 -140q0 -80 -57.5 -138.5t-136.5 -58.5zM578 1198q47 0 80.5 34t33.5 81q0 49 -33.5 84t-80.5 35q-49 0 -83 -34.5t-34 -84.5q0 -48 34 -81.5t83 -33.5zM541 -27q-174 0 -275.5 116.5
t-101.5 305.5v629h112v-629q2 -132 78 -226.5t195 -94.5q149 0 233 100.5t86 274.5v575h113v-1024h-113v147q-42 -75 -130 -124.5t-197 -49.5z" />
    <glyph glyph-name="Uhungarumlaut" unicode="&#x170;" horiz-adv-x="1413" 
d="M461 1561v174h166v-174h-166zM772 1561v174h166v-174h-166zM707 -16q-242 0 -387.5 143t-145.5 391v916h115v-916q0 -197 114 -310.5t304 -113.5t303.5 113.5t113.5 310.5v916h115v-916q0 -248 -145 -391t-387 -143z" />
    <glyph glyph-name="uhungarumlaut" unicode="&#x171;" 
d="M332 1151v174h166v-174h-166zM643 1151v174h166v-174h-166zM541 -27q-174 0 -275.5 116.5t-101.5 305.5v629h112v-629q2 -132 78 -226.5t195 -94.5q149 0 233 100.5t86 274.5v575h113v-1024h-113v147q-42 -75 -130 -124.5t-197 -49.5z" />
    <glyph glyph-name="Uogonek" unicode="&#x172;" horiz-adv-x="1413" 
d="M1124 1434h115v-916q0 -229 -125 -369.5t-338 -160.5q-88 -51 -150.5 -128t-62.5 -163q0 -64 37 -102.5t105 -38.5q118 0 196 88l47 -68q-103 -100 -256 -100q-103 0 -164 57t-61 152q0 158 201 299q-225 12 -359.5 154.5t-134.5 379.5v916h115v-916q0 -197 114 -310.5
t304 -113.5t303.5 113.5t113.5 310.5v916z" />
    <glyph glyph-name="uogonek" unicode="&#x173;" 
d="M1061 -365l47 -67q-103 -100 -256 -100q-103 0 -164 56.5t-61 151.5q0 175 241 328v143q-42 -75 -130 -124.5t-197 -49.5q-174 0 -275.5 116.5t-101.5 305.5v629h112v-629q2 -132 78 -226.5t195 -94.5q149 0 233 100.5t86 274.5v575h113v-1024h-2q-98 -42 -177 -128
t-79 -183q0 -64 36.5 -103t104.5 -39q119 0 197 88z" />
    <glyph glyph-name="Wcircumflex" unicode="&#x174;" horiz-adv-x="1884" 
d="M868 1745h146l205 -205h-138l-139 137l-137 -137h-141zM459 0l-387 1434h110l357 -1280l348 1280h114l351 -1282l346 1282h114l-387 -1434h-153l-328 1227l-332 -1227h-153z" />
    <glyph glyph-name="wcircumflex" unicode="&#x175;" horiz-adv-x="1519" 
d="M686 1335h145l205 -205h-137l-139 138l-137 -138h-142zM362 0l-311 1024h135l254 -915l252 915h135l254 -915l252 915h135l-309 -1024h-158l-239 874l-240 -874h-160z" />
    <glyph glyph-name="Ycircumflex" unicode="&#x176;" horiz-adv-x="1277" 
d="M565 1745h146l204 -205h-137l-139 137l-137 -137h-142zM580 0v598l-519 836h125l453 -736l453 736h125l-519 -836v-598h-118z" />
    <glyph glyph-name="ycircumflex" unicode="&#x177;" horiz-adv-x="1001" 
d="M428 1335h145l205 -205h-137l-139 138l-137 -138h-142zM92 -410v109h58q84 0 133.5 38.5t78.5 108.5l82 213l-403 965h133l328 -815l327 815h132l-480 -1192q-22 -58 -46.5 -98t-62 -74.5t-93 -51.5t-129.5 -18h-58z" />
    <glyph glyph-name="Ydieresis" unicode="&#x178;" horiz-adv-x="1277" 
d="M395 1544v174h166v-174h-166zM707 1544v174h165v-174h-165zM580 0v598l-519 836h125l453 -736l453 736h125l-519 -836v-598h-118z" />
    <glyph glyph-name="Zacute" unicode="&#x179;" horiz-adv-x="1349" 
d="M729 1554h-121l215 240h142zM123 0v109l981 1216h-969v109h1112v-109l-987 -1216h975v-109h-1112z" />
    <glyph glyph-name="zacute" unicode="&#x17a;" horiz-adv-x="1030" 
d="M569 1145h-120l215 239h141zM102 0v104l670 816h-670v106l805 -2v-104l-663 -816h659v-104h-801z" />
    <glyph glyph-name="Zdotaccent" unicode="&#x17b;" horiz-adv-x="1349" 
d="M588 1571v174h166v-174h-166zM123 0v109l981 1216h-969v109h1112v-109l-987 -1216h975v-109h-1112z" />
    <glyph glyph-name="zdotaccent" unicode="&#x17c;" horiz-adv-x="1030" 
d="M428 1161v174h166v-174h-166zM102 0v104l670 816h-670v106l805 -2v-104l-663 -816h659v-104h-801z" />
    <glyph glyph-name="Zcaron" unicode="&#x17d;" horiz-adv-x="1349" 
d="M391 1733h141l138 -138l139 138h137l-205 -205h-145zM123 0v109l981 1216h-969v109h1112v-109l-987 -1216h975v-109h-1112z" />
    <glyph glyph-name="zcaron" unicode="&#x17e;" horiz-adv-x="1030" 
d="M231 1323h142l137 -137l139 137h137l-204 -205h-146zM102 0v104l670 816h-670v106l805 -2v-104l-663 -816h659v-104h-801z" />
    <glyph glyph-name="uni018F" unicode="&#x18f;" horiz-adv-x="1114" 
d="M549 1456q205 0 334 -145t129 -381q0 -238 -124.5 -385.5t-340.5 -147.5q-206 0 -324.5 150.5t-120.5 394.5h789v2q0 184 -93 294t-255 110q-116 0 -204 -69.5t-112 -174.5h-108q20 153 140.5 252.5t289.5 99.5zM885 838h-658q20 -159 95.5 -246.5t228.5 -87.5
q149 0 231.5 90t102.5 244z" />
    <glyph glyph-name="uni0218" unicode="&#x218;" horiz-adv-x="1302" 
d="M680 -14q-86 0 -166 17.5t-150 54.5t-123.5 90.5t-87 128.5t-40.5 165h131q19 -164 139.5 -256t316.5 -92q174 0 271.5 78.5t97.5 218.5q0 120 -86 183.5t-297 101.5q-286 51 -410 143t-124 254q0 157 133.5 265t326.5 108q253 0 400 -121.5t147 -333.5h-119
q-12 170 -118 258t-299 88q-149 0 -250 -76t-101 -188q0 -50 20.5 -90.5t55.5 -69.5t88.5 -52t111 -38.5t130.5 -27.5q288 -51 400 -140.5t112 -267.5q0 -181 -140 -291t-370 -110zM573 -502v78q40 2 63 32t19 75h-88v174h166v-174q1 -84 -44.5 -134.5t-115.5 -50.5z" />
    <glyph glyph-name="uni0219" unicode="&#x219;" horiz-adv-x="980" 
d="M512 -23q-169 0 -290 92.5t-130 258.5h119q9 -121 95.5 -184.5t219.5 -63.5q69 0 120 17.5t78 47.5t39.5 63.5t12.5 72.5q0 83 -60.5 123t-199.5 65q-203 35 -298 103.5t-95 193.5q0 117 99.5 196.5t242.5 79.5q178 0 291 -89.5t110 -258.5h-110q-3 124 -76 186t-209 62
q-101 0 -169.5 -50.5t-68.5 -125.5q0 -80 72 -122.5t207 -65.5q204 -35 290.5 -101t86.5 -201q0 -126 -98.5 -212.5t-278.5 -86.5zM414 -502v78q40 2 63 32t19 75h-88v174h165v-174q1 -84 -44.5 -134.5t-114.5 -50.5z" />
    <glyph glyph-name="uni021A" unicode="&#x21a;" horiz-adv-x="1249" 
d="M567 0v1325h-526v109h1167v-109h-524v-1325h-117zM547 -502v78q40 2 63 32t19 75h-88v174h166v-174q1 -84 -44.5 -134.5t-115.5 -50.5z" />
    <glyph glyph-name="uni021B" unicode="&#x21b;" horiz-adv-x="589" 
d="M416 0q-112 0 -177 67.5t-65 190.5v662h-154v104h154v283h113v-283h237v-104h-237v-662q0 -72 35.5 -109.5t93.5 -37.5h112v-111h-112zM264 -502v78q40 2 63 32t19 75h-88v174h166v-174q1 -84 -44.5 -134.5t-115.5 -50.5z" />
    <glyph glyph-name="uni0232" unicode="&#x232;" horiz-adv-x="1277" 
d="M328 1589v94h635v-94h-635zM580 0v598l-519 836h125l453 -736l453 736h125l-519 -836v-598h-118z" />
    <glyph glyph-name="uni0233" unicode="&#x233;" horiz-adv-x="1001" 
d="M190 1180v94h635v-94h-635zM92 -410v109h58q84 0 133.5 38.5t78.5 108.5l82 213l-403 965h133l328 -815l327 815h132l-480 -1192q-22 -58 -46.5 -98t-62 -74.5t-93 -51.5t-129.5 -18h-58z" />
    <glyph glyph-name="uni0237" unicode="&#x237;" horiz-adv-x="434" 
d="M0 -362v110h39q58 0 93.5 38t35.5 110v1128h113v-1128q0 -123 -65 -190.5t-177 -67.5h-39z" />
    <glyph glyph-name="circumflex" unicode="&#x2c6;" horiz-adv-x="108" 
d="M274 1391h146l205 -205h-138l-139 137l-137 -137h-141z" />
    <glyph glyph-name="caron" unicode="&#x2c7;" horiz-adv-x="108" 
d="M70 1391h141l137 -138l139 138h138l-205 -205h-146z" />
    <glyph glyph-name="breve" unicode="&#x2d8;" horiz-adv-x="108" 
d="M592 1165q-143 0 -236.5 84.5t-93.5 220.5h88q0 -95 63.5 -159t178.5 -64q116 0 181 64.5t65 158.5h86q0 -136 -94 -220.5t-238 -84.5z" />
    <glyph glyph-name="dotaccent" unicode="&#x2d9;" horiz-adv-x="108" 
d="M227 1231v174h166v-174h-166z" />
    <glyph glyph-name="ring" unicode="&#x2da;" horiz-adv-x="108" 
d="M180 1149q-83 0 -141.5 58.5t-58.5 138.5q0 82 58.5 140t141.5 58q80 0 137.5 -58t57.5 -140q0 -80 -58 -138.5t-137 -58.5zM180 1231q47 0 81 34t34 81q0 49 -34 83.5t-81 34.5q-49 0 -83 -34t-34 -84q0 -48 34 -81.5t83 -33.5z" />
    <glyph glyph-name="ogonek" unicode="&#x2db;" horiz-adv-x="108" 
d="M279 -532q-103 0 -164.5 56.5t-61.5 151.5q0 186 277 349l76 -25q-98 -42 -177 -128t-79 -183q0 -64 36.5 -103t104.5 -39q118 0 196 88l48 -67q-103 -100 -256 -100z" />
    <glyph glyph-name="tilde" unicode="&#x2dc;" horiz-adv-x="0" 
d="M-260 1278q-117 0 -184 108q-42 68 -107 68q-46 0 -74 -35t-28 -92q0 -21 2 -31h-90q-2 10 -2 33q0 94 52.5 153.5t135.5 59.5q116 0 184 -108q42 -68 109 -68q46 0 74 35.5t28 93.5q0 4 -1 13.5t-1 13.5h88q2 -12 2 -37q0 -91 -52 -149t-136 -58z" />
    <glyph glyph-name="hungarumlaut" unicode="&#x2dd;" horiz-adv-x="108" 
d="M201 1231v174h166v-174h-166zM512 1231v174h166v-174h-166z" />
    <glyph glyph-name="gravecomb" unicode="&#x300;" horiz-adv-x="0" 
d="M-190 1229l-236 239h141l215 -239h-120z" />
    <glyph glyph-name="acutecomb" unicode="&#x301;" horiz-adv-x="0" 
d="M-305 1229h-121l215 239h141z" />
    <glyph glyph-name="tildecomb" unicode="&#x303;" horiz-adv-x="0" 
d="M-260 1278q-117 0 -184 108q-42 68 -107 68q-46 0 -74 -35t-28 -92q0 -21 2 -31h-90q-2 10 -2 33q0 94 52.5 153.5t135.5 59.5q116 0 184 -108q42 -68 109 -68q46 0 74 35.5t28 93.5q0 4 -1 13.5t-1 13.5h88q2 -12 2 -37q0 -91 -52 -149t-136 -58z" />
    <glyph glyph-name="dotbelowcomb" unicode="&#x323;" horiz-adv-x="0" 
d="M-250 -463v174h166v-174h-166z" />
    <glyph glyph-name="uni0326" unicode="&#x326;" horiz-adv-x="0" 
d="M-700 -502v78q40 2 63 32t19 75h-89v174h166v-174q1 -84 -44.5 -134.5t-114.5 -50.5z" />
    <glyph glyph-name="Wgrave" unicode="&#x1e80;" horiz-adv-x="1884" 
d="M934 1559l-236 239h142l215 -239h-121zM459 0l-387 1434h110l357 -1280l348 1280h114l351 -1282l346 1282h114l-387 -1434h-153l-328 1227l-332 -1227h-153z" />
    <glyph glyph-name="wgrave" unicode="&#x1e81;" horiz-adv-x="1519" 
d="M752 1149l-236 240h141l215 -240h-120zM362 0l-311 1024h135l254 -915l252 915h135l254 -915l252 915h135l-309 -1024h-158l-239 874l-240 -874h-160z" />
    <glyph glyph-name="Wacute" unicode="&#x1e82;" horiz-adv-x="1884" 
d="M995 1554h-121l216 240h141zM459 0l-387 1434h110l357 -1280l348 1280h114l351 -1282l346 1282h114l-387 -1434h-153l-328 1227l-332 -1227h-153z" />
    <glyph glyph-name="wacute" unicode="&#x1e83;" horiz-adv-x="1519" 
d="M813 1145h-121l215 239h142zM362 0l-311 1024h135l254 -915l252 915h135l254 -915l252 915h135l-309 -1024h-158l-239 874l-240 -874h-160z" />
    <glyph glyph-name="Wdieresis" unicode="&#x1e84;" horiz-adv-x="1884" 
d="M698 1544v174h166v-174h-166zM1010 1544v174h166v-174h-166zM459 0l-387 1434h110l357 -1280l348 1280h114l351 -1282l346 1282h114l-387 -1434h-153l-328 1227l-332 -1227h-153z" />
    <glyph glyph-name="wdieresis" unicode="&#x1e85;" horiz-adv-x="1519" 
d="M516 1135v174h166v-174h-166zM827 1135v174h166v-174h-166zM362 0l-311 1024h135l254 -915l252 915h135l254 -915l252 915h135l-309 -1024h-158l-239 874l-240 -874h-160z" />
    <glyph glyph-name="uni1ECA" unicode="&#x1eca;" horiz-adv-x="522" 
d="M205 0v1434h112v-1434h-112zM180 -346v174h166v-174h-166z" />
    <glyph glyph-name="uni1ECB" unicode="&#x1ecb;" horiz-adv-x="464" 
d="M164 0v1024h112v-1024h-112zM135 -412v174h166v-174h-166z" />
    <glyph glyph-name="uni1ECC" unicode="&#x1ecc;" horiz-adv-x="1564" 
d="M782 -20q-187 0 -339 100t-236 268.5t-84 368.5q0 206 82 373t233 263.5t344 96.5t344.5 -97.5t233.5 -265t82 -374.5q0 -149 -50 -284t-136 -234t-209.5 -157t-264.5 -58zM778 94q159 0 286 82t196 221.5t69 307.5q0 177 -67.5 321t-193 227.5t-286.5 83.5
q-160 0 -284.5 -83.5t-191 -226t-66.5 -318.5q0 -169 67.5 -309.5t191.5 -223t279 -82.5zM700 -346v174h166v-174h-166z" />
    <glyph glyph-name="uni1ECD" unicode="&#x1ecd;" horiz-adv-x="1153" 
d="M578 -10q-209 0 -342.5 146.5t-133.5 375.5q0 232 133.5 379t342.5 147q219 0 346 -145t127 -381q0 -229 -133 -375.5t-340 -146.5zM573 96q161 0 264 115.5t103 296.5q0 191 -95.5 307.5t-266.5 116.5q-158 0 -259.5 -118t-101.5 -302q0 -183 99.5 -299.5t256.5 -116.5z
M496 -346v174h166v-174h-166z" />
    <glyph glyph-name="uni1EE4" unicode="&#x1ee4;" horiz-adv-x="1413" 
d="M707 -16q-242 0 -387.5 143t-145.5 391v916h115v-916q0 -197 114 -310.5t304 -113.5t303.5 113.5t113.5 310.5v916h115v-916q0 -248 -145 -391t-387 -143zM625 -346v174h166v-174h-166z" />
    <glyph glyph-name="uni1EE5" unicode="&#x1ee5;" 
d="M541 -27q-174 0 -275.5 116.5t-101.5 305.5v629h112v-629q2 -132 78 -226.5t195 -94.5q149 0 233 100.5t86 274.5v575h113v-1024h-113v147q-42 -75 -130 -124.5t-197 -49.5zM496 -346v174h166v-174h-166z" />
    <glyph glyph-name="Ygrave" unicode="&#x1ef2;" horiz-adv-x="1277" 
d="M631 1559l-236 239h142l215 -239h-121zM580 0v598l-519 836h125l453 -736l453 736h125l-519 -836v-598h-118z" />
    <glyph glyph-name="ygrave" unicode="&#x1ef3;" horiz-adv-x="1001" 
d="M494 1149l-236 240h141l215 -240h-120zM92 -410v109h58q84 0 133.5 38.5t78.5 108.5l82 213l-403 965h133l328 -815l327 815h132l-480 -1192q-22 -58 -46.5 -98t-62 -74.5t-93 -51.5t-129.5 -18h-58z" />
    <glyph glyph-name="endash" unicode="&#x2013;" horiz-adv-x="1406" 
d="M193 483v78h1024v-78h-1024z" />
    <glyph glyph-name="emdash" unicode="&#x2014;" horiz-adv-x="2086" 
d="M20 483v78h2048v-78h-2048z" />
    <glyph glyph-name="quoteleft" unicode="&#x2018;" horiz-adv-x="321" 
d="M98 1260v174q-1 84 44.5 134t115.5 50v-78q-40 -2 -63 -31.5t-19 -74.5h88v-174h-166z" />
    <glyph glyph-name="quoteright" unicode="&#x2019;" horiz-adv-x="204" 
d="M78 1249v78q40 2 63 32t19 75h-88v174h166v-174q1 -84 -44.5 -134.5t-115.5 -50.5z" />
    <glyph glyph-name="quotesinglbase" unicode="&#x201a;" horiz-adv-x="489" 
d="M109 -184v78q40 2 62.5 31t18.5 75h-88v174h166v-174q1 -84 -44 -134t-115 -50z" />
    <glyph glyph-name="quotedblleft" unicode="&#x201c;" horiz-adv-x="438" 
d="M23 1260v174q0 84 45 134t114 50v-78q-40 -2 -63 -31.5t-19 -74.5h88v-174h-165zM264 1260v174q0 84 45.5 134t114.5 50v-78q-40 -2 -63 -31.5t-19 -74.5h88v-174h-166z" />
    <glyph glyph-name="quotedblright" unicode="&#x201d;" horiz-adv-x="481" 
d="M27 1251v78q40 2 63 32t19 75h-89v174h166v-174q1 -84 -44.5 -134.5t-114.5 -50.5zM291 1251v78q40 2 63 32t19 75h-88v174h166v-174q1 -84 -44.5 -134.5t-115.5 -50.5z" />
    <glyph glyph-name="quotedblbase" unicode="&#x201e;" horiz-adv-x="794" 
d="M109 -184v78q40 2 62.5 31t18.5 75h-88v174h166v-174q1 -84 -44 -134t-115 -50zM373 -184v78q40 2 63 31.5t19 74.5h-88v174h165v-174q1 -84 -44 -134t-115 -50z" />
    <glyph glyph-name="bullet" unicode="&#x2022;" horiz-adv-x="1228" 
d="M492 588v262h243v-262h-243z" />
    <glyph glyph-name="ellipsis" unicode="&#x2026;" horiz-adv-x="1415" 
d="M145 0v174h166v-174h-166zM629 0v174h166v-174h-166zM1102 0v174h166v-174h-166z" />
    <glyph glyph-name="perthousand" unicode="&#x2030;" horiz-adv-x="2101" 
d="M391 938q-110 0 -188 90.5t-78 218.5t78 218.5t188 90.5t188 -90.5t78 -218.5t-78 -218.5t-188 -90.5zM141 0l1057 1536h121l-1057 -1536h-121zM391 1044q65 0 112.5 59.5t47.5 143.5t-47.5 143.5t-112.5 59.5t-111.5 -59.5t-46.5 -143.5t46.5 -143.5t111.5 -59.5z
M1092 -20q-110 0 -188.5 91t-78.5 220q0 128 78.5 218.5t188.5 90.5t188 -90.5t78 -218.5q0 -129 -78 -220t-188 -91zM1726 -20q-110 0 -188 91t-78 220q0 128 78 218.5t188 90.5t188.5 -90.5t78.5 -218.5q0 -129 -78.5 -220t-188.5 -91zM1092 88q65 0 111 58.5t46 144.5
q0 84 -46 142.5t-111 58.5q-66 0 -113 -58.5t-47 -142.5q0 -86 47 -144.5t113 -58.5zM1726 88q65 0 111.5 59t46.5 144q0 84 -46.5 142.5t-111.5 58.5q-66 0 -112.5 -58.5t-46.5 -142.5q0 -86 46.5 -144.5t112.5 -58.5z" />
    <glyph glyph-name="guilsinglleft" unicode="&#x2039;" horiz-adv-x="694" 
d="M424 195l-311 376l311 377h119l-312 -377l312 -376h-119z" />
    <glyph glyph-name="guilsinglright" unicode="&#x203a;" horiz-adv-x="694" 
d="M152 195l311 376l-311 377h118l312 -377l-312 -376h-118z" />
    <glyph glyph-name="Euro" unicode="&#x20ac;" horiz-adv-x="1318" 
d="M745 90q169 0 269 89.5t125 260.5h106q-26 -215 -157 -335.5t-343 -120.5q-238 0 -379 155.5t-159 413.5h-141v78h139v200h-139v78h141q12 167 76 294.5t182.5 202.5t277.5 75q208 0 333.5 -112.5t150.5 -311.5h-109q-23 157 -118 239t-257 82q-197 0 -303.5 -123
t-120.5 -346h449v-78h-451v-200h449l2 -78h-449q14 -225 119.5 -344t306.5 -119z" />
    <glyph glyph-name="trademark" unicode="&#x2122;" horiz-adv-x="1624" 
d="M487 967v413h-176v54h406v-54h-174v-413h-56zM782 969v465h62l172 -404l168 404h61v-465h-53v348l-141 -346h-72l-145 354v-356h-52z" />
    <glyph glyph-name="estimated" unicode="&#x212e;" horiz-adv-x="1880" 
d="M938 -18q-178 0 -340 62t-279 167.5t-186.5 250.5t-69.5 304q0 161 69.5 307.5t186.5 252t279 168t340 62.5q239 0 440.5 -105.5t319 -287.5t117.5 -397v-21h-1418q-12 0 -12 -8v-430q0 -24 18 -49q106 -109 245 -171t292 -62q167 0 313.5 69.5t251.5 192.5h125
q-119 -141 -301.5 -223t-390.5 -82zM397 788h1088q8 0 8 15v430q0 34 -20 51q-106 105 -243.5 165t-289.5 60q-151 0 -288.5 -61.5t-245.5 -169.5q-21 -24 -21 -53v-422q0 -15 12 -15z" />
    <glyph glyph-name="minus" unicode="&#x2212;" horiz-adv-x="1488" 
d="M131 541v96h1229v-96h-1229z" />
    <glyph glyph-name="notequal" unicode="&#x2260;" horiz-adv-x="1488" 
d="M1360 688h-424l-248 -289h672v-94h-752l-254 -299h-96l256 299h-383v94h463l248 289h-711v94h791l213 248h96l-215 -248h344v-94z" />
    <glyph glyph-name="lessequal" unicode="&#x2264;" horiz-adv-x="1636" 
d="M1384 176l-1130 545v125l1130 540v-108l-1038 -496l1038 -495v-111zM254 0v84h1130v-84h-1130z" />
    <glyph glyph-name="greaterequal" unicode="&#x2265;" horiz-adv-x="1636" 
d="M254 176v111l1036 495l-1036 496v108l1130 -540v-125zM254 0v86h1130v-86h-1130z" />
    <glyph glyph-name="dslash" horiz-adv-x="1126" 
d="M1116 582v-93h-86v-489h-112v178q-49 -91 -148 -146t-209 -55q-197 0 -325.5 144t-133.5 368h-110v93h114q22 201 145.5 326.5t303.5 125.5q116 0 216 -56.5t147 -148.5v605h112v-852h86zM563 926q-137 0 -227 -94.5t-109 -249.5h693q-22 155 -117.5 249.5t-239.5 94.5z
M563 88q162 0 261.5 112t101.5 289h-703q5 -179 96.5 -290t243.5 -111z" />
    <glyph glyph-name="R.sc" horiz-adv-x="1339" 
d="M229 -2v1436l547 2q189 -1 304.5 -116.5t115.5 -301.5q0 -159 -91 -267.5t-245 -134.5l377 -616h-137l-369 608h-389v-610h-113zM342 715h434q141 0 227.5 83.5t86.5 219.5q0 141 -86.5 227t-227.5 86h-432z" />
    <glyph glyph-name="a.sc" horiz-adv-x="1095" 
d="M539 -23q-200 0 -329.5 150t-129.5 379q0 230 127 379t325 149q116 0 216 -56.5t147 -148.5v195h113v-1024h-113v178q-49 -91 -147.5 -146t-208.5 -55zM541 88q164 0 263 114t99 294q0 189 -99 309.5t-263 120.5q-155 0 -247.5 -117t-92.5 -303q0 -185 92.5 -301.5
t247.5 -116.5z" />
    <glyph glyph-name="l.sc" horiz-adv-x="456" 
d="M307 0q-112 0 -176.5 67.5t-64.5 190.5v1176h112v-1176q0 -72 35.5 -109.5t93.5 -37.5h39v-111h-39z" />
    </font>
</defs>
</svg>
