<?xml version="1.0" standalone="no"?>
<!DOCTYPE svg PUBLIC "-//W3C//DTD SVG 1.1//EN" "http://www.w3.org/Graphics/SVG/1.1/DTD/svg11.dtd" >
<svg xmlns="http://www.w3.org/2000/svg" xmlns:xlink="http://www.w3.org/1999/xlink" version="1.1">
<metadata>
Created by FontForge 20170731 at Tue Jan 31 08:19:34 2023
 By Aleksey,,,
Copyright (c) 2017 by Samuel Oakes. All rights reserved.
</metadata>
<defs>
<font id="MetroSans-Semi-Bold" horiz-adv-x="1165" >
  <font-face 
    font-family="Metro Sans Book"
    font-weight="600"
    font-stretch="normal"
    units-per-em="2048"
    panose-1="0 0 7 0 0 0 0 0 0 0"
    ascent="1638"
    descent="-410"
    x-height="1024"
    cap-height="1434"
    bbox="-1106 -1001 2185 2030"
    underline-thickness="102"
    underline-position="-307"
    unicode-range="U+0020-2265"
  />
<missing-glyph horiz-adv-x="1228" 
 />
    <glyph glyph-name=".notdef" horiz-adv-x="1228" 
 />
    <glyph glyph-name=".null" horiz-adv-x="1228" 
 />
    <glyph glyph-name="nonmarkingreturn" horiz-adv-x="682" 
 />
    <glyph glyph-name="space" unicode=" " horiz-adv-x="573" 
 />
    <glyph glyph-name="exclam" unicode="!" horiz-adv-x="493" 
d="M119 422l-29 1114h219l-28 -1114h-162zM92 0v244h227v-244h-227z" />
    <glyph glyph-name="quotedbl" unicode="&#x22;" horiz-adv-x="774" 
d="M141 1206l-63 183v245h227v-245l-63 -183h-101zM510 1206l-66 183v245h228v-245l-64 -183h-98z" />
    <glyph glyph-name="numbersign" unicode="#" horiz-adv-x="1536" 
d="M365 0l47 334h-265l15 168h272l62 418h-263l17 167h268l49 351h168l-47 -351h334l47 351h168l-47 -351h223l-16 -167h-226l-65 -418h221l-14 -168h-230l-51 -334h-166l47 334h-335l-46 -334h-167zM602 502h334l68 418h-342z" />
    <glyph glyph-name="dollar" unicode="$" horiz-adv-x="1316" 
d="M608 -111v107q-198 27 -333 142.5t-148 307.5h229q25 -126 117 -196t242 -70q135 0 214 68.5t79 163.5q0 93 -66 146t-221 73q-555 66 -555 407q0 162 121.5 278.5t314.5 131.5v106h199v-118q183 -34 291 -150t114 -291h-217q-9 120 -97.5 188t-223.5 68
q-124 0 -198.5 -62.5t-74.5 -144.5q0 -89 83.5 -142t230.5 -73q149 -19 253.5 -56.5t163.5 -93t85 -121t26 -148.5q0 -170 -117.5 -281t-312.5 -135v-105h-199z" />
    <glyph glyph-name="percent" unicode="%" horiz-adv-x="1480" 
d="M109 0l1056 1536h203l-1057 -1536h-202zM408 971q-111 0 -189 80.5t-78 195.5t78.5 196t188.5 81t188 -81t78 -196t-78 -195.5t-188 -80.5zM408 1116q47 0 80.5 37.5t33.5 91.5t-33 90.5t-81 36.5q-47 0 -80 -36.5t-33 -90.5t33 -91.5t80 -37.5zM1081 -4
q-110 0 -188 80.5t-78 195.5t78 196t188 81t188.5 -81t78.5 -196t-78 -195.5t-189 -80.5zM1081 141q47 0 81 37.5t34 91.5t-33.5 90.5t-81.5 36.5q-47 0 -79.5 -36.5t-32.5 -90.5t32.5 -91.5t79.5 -37.5z" />
    <glyph glyph-name="ampersand" unicode="&#x26;" horiz-adv-x="1521" 
d="M584 -27q-194 0 -322.5 113t-128.5 283q0 244 260 405q-42 48 -71.5 88t-60 111t-30.5 137q0 145 107.5 245.5t263.5 100.5q151 0 253.5 -95t102.5 -241q0 -113 -73 -213.5t-193 -163.5l260 -254l76 134l240 2l-160 -285l338 -340h-270l-183 180q-74 -100 -179 -153.5
t-230 -53.5zM563 879q95 48 152 112t57 127q0 68 -48 116t-122 48q-69 0 -120.5 -49.5t-51.5 -112.5q0 -46 19 -88.5t42 -71t72 -81.5zM571 166q163 0 275 158l-324 313q-192 -103 -192 -254q0 -95 72 -156t169 -61z" />
    <glyph glyph-name="quotesingle" unicode="'" horiz-adv-x="253" 
d="M92 1206l-63 183v245h227v-245l-63 -183h-101z" />
    <glyph glyph-name="parenleft" unicode="(" horiz-adv-x="634" 
d="M469 -459q-154 196 -248 472.5t-94 584.5q0 307 92.5 585t249.5 435h176q-167 -188 -257.5 -457t-90.5 -563q0 -291 96.5 -564t245.5 -493h-170z" />
    <glyph glyph-name="parenright" unicode=")" horiz-adv-x="675" 
d="M55 -459q149 220 245.5 493t96.5 564q0 294 -90.5 563t-257.5 457h176q157 -157 249.5 -435t92.5 -585q0 -308 -94 -584.5t-248 -472.5h-170z" />
    <glyph glyph-name="asterisk" unicode="*" horiz-adv-x="653" 
d="M256 1001l-117 70l117 156l-195 -23v135l195 -22l-117 158l117 67l78 -180l80 180l116 -67l-118 -158l196 22v-135l-196 23l118 -156l-116 -70l-80 181z" />
    <glyph glyph-name="plus" unicode="+" horiz-adv-x="1652" 
d="M752 59v449h-408v156h408v446h151v-446h408v-156h-408v-449h-151z" />
    <glyph glyph-name="comma" unicode="," horiz-adv-x="313" 
d="M47 -233v114q110 3 107 119h-117v244h227v-244q0 -118 -57.5 -175.5t-159.5 -57.5z" />
    <glyph glyph-name="hyphen" unicode="-" horiz-adv-x="1099" 
d="M193 588v151h716v-151h-716z" />
    <glyph glyph-name="period" unicode="." horiz-adv-x="358" 
d="M61 0v244h228v-244h-228z" />
    <glyph glyph-name="slash" unicode="/" horiz-adv-x="1179" 
d="M147 -410l902 1946h192l-899 -1946h-195z" />
    <glyph glyph-name="zero" unicode="0" horiz-adv-x="1290" 
d="M643 -18q-166 0 -292.5 92.5t-194.5 257.5t-68 379q0 216 69 383.5t196 260.5t294 93q166 0 293 -93t195.5 -259.5t68.5 -380.5t-69.5 -380.5t-197 -259.5t-294.5 -93zM647 160q162 0 258 151.5t96 397.5q0 251 -98 406t-262 155q-163 0 -256.5 -148.5t-93.5 -398.5
q0 -255 96.5 -409t259.5 -154z" />
    <glyph glyph-name="one" unicode="1" horiz-adv-x="1130" 
d="M1020 0h-881v172h344v1036l-340 -247v192l369 277h162v-1258h346v-172z" />
    <glyph glyph-name="two" unicode="2" horiz-adv-x="1107" 
d="M78 0v199l362 317q17 14 49 42q61 52 89 77t73 66t65.5 64t48 57.5t38.5 60t19.5 57.5t8.5 64q0 117 -74 187.5t-194 70.5t-198.5 -74.5t-92.5 -200.5h-211q10 207 149 335t353 128q203 0 337 -125t134 -313q0 -80 -23.5 -149t-85 -143t-105.5 -117t-147 -134
q-32 -28 -48 -43l-265 -238l689 2v-190h-971z" />
    <glyph glyph-name="three" unicode="3" horiz-adv-x="1128" 
d="M795 745q56 -20 103 -50.5t87 -73.5t61.5 -104.5t20.5 -133.5q-2 -176 -138 -292t-351 -116q-225 0 -367 130t-148 337h209q-2 -123 81.5 -200.5t219.5 -77.5q127 0 205 64.5t78 162.5q0 107 -86.5 171.5t-239.5 64.5h-79v196h71q138 0 219.5 62.5t81.5 167.5
q0 94 -71 151.5t-187 57.5q-126 0 -198 -73.5t-78 -205.5h-209q6 215 138 342t355 127q202 0 331.5 -105t129.5 -268q0 -121 -72 -210t-167 -124z" />
    <glyph glyph-name="four" unicode="4" horiz-adv-x="1167" 
d="M930 0h-201v295h-690v172l661 967h230v-955h198v-188h-198v-291zM729 1165l-481 -686h481v686z" />
    <glyph glyph-name="five" unicode="5" horiz-adv-x="1142" 
d="M608 952q96 0 180.5 -34.5t146 -96t97 -150.5t35.5 -194q0 -212 -142.5 -351.5t-353.5 -139.5q-217 0 -355 127t-138 331h196q4 -130 83.5 -201t213.5 -71q122 0 206 86t87 207q2 128 -80 220.5t-206 92.5q-142 0 -242 -100h-211l121 756h727v-189h-574l-57 -379
q118 86 266 86z" />
    <glyph glyph-name="six" unicode="6" horiz-adv-x="1130" 
d="M586 -2q-241 -2 -384 186.5t-143 528.5q0 127 18 232.5t48.5 179.5t73.5 131t89.5 91.5t100.5 56.5t103 30t100 8q185 -1 312 -110.5t151 -276.5l-191 -2q-18 77 -67 129t-109.5 71t-126.5 13q-295 -24 -307 -459l-2 -49q59 90 153.5 139t204.5 49q124 0 228.5 -56.5
t168.5 -165.5t64 -249q0 -114 -40.5 -206t-108.5 -150.5t-154.5 -89.5t-181.5 -31zM586 178q116 0 193 85t77 206q0 119 -78.5 200t-193.5 81q-117 0 -198 -83t-81 -204q0 -116 81.5 -200.5t199.5 -84.5z" />
    <glyph glyph-name="seven" unicode="7" horiz-adv-x="1120" 
d="M451 0h-211l610 1257h-793v177h1004v-174z" />
    <glyph glyph-name="eight" unicode="8" horiz-adv-x="1124" 
d="M561 -20q-113 0 -206 34t-152.5 91.5t-92 133.5t-32.5 162q0 126 69.5 224.5t184.5 140.5q-98 33 -160.5 119t-62.5 194q0 162 124 265.5t322 103.5q200 0 329.5 -104.5t129.5 -264.5q0 -118 -70.5 -202t-157.5 -111q119 -41 190 -141.5t71 -227.5q0 -84 -33.5 -159.5
t-94 -133t-153.5 -91t-205 -33.5zM559 856q108 0 179 61t71 154q0 84 -71.5 146.5t-180.5 62.5t-177.5 -61t-68.5 -146q0 -95 70 -156t178 -61zM559 156q122 0 200.5 70t78.5 175q0 108 -80.5 181t-200.5 73q-119 0 -194.5 -72t-75.5 -182q0 -107 75 -176t197 -69z" />
    <glyph glyph-name="nine" unicode="9" horiz-adv-x="1130" 
d="M545 1442q241 0 383.5 -188t142.5 -529q0 -127 -18 -232.5t-48 -179t-73 -131t-89.5 -91.5t-101 -56t-103 -29.5t-99.5 -7.5q-184 0 -311.5 109t-151.5 276l190 2q18 -77 67 -129t109.5 -71t126.5 -13q295 28 310 459v49q-58 -90 -153.5 -139t-205.5 -49
q-124 0 -228.5 57t-168.5 166.5t-64 249.5q0 113 41 205t109.5 150t155 89.5t180.5 32.5zM547 1260q-117 0 -195 -84.5t-78 -204.5t78.5 -201.5t194.5 -81.5q117 0 197.5 83.5t80.5 203.5q0 116 -80.5 200.5t-197.5 84.5z" />
    <glyph glyph-name="colon" unicode=":" horiz-adv-x="481" 
d="M70 780v244h227v-244h-227zM72 0v244h227v-244h-227z" />
    <glyph glyph-name="semicolon" unicode=";" horiz-adv-x="604" 
d="M172 780v244h227l2 -244h-229zM182 -233v114q110 3 107 119h-117v244h227v-244q0 -118 -57.5 -175.5t-159.5 -57.5z" />
    <glyph glyph-name="less" unicode="&#x3c;" horiz-adv-x="1513" 
d="M1323 53l-1130 572v125l1130 567v-172l-938 -459l938 -459v-174z" />
    <glyph glyph-name="equal" unicode="=" horiz-adv-x="1488" 
d="M131 655v160h1229v-160h-1229zM131 272v160h1229v-160h-1229z" />
    <glyph glyph-name="greater" unicode="&#x3e;" horiz-adv-x="1513" 
d="M193 53v174l937 459l-937 459v172l1130 -567v-125z" />
    <glyph glyph-name="question" unicode="?" horiz-adv-x="1097" 
d="M399 367v106q0 84 20.5 153.5t53.5 116t72.5 86t79.5 72.5t73 65.5t53.5 75t20.5 91.5q0 106 -80 169.5t-182 63.5q-45 0 -89.5 -14.5t-85.5 -44.5t-67.5 -83t-27.5 -122h-183q-4 185 129.5 308.5t319.5 123.5q98 0 183.5 -33.5t143.5 -89t91.5 -128.5t33.5 -150
q0 -64 -20 -119t-52.5 -95t-71.5 -77t-78 -73.5t-71.5 -74.5t-52.5 -90t-20 -112v-125h-193zM385 0v244h227v-244h-227z" />
    <glyph glyph-name="at" unicode="@" horiz-adv-x="1357" 
d="M688 -43q-182 0 -333.5 79.5t-240.5 223t-89 320.5q0 138 54 264.5t145 218.5t217 146.5t264 54.5q181 0 325.5 -77.5t225.5 -214.5t81 -308q0 -174 -97 -289t-232 -115q-120 0 -174 82q-90 -90 -201 -90q-123 0 -199 81.5t-76 213.5q0 155 92.5 265t221.5 110
q47 0 90.5 -20.5t64.5 -55.5l4 63h179l-33 -291l-12 -110q-5 -46 5 -67t38 -21q63 0 112 67t49 175q0 198 -127 319t-337 121q-215 0 -360.5 -150t-145.5 -370q0 -204 140 -333.5t349 -129.5h537v-162h-537zM647 412q62 0 108 61t46 145q0 69 -29.5 105.5t-83.5 36.5
q-63 0 -106 -61t-43 -152q0 -65 28 -100t80 -35z" />
    <glyph glyph-name="A" unicode="A" horiz-adv-x="1404" 
d="M281 0l-232 2l549 1432h209l549 -1434h-230l-139 365h-571zM475 551h455l-228 633z" />
    <glyph glyph-name="B" unicode="B" horiz-adv-x="1300" 
d="M162 -4v1438h598q171 -2 284 -102.5t113 -268.5q0 -97 -52 -174.5t-130 -114.5q108 -41 177.5 -144.5t68.5 -232.5q-3 -182 -115.5 -291.5t-298.5 -109.5h-645zM360 836h394q80 0 137 58t57 142q0 92 -54.5 153.5t-148.5 61.5h-385v-415zM365 193h401q101 0 166 62
t65 163q0 100 -66 167.5t-165 67.5h-401v-460z" />
    <glyph glyph-name="C" unicode="C" horiz-adv-x="1460" 
d="M754 -10q-138 0 -261 54t-212 148.5t-140.5 229t-50.5 289.5q1 211 87 379t240 263t349 95q127 0 235.5 -39t185.5 -108t127 -161.5t66 -199.5h-229q-26 128 -132 217.5t-259 89.5q-132 0 -234 -72t-155.5 -193.5t-53.5 -272.5q0 -224 120.5 -371.5t314.5 -147.5
q158 0 266 93t133 219h229q-18 -107 -68.5 -199t-128 -162t-188.5 -110.5t-241 -40.5z" />
    <glyph glyph-name="D" unicode="D" horiz-adv-x="1441" 
d="M162 -4v1438l516 4q192 2 346 -87.5t241 -253t87 -370.5q0 -157 -49.5 -292.5t-136 -230.5t-207.5 -149t-261 -55zM356 193l314 4q207 2 342 146.5t135 375.5q0 232 -133 376.5t-336 141.5l-322 -4v-1040z" />
    <glyph glyph-name="E" unicode="E" horiz-adv-x="1159" 
d="M162 0v1434h928v-197h-730v-416h687v-190h-687v-434h730v-197h-928z" />
    <glyph glyph-name="F" unicode="F" horiz-adv-x="1081" 
d="M162 0v1434h911v-191h-713v-430h670v-174h-670v-639h-198z" />
    <glyph glyph-name="G" unicode="G" horiz-adv-x="1540" 
d="M752 -10q-140 0 -263 54t-211 148.5t-138.5 229t-49.5 289.5q1 211 88 379t242 263t350 95q126 0 235 -39t186.5 -108t128 -161.5t66.5 -199.5h-229q-23 127 -131.5 217t-263.5 90q-131 0 -234 -71.5t-158 -194t-55 -272.5q0 -223 124 -372.5t317 -148.5q68 1 133.5 21.5
t125 60.5t103.5 109.5t62 159.5h-418v194l627 -2v-731h-179l-14 223q-69 -114 -188.5 -173.5t-255.5 -59.5z" />
    <glyph glyph-name="H" unicode="H" horiz-adv-x="1452" 
d="M162 0v1434h215v-609h698v609h215v-1434h-215v645h-698v-645h-215z" />
    <glyph glyph-name="I" unicode="I" horiz-adv-x="555" 
d="M172 0v1434h211v-1434h-211z" />
    <glyph glyph-name="J" unicode="J" horiz-adv-x="1064" 
d="M475 -16q-198 0 -321.5 120.5t-124.5 321.5v113h194v-107q1 -116 71 -186t181 -70q107 0 173.5 74.5t66.5 206.5v977h209v-983q0 -143 -61 -250.5t-162 -162t-226 -54.5z" />
    <glyph glyph-name="K" unicode="K" horiz-adv-x="1294" 
d="M162 0v1434h194v-713l650 713h249l-598 -656l619 -778h-260l-500 633l-160 -178v-455h-194z" />
    <glyph glyph-name="L" unicode="L" horiz-adv-x="1054" 
d="M162 0v1434h213v-1231h641v-203h-854z" />
    <glyph glyph-name="M" unicode="M" horiz-adv-x="1728" 
d="M162 0v1434h256l456 -1162l445 1162h248v-1434h-197v1067l-405 -1067h-187l-411 1071v-1071h-205z" />
    <glyph glyph-name="N" unicode="N" horiz-adv-x="1464" 
d="M1038 0l-682 1128v-1128h-194v1434h248l698 -1158v1158h195v-1436z" />
    <glyph glyph-name="O" unicode="O" horiz-adv-x="1531" 
d="M766 -20q-140 0 -265 55.5t-215.5 152.5t-143 234.5t-52.5 294.5t52.5 294t142.5 233t215 151t266 55t266 -55.5t215 -152t142.5 -234t52.5 -295.5q0 -156 -52.5 -293t-143 -233t-215.5 -151.5t-265 -55.5zM764 178q204 0 335.5 150t131.5 379q0 155 -58.5 280
t-165 196.5t-241.5 71.5q-134 0 -239.5 -71t-163.5 -195t-58 -278q0 -230 129.5 -381.5t329.5 -151.5z" />
    <glyph glyph-name="P" unicode="P" horiz-adv-x="1230" 
d="M162 -2v1436l600 2q187 0 303.5 -123.5t116.5 -311.5q0 -186 -119.5 -306t-312.5 -120h-390v-577h-198zM360 752h357q118 0 192 66t74 186q0 121 -74 188.5t-192 67.5h-355z" />
    <glyph glyph-name="Q" unicode="Q" horiz-adv-x="1552" 
d="M1354 -76l-224 166q-159 -106 -368 -106q-139 0 -263 55t-214 151t-142.5 233t-52.5 294t52.5 293.5t142.5 231.5t214 149.5t263 54.5q140 0 264 -55t214 -150.5t142 -232.5t52 -295q0 -306 -170 -504l198 -148zM760 180q107 0 186 49l-176 131l111 136l213 -160
q129 148 129 371q0 234 -131 389t-330 155q-131 0 -235 -70t-162 -193.5t-58 -276.5q0 -230 128 -380.5t325 -150.5z" />
    <glyph glyph-name="R" unicode="R" horiz-adv-x="1329" 
d="M162 -2v1436l604 2q189 0 304.5 -111t115.5 -281q0 -127 -64.5 -222t-154.5 -126q96 -31 138.5 -112t53.5 -224q3 -42 7 -106t6 -87t7.5 -58.5t14.5 -58.5t23 -50h-230q-9 22 -15 42.5t-9.5 54t-5 52.5t-4.5 75.5t-5 84.5q-4 57 -8.5 91.5t-16 75t-30.5 63.5t-49.5 44
t-77 29.5t-109.5 8.5h-292v-623h-203zM365 797h356q117 0 190.5 59t73.5 172q0 117 -71.5 174.5t-192.5 57.5h-356v-463z" />
    <glyph glyph-name="S" unicode="S" horiz-adv-x="1269" 
d="M664 -14q-109 0 -208.5 28.5t-181 83.5t-134 144t-60.5 200h229q25 -126 117.5 -195t241.5 -69q135 0 214 68.5t79 163.5q0 92 -66 144.5t-221 72.5q-555 66 -555 409q0 171 144 290.5t358 119.5q244 0 387 -121.5t151 -333.5h-217q-9 121 -97 188.5t-224 67.5
q-124 0 -198.5 -61.5t-74.5 -143.5q0 -90 83.5 -143.5t230.5 -73.5q149 -19 253.5 -56t163.5 -92t85 -120.5t26 -148.5q0 -191 -146.5 -306.5t-379.5 -115.5z" />
    <glyph glyph-name="T" unicode="T" horiz-adv-x="1218" 
d="M510 0l2 1243h-502l-2 191h1200l2 -191l-499 2l-2 -1245h-199z" />
    <glyph glyph-name="U" unicode="U" horiz-adv-x="1425" 
d="M713 -16q-260 0 -416 153.5t-156 413.5v883h203v-883q0 -179 100 -278t269 -99q167 0 267.5 99.5t100.5 277.5v883h203v-883q0 -260 -155.5 -413.5t-415.5 -153.5z" />
    <glyph glyph-name="V" unicode="V" horiz-adv-x="1325" 
d="M561 0l-532 1434h209l426 -1170l426 1170h206l-532 -1434h-203z" />
    <glyph glyph-name="W" unicode="W" horiz-adv-x="1937" 
d="M463 0l-424 1434h207l319 -1145l309 1145h193l324 -1147l301 1147h206l-409 -1434h-199l-319 1122l-307 -1122h-201z" />
    <glyph glyph-name="X" unicode="X" horiz-adv-x="1402" 
d="M49 0l531 717l-531 717h252l401 -551l400 551h252l-531 -717l531 -717h-252l-400 551l-401 -551h-252z" />
    <glyph glyph-name="Y" unicode="Y" horiz-adv-x="1310" 
d="M555 0v582l-526 852h223l403 -668l420 668h207l-526 -852v-582h-201z" />
    <glyph glyph-name="Z" unicode="Z" horiz-adv-x="1316" 
d="M90 0v201l907 1032h-895v201h1145v-201l-895 -1032h883v-201h-1145z" />
    <glyph glyph-name="bracketleft" unicode="[" horiz-adv-x="552" 
d="M170 -649v2322h383v-151h-219v-2020h219v-151h-383z" />
    <glyph glyph-name="backslash" unicode="\" horiz-adv-x="1179" 
d="M1051 -430l-934 1966h192l936 -1966h-194z" />
    <glyph glyph-name="bracketright" unicode="]" horiz-adv-x="552" 
d="M170 -649v151h219v2020h-219v151h383v-2322h-383z" />
    <glyph glyph-name="underscore" unicode="_" horiz-adv-x="1406" 
d="M193 -160v160h1024v-160h-1024z" />
    <glyph glyph-name="grave" unicode="`" horiz-adv-x="540" 
d="M240 1188l-265 268h252l209 -268h-196z" />
    <glyph glyph-name="a" unicode="a" horiz-adv-x="1056" 
d="M416 -20q-144 0 -245 83.5t-101 225.5q0 145 92 219q98 76 280 92q147 13 199 31q90 31 90 102q0 59 -52 98t-134 39q-103 0 -162.5 -52t-69.5 -126l-207 -2q15 157 132 258t299 101q187 0 293 -98t106 -255v-696h-205v129q-55 -70 -138.5 -109.5t-176.5 -39.5zM446 152
q65 -2 127 21.5t109 82t49 141.5l2 109q-58 -40 -252 -57q-98 -7 -149 -45t-51 -103q0 -64 46 -104t119 -45z" />
    <glyph glyph-name="b" unicode="b" horiz-adv-x="1198" 
d="M662 -23q-119 0 -210 55t-122 118v-150h-189v1434h189v-566q48 72 134 119t204 47q88 0 170 -35.5t147 -100.5t104 -167t39 -225q0 -124 -41 -227t-108 -167.5t-149 -99.5t-168 -35zM629 162q129 0 210 99.5t81 256.5q0 147 -81.5 241.5t-209.5 94.5q-133 0 -216 -99
t-83 -255q0 -149 83 -243.5t216 -94.5z" />
    <glyph glyph-name="c" unicode="c" horiz-adv-x="1075" 
d="M553 -14q-213 0 -348 146.5t-135 379.5q0 235 137 383.5t354 148.5q175 0 299 -101t144 -261h-205q-20 81 -85 136.5t-159 55.5q-120 0 -198 -95.5t-78 -256.5q0 -164 78.5 -262t199.5 -98q97 0 161.5 55.5t80.5 136.5h205q-22 -161 -148 -264.5t-303 -103.5z" />
    <glyph glyph-name="d" unicode="d" horiz-adv-x="1198" 
d="M537 -23q-86 0 -168 35t-149.5 99.5t-108.5 167.5t-41 227q0 123 38.5 225t103 167t147 100.5t171.5 35.5q118 0 204 -47t134 -119v566h189v-1434h-189v150q-34 -63 -123.5 -118t-207.5 -55zM569 162q133 0 216 94.5t83 243.5q0 156 -83 255t-216 99q-128 0 -209 -94.5
t-81 -241.5q0 -157 80.5 -256.5t209.5 -99.5z" />
    <glyph glyph-name="e" unicode="e" horiz-adv-x="1083" 
d="M557 -23q-222 0 -354.5 141.5t-132.5 385.5q0 237 133 384.5t350 147.5q150 0 258.5 -77.5t159 -209.5t41.5 -300h-738v-3q0 -136 77 -216t208 -80q47 0 92.5 14.5t91.5 56t66 105.5h186q-24 -155 -142 -252t-296 -97zM281 623h522q-8 108 -75.5 174.5t-180.5 66.5
t-185.5 -67t-80.5 -174z" />
    <glyph glyph-name="f" unicode="f" horiz-adv-x="624" 
d="M164 0v856h-156v168h156v139q0 121 76 196t196 75h178l2 -177h-135q-69 0 -97 -30.5t-28 -106.5v-96h256v-168h-256v-856h-192z" />
    <glyph glyph-name="g" unicode="g" horiz-adv-x="1206" 
d="M561 -426q-200 0 -324.5 103.5t-132.5 254.5l197 -2q10 -48 36.5 -84.5t57 -55t67.5 -30t60.5 -14t44.5 -2.5q143 0 230.5 86t87.5 262v103q-47 -92 -147 -148.5t-216 -56.5q-139 0 -242 68t-156.5 187t-53.5 273q0 230 129 379.5t329 149.5q110 0 209 -55t148 -146v178
h190v-932q0 -256 -140 -387t-374 -131zM571 170q132 0 215.5 99.5t83.5 254.5q0 148 -83.5 243t-215.5 95q-129 0 -209.5 -99.5t-80.5 -256.5q0 -147 81 -241.5t209 -94.5z" />
    <glyph glyph-name="h" unicode="h" 
d="M141 0v1434h197v-543q39 60 120 110t191 50q51 0 101.5 -12t103 -43t91.5 -77t64 -121t25 -169v-629h-211v608q0 129 -59.5 197.5t-157.5 68.5q-114 0 -191 -94.5t-77 -251.5v-528h-197z" />
    <glyph glyph-name="i" unicode="i" horiz-adv-x="483" 
d="M131 1194v240h221v-240h-221zM139 0v1024h207v-1024h-207z" />
    <glyph glyph-name="j" unicode="j" horiz-adv-x="483" 
d="M141 1194v240h221v-240h-221zM-33 -362v188h45q65 0 104.5 39t39.5 119v1040h196v-1073q0 -146 -85.5 -229.5t-223.5 -83.5h-76z" />
    <glyph glyph-name="k" unicode="k" horiz-adv-x="1046" 
d="M141 0v1434h195v-832l395 422h244l-383 -408l426 -614l-223 -2l-330 477l-129 -137v-340h-195z" />
    <glyph glyph-name="l" unicode="l" horiz-adv-x="489" 
d="M141 0v1434h207v-1434h-207z" />
    <glyph glyph-name="m" unicode="m" horiz-adv-x="1828" 
d="M141 0v1024h197v-133q18 28 41.5 52.5t59 50.5t86 41.5t108.5 15.5q22 0 43.5 -2t63 -13t76.5 -30.5t76 -59t71 -94.5q54 91 142 145t204 54q51 0 102 -12t104 -43t92.5 -77t65 -121t25.5 -169v-629h-211v608q0 131 -59.5 198.5t-157.5 67.5q-110 0 -181 -94t-71 -252
v-528h-211v608q0 131 -59.5 198.5t-157.5 67.5q-110 0 -181 -94t-71 -252v-528h-197z" />
    <glyph glyph-name="n" unicode="n" 
d="M141 0v1024h197v-133q39 60 120 110t191 50q51 0 101.5 -12t103 -43t91.5 -77t64 -121t25 -169v-629h-211v608q0 131 -59.5 198.5t-157.5 67.5q-112 0 -190 -95t-78 -251v-528h-197z" />
    <glyph glyph-name="o" unicode="o" horiz-adv-x="1120" 
d="M561 -10q-211 0 -351 147.5t-140 374.5q0 230 140 378t351 148q212 0 351 -148t139 -378q0 -227 -140.5 -374.5t-349.5 -147.5zM559 174q137 0 217 94t80 242q0 152 -78.5 248t-216.5 96q-134 0 -213.5 -95.5t-79.5 -246.5q0 -148 78.5 -243t212.5 -95z" />
    <glyph glyph-name="p" unicode="p" horiz-adv-x="1198" 
d="M141 -410v1434h189v-150q31 63 122 118t210 55q86 0 168 -35t149 -99.5t108 -167.5t41 -227q0 -123 -39 -225t-104 -167t-147 -100.5t-170 -35.5q-118 0 -204 47t-134 119v-566h-189zM629 170q128 0 209.5 94.5t81.5 241.5q0 157 -81 256.5t-210 99.5q-133 0 -216 -94.5
t-83 -243.5q0 -156 83 -255t216 -99z" />
    <glyph glyph-name="q" unicode="q" horiz-adv-x="1198" 
d="M868 -410v566q-48 -72 -134 -119t-204 -47q-89 0 -171.5 35.5t-147 100.5t-103 167t-38.5 225q0 124 41 227t108.5 167.5t149.5 99.5t168 35q118 0 207.5 -55t123.5 -118v150h189v-1434h-189zM569 170q133 0 216 99t83 255q0 149 -83 243.5t-216 94.5
q-129 0 -209.5 -99.5t-80.5 -256.5q0 -147 81 -241.5t209 -94.5z" />
    <glyph glyph-name="r" unicode="r" horiz-adv-x="679" 
d="M141 0v1024h191v-129q9 17 20.5 32.5t37 38t56 38t79.5 26.5t106 10h37v-202l-27 -2q-309 8 -309 -299v-537h-191z" />
    <glyph glyph-name="s" unicode="s" horiz-adv-x="950" 
d="M496 -23q-180 0 -304 92t-133 259h191q15 -87 81.5 -135t160.5 -48q90 0 142 45.5t52 112.5q0 55 -44.5 90t-158.5 53q-98 14 -170.5 39.5t-114 54.5t-67 67t-33.5 71t-8 72q0 121 104.5 206.5t270.5 85.5q76 0 143.5 -20t124.5 -60t93 -109t42 -159h-184q-6 52 -29 88.5
t-55.5 54.5t-64 25.5t-66.5 7.5q-73 0 -126.5 -32t-53.5 -90q0 -110 194 -136q223 -30 315.5 -105.5t92.5 -203.5q0 -98 -57 -173.5t-146 -114t-192 -38.5z" />
    <glyph glyph-name="t" unicode="t" horiz-adv-x="626" 
d="M420 0q-122 0 -198.5 74.5t-76.5 195.5v586h-157v168h157v319h195v-319h256v-168h-256v-543q0 -77 27.5 -107t97.5 -30h133v-176h-178z" />
    <glyph glyph-name="u" unicode="u" 
d="M516 -27q-51 0 -101.5 12t-103 43t-91.5 77t-64 121t-25 169v629h211v-608q0 -129 59.5 -197.5t157.5 -68.5q114 0 191 94.5t77 251.5v528h197v-1024h-197v133q-39 -60 -120 -110t-191 -50z" />
    <glyph glyph-name="v" unicode="v" horiz-adv-x="1015" 
d="M422 0l-414 1024h211l289 -760l285 760h215l-416 -1024h-170z" />
    <glyph glyph-name="w" unicode="w" horiz-adv-x="1509" 
d="M350 0l-332 1024h213l222 -760l219 760h164l221 -760l217 760h217l-334 -1024h-203l-198 682l-201 -682h-205z" />
    <glyph glyph-name="x" unicode="x" horiz-adv-x="1034" 
d="M29 0l377 512l-377 512h233l258 -356l254 356h232l-375 -512l375 -512h-232l-256 356l-258 -356h-231z" />
    <glyph glyph-name="y" unicode="y" horiz-adv-x="1003" 
d="M78 -410l-2 181h92q129 0 186 145l54 147l-400 961h215l287 -723l270 723h215l-450 -1157q-55 -139 -142 -208t-217 -69h-108z" />
    <glyph glyph-name="z" unicode="z" horiz-adv-x="987" 
d="M70 0v182l587 662h-587v182l827 -2v-180l-586 -662h586v-182h-827z" />
    <glyph glyph-name="braceleft" unicode="{" horiz-adv-x="653" 
d="M496 -635q-88 0 -159 77.5t-71 184.5v486q0 78 -4.5 122.5t-20 86t-46 69t-82.5 53.5v134q52 27 83 55.5t46.5 71.5t19.5 85t4 117v486q0 115 69 187.5t159 72.5h51v-150q-70 0 -96.5 -31.5t-26.5 -99.5v-495q0 -130 -29.5 -217t-120.5 -150q91 -62 120.5 -149.5
t29.5 -217.5v-501q0 -66 28.5 -95.5t94.5 -29.5v-152h-49z" />
    <glyph glyph-name="bar" unicode="|" horiz-adv-x="587" 
d="M215 -307v1843h158v-1843h-158z" />
    <glyph glyph-name="braceright" unicode="}" horiz-adv-x="653" 
d="M113 -635v150q71 0 97 31t26 100v495q0 130 29 217t120 150q-91 62 -120 149t-29 217v502q0 66 -28.5 95.5t-94.5 29.5v152h49q88 0 158.5 -76.5t70.5 -185.5v-486q0 -77 4.5 -121.5t20.5 -86t46.5 -69.5t82.5 -55v-133q-52 -26 -83 -54.5t-46.5 -71t-20 -85.5t-4.5 -118
v-486q0 -114 -69 -187t-158 -73h-51z" />
    <glyph glyph-name="exclamdown" unicode="&#xa1;" horiz-adv-x="583" 
d="M176 877v245h230v-245h-230zM184 -414l29 1114h162l28 -1114h-219z" />
    <glyph glyph-name="cent" unicode="&#xa2;" horiz-adv-x="1097" 
d="M477 0v156q-182 26 -293.5 168t-111.5 352q0 212 111.5 354.5t295.5 171.5v160h166v-160q146 -23 245 -120t116 -236h-205q-20 81 -85 136.5t-159 55.5q-120 0 -198 -95.5t-78 -256.5q0 -164 78.5 -262t199.5 -98q96 0 161 56t81 136h205q-19 -140 -118 -237.5
t-245 -122.5v-158h-166z" />
    <glyph glyph-name="sterling" unicode="&#xa3;" horiz-adv-x="1228" 
d="M1139 287q-4 -72 -33.5 -131t-75.5 -95.5t-101.5 -56.5t-113.5 -20q-59 0 -120.5 21.5t-104.5 47t-96 47t-97 21.5q-50 0 -91 -30.5t-44 -92.5h-172q-5 104 41.5 176.5t140.5 106.5q31 76 33 141q5 103 -31 205h-165v164l133 -3q-54 199 -52 295q5 174 132 291t315 117
q185 0 314.5 -106t144.5 -285h-189q-9 64 -38 110.5t-70 70t-83 33.5t-87 9q-109 0 -186.5 -68.5t-77.5 -177.5q-1 -26 1.5 -53.5t9 -60.5t11.5 -54t15 -62t14 -56h442v-164h-397q26 -140 24 -209q-3 -68 -22 -139q52 -9 169 -65t163 -56q70 0 109 36.5t44 92.5h191z" />
    <glyph glyph-name="yen" unicode="&#xa5;" horiz-adv-x="1357" 
d="M618 0v246h-419v164h419v127h-419v163h364l-473 754h225l404 -661l422 661h207l-474 -754h367v-163h-422v-127h422v-164h-422v-246h-201z" />
    <glyph glyph-name="brokenbar" unicode="&#xa6;" horiz-adv-x="587" 
d="M166 799v737h174v-737h-174zM166 -307v737h174v-737h-174z" />
    <glyph glyph-name="dieresis" unicode="&#xa8;" horiz-adv-x="108" 
d="M137 1214v244h228v-244h-228zM518 1214v244h230v-244h-230z" />
    <glyph glyph-name="copyright" unicode="&#xa9;" horiz-adv-x="1794" 
d="M899 -33q-162 0 -310.5 63.5t-255.5 170.5t-171 255t-64 310t64 310.5t171 255.5t255.5 171t310.5 64t310 -64t255 -171t170.5 -255.5t63.5 -310.5t-63.5 -310t-170.5 -255t-255 -170.5t-310 -63.5zM899 74q143 0 271.5 54.5t221 147t147 220.5t54.5 270t-54.5 270.5
t-147 221.5t-221 147.5t-271.5 54.5q-142 0 -270.5 -54.5t-221.5 -147.5t-147.5 -221.5t-54.5 -270.5t54.5 -270t147.5 -220.5t221.5 -147t270.5 -54.5zM897 285q-188 0 -313.5 136.5t-124.5 338.5q2 211 127 348t319 137q165 0 273.5 -93t134.5 -239h-154q-20 83 -90 141
t-168 58q-129 0 -210 -99t-81 -253q0 -150 79.5 -245t205.5 -95q103 0 174 60t90 141h154q-28 -145 -138 -240.5t-278 -95.5z" />
    <glyph glyph-name="guillemotleft" unicode="&#xab;" horiz-adv-x="1253" 
d="M481 195l-311 376l311 377h185l-312 -377l312 -376h-185zM899 195l-311 376l311 377h186l-311 -377l311 -376h-186z" />
    <glyph glyph-name="uni00AD" unicode="&#xad;" horiz-adv-x="1208" 
d="M193 451v143h716v-143h-716z" />
    <glyph glyph-name="registered" unicode="&#xae;" horiz-adv-x="1794" 
d="M897 -33q-162 0 -310.5 64t-255.5 171t-171 255.5t-64 310.5t64 310.5t171 255.5t255.5 171t310.5 64t310.5 -64t255.5 -171t171 -255.5t64 -310.5t-64 -310.5t-171 -255.5t-255.5 -171t-310.5 -64zM897 76q143 0 271.5 54.5t221 147t147 220.5t54.5 270t-54.5 270
t-147 220.5t-221 147t-271.5 54.5q-142 0 -270 -54.5t-220.5 -147t-147 -220.5t-54.5 -270t54.5 -270t147 -220.5t220.5 -147t270 -54.5zM1110 328q-3 8 -5.5 15.5t-4.5 17t-3.5 16t-2.5 19t-2 19.5t-2 23l-1.5 24t-1.5 29t-2 31q-4 54 -9.5 82.5t-23 57t-52.5 40t-93 11.5
h-176v-385h-133v897l379 2q118 0 192 -70.5t74 -177.5q0 -79 -38.5 -137t-94.5 -80q58 -19 84 -70t31 -137q2 -21 4.5 -56.5t3.5 -48.5t3.5 -35t5.5 -33.5t8 -25.5t12 -28h-152zM731 829h217q72 0 117 35.5t45 104.5q0 71 -44 105t-118 34h-217v-279z" />
    <glyph glyph-name="macron" unicode="&#xaf;" horiz-adv-x="137" 
d="M70 1210v160h635v-160h-635z" />
    <glyph glyph-name="degree" unicode="&#xb0;" horiz-adv-x="1013" 
d="M508 1008q-114 0 -194.5 80.5t-80.5 193.5q0 114 80.5 194t194.5 80q113 0 193.5 -80t80.5 -194q0 -112 -81 -193t-193 -81zM508 1155q57 0 92 35t35 92t-35 92t-92 35t-92 -35t-35 -92t35 -92t92 -35z" />
    <glyph glyph-name="acute" unicode="&#xb4;" horiz-adv-x="540" 
d="M170 1188h-199l209 268h254z" />
    <glyph glyph-name="periodcentered" unicode="&#xb7;" horiz-adv-x="552" 
d="M178 502v246h230v-246h-230z" />
    <glyph glyph-name="cedilla" unicode="&#xb8;" horiz-adv-x="108" 
d="M274 -532q-73 0 -142.5 42.5t-94.5 102.5l117 43q17 -28 52.5 -48t67.5 -20q41 0 69 29.5t28 69.5q0 34 -19 57t-49 29q-49 13 -110 -17l-99 58l99 186h124l-67 -127q38 9 76 2q74 -8 122 -60t48 -128q0 -92 -64.5 -155.5t-157.5 -63.5z" />
    <glyph glyph-name="guillemotright" unicode="&#xbb;" horiz-adv-x="1253" 
d="M168 195l311 376l-311 377h184l312 -377l-312 -376h-184zM586 195l311 376l-311 377h186l311 -377l-311 -376h-186z" />
    <glyph glyph-name="questiondown" unicode="&#xbf;" horiz-adv-x="1097" 
d="M459 881v243h227v-243h-227zM563 -410q-98 0 -183.5 34t-143.5 89.5t-91.5 128.5t-33.5 150q0 64 20 119t52.5 95t71.5 77t78 73.5t71.5 74.5t52.5 90t20 112v125h193v-107q0 -84 -20.5 -153.5t-53.5 -116t-72.5 -85.5t-79.5 -72t-73 -65.5t-53.5 -75t-20.5 -91.5
q0 -106 80 -170t180 -64q35 0 71 9t72 29t63.5 50t45.5 75.5t20 101.5h183q3 -122 -59.5 -222.5t-166 -155.5t-223.5 -55z" />
    <glyph glyph-name="Agrave" unicode="&#xc0;" horiz-adv-x="1404" 
d="M621 1524l-265 268h252l209 -268h-196zM281 0l-232 2l549 1432h209l549 -1434h-230l-139 365h-571zM475 551h455l-228 633z" />
    <glyph glyph-name="Aacute" unicode="&#xc1;" horiz-adv-x="1404" 
d="M778 1522h-198l208 268h252zM281 0l-232 2l549 1432h209l549 -1434h-230l-139 365h-571zM475 551h455l-228 633z" />
    <glyph glyph-name="Acircumflex" unicode="&#xc2;" horiz-adv-x="1404" 
d="M547 1841h276l217 -321h-211l-143 204l-143 -204h-209zM281 0l-232 2l549 1432h209l549 -1434h-230l-139 365h-571zM475 551h455l-228 633z" />
    <glyph glyph-name="Atilde" unicode="&#xc3;" horiz-adv-x="1404" 
d="M840 1520q-122 0 -203 116q-26 45 -66 45q-26 0 -42 -19t-19 -52q0 -32 12 -72h-157q-7 35 -7 59q-4 105 54.5 171.5t152.5 66.5q126 0 203 -117q26 -45 66 -45q34 0 50 30t9 81q-1 4 -4 15t-4 18h155q4 -16 4 -27q17 -117 -40.5 -193.5t-163.5 -76.5zM281 0l-232 2
l549 1432h209l549 -1434h-230l-139 365h-571zM475 551h455l-228 633z" />
    <glyph glyph-name="Adieresis" unicode="&#xc4;" horiz-adv-x="1404" 
d="M393 1548v244h228v-244h-228zM774 1548v244h230v-244h-230zM281 0l-232 2l549 1432h209l549 -1434h-230l-139 365h-571zM475 551h455l-228 633z" />
    <glyph glyph-name="Aring" unicode="&#xc5;" horiz-adv-x="1404" 
d="M702 1518q-79 0 -134.5 56.5t-55.5 133.5q0 78 55.5 134t134.5 56q76 0 131.5 -56t57.5 -134q0 -77 -56.5 -133.5t-132.5 -56.5zM702 1626q37 0 59.5 22t22.5 60t-22.5 62t-59.5 24q-38 0 -61 -24t-23 -62t23 -60t61 -22zM281 0l-232 2l549 1432h209l549 -1434h-230
l-139 365h-571zM475 551h455l-228 633z" />
    <glyph glyph-name="AE" unicode="&#xc6;" horiz-adv-x="1859" 
d="M1790 1237h-729v-416h686v-190h-686v-434h729v-197h-928v367h-459l-139 -367l-215 2l535 1432h1206v-197zM473 567h389v664h-151z" />
    <glyph glyph-name="Ccedilla" unicode="&#xc7;" horiz-adv-x="1460" 
d="M752 190q158 0 266 93t133 219h229q-18 -105 -67 -195.5t-125 -160.5t-184 -111.5t-234 -44.5l-29 -53q38 8 78 2q74 -9 121 -61t47 -128q0 -92 -63.5 -155.5t-155.5 -63.5q-75 0 -144.5 42t-95.5 103l117 43q19 -28 54.5 -47.5t68.5 -19.5q39 0 66.5 29t27.5 69
q0 35 -18 57.5t-49 28.5q-45 12 -111 -16l-98 57l65 121q-246 37 -404 234t-157 479q1 211 87 379t240 263t349 95q127 0 235.5 -39t185.5 -108t127 -161.5t66 -199.5h-229q-26 128 -132 217.5t-259 89.5q-132 0 -234 -72t-155.5 -193.5t-53.5 -272.5q0 -224 120.5 -371.5
t314.5 -147.5z" />
    <glyph glyph-name="Egrave" unicode="&#xc8;" horiz-adv-x="1159" 
d="M549 1524l-264 268h252l208 -268h-196zM162 0v1434h928v-197h-730v-416h687v-190h-687v-434h730v-197h-928z" />
    <glyph glyph-name="Eacute" unicode="&#xc9;" horiz-adv-x="1159" 
d="M709 1522h-199l209 268h252zM162 0v1434h928v-197h-730v-416h687v-190h-687v-434h730v-197h-928z" />
    <glyph glyph-name="Ecircumflex" unicode="&#xca;" horiz-adv-x="1159" 
d="M477 1841h277l217 -321h-211l-144 204l-143 -204h-209zM162 0v1434h928v-197h-730v-416h687v-190h-687v-434h730v-197h-928z" />
    <glyph glyph-name="Edieresis" unicode="&#xcb;" horiz-adv-x="1159" 
d="M324 1548v244h227v-244h-227zM705 1548v244h229v-244h-229zM162 0v1434h928v-197h-730v-416h687v-190h-687v-434h730v-197h-928z" />
    <glyph glyph-name="Igrave" unicode="&#xcc;" horiz-adv-x="555" 
d="M197 1524l-265 268h252l209 -268h-196zM172 0v1434h211v-1434h-211z" />
    <glyph glyph-name="Iacute" unicode="&#xcd;" horiz-adv-x="555" 
d="M354 1522h-198l209 268h251zM172 0v1434h211v-1434h-211z" />
    <glyph glyph-name="Icircumflex" unicode="&#xce;" horiz-adv-x="559" 
d="M123 1839h276l217 -319h-210l-144 202l-143 -202h-209zM172 0v1434h211v-1434h-211z" />
    <glyph glyph-name="Idieresis" unicode="&#xcf;" horiz-adv-x="561" 
d="M-31 1548v244h228v-244h-228zM350 1548v244h230v-244h-230zM172 0v1434h211v-1434h-211z" />
    <glyph glyph-name="Eth" unicode="&#xd0;" horiz-adv-x="1576" 
d="M813 1438q192 2 346 -87.5t241 -253t87 -370.5q0 -210 -84.5 -376t-233 -258t-335.5 -93l-537 -4v641h-135v186h135v611zM805 197q207 2 342 146.5t135 375.5q0 232 -133 376.5t-336 141.5l-321 -4v-410h145v-186h-145v-444z" />
    <glyph glyph-name="Ntilde" unicode="&#xd1;" horiz-adv-x="1464" 
d="M868 1520q-121 0 -202 116q-26 45 -66 45q-26 0 -42 -19t-19 -52q0 -32 12 -72h-158q-6 30 -6 59q-4 105 54.5 171.5t152.5 66.5q126 0 203 -117q26 -45 65 -45q34 0 50.5 30t9.5 81q-1 4 -4.5 15t-4.5 18h156q4 -16 4 -27q17 -117 -41 -193.5t-164 -76.5zM1038 0
l-682 1128v-1128h-194v1434h248l698 -1158v1158h195v-1436z" />
    <glyph glyph-name="Ograve" unicode="&#xd2;" horiz-adv-x="1531" 
d="M684 1524l-264 268h252l209 -268h-197zM766 -20q-140 0 -265 55.5t-215.5 152.5t-143 234.5t-52.5 294.5t52.5 294t142.5 233t215 151t266 55t266 -55.5t215 -152t142.5 -234t52.5 -295.5q0 -156 -52.5 -293t-143 -233t-215.5 -151.5t-265 -55.5zM764 178
q204 0 335.5 150t131.5 379q0 155 -58.5 280t-165 196.5t-241.5 71.5q-134 0 -239.5 -71t-163.5 -195t-58 -278q0 -230 129.5 -381.5t329.5 -151.5z" />
    <glyph glyph-name="Oacute" unicode="&#xd3;" horiz-adv-x="1531" 
d="M842 1522h-199l209 268h252zM766 -20q-140 0 -265 55.5t-215.5 152.5t-143 234.5t-52.5 294.5t52.5 294t142.5 233t215 151t266 55t266 -55.5t215 -152t142.5 -234t52.5 -295.5q0 -156 -52.5 -293t-143 -233t-215.5 -151.5t-265 -55.5zM764 178q204 0 335.5 150
t131.5 379q0 155 -58.5 280t-165 196.5t-241.5 71.5q-134 0 -239.5 -71t-163.5 -195t-58 -278q0 -230 129.5 -381.5t329.5 -151.5z" />
    <glyph glyph-name="Ocircumflex" unicode="&#xd4;" horiz-adv-x="1531" 
d="M610 1841h277l217 -321h-211l-143 204l-144 -204h-209zM766 -20q-140 0 -265 55.5t-215.5 152.5t-143 234.5t-52.5 294.5t52.5 294t142.5 233t215 151t266 55t266 -55.5t215 -152t142.5 -234t52.5 -295.5q0 -156 -52.5 -293t-143 -233t-215.5 -151.5t-265 -55.5zM764 178
q204 0 335.5 150t131.5 379q0 155 -58.5 280t-165 196.5t-241.5 71.5q-134 0 -239.5 -71t-163.5 -195t-58 -278q0 -230 129.5 -381.5t329.5 -151.5z" />
    <glyph glyph-name="Otilde" unicode="&#xd5;" horiz-adv-x="1531" 
d="M901 1520q-122 0 -203 116q-26 45 -65 45q-26 0 -42.5 -19t-19.5 -52q0 -28 13 -72h-158q-6 30 -6 59q-4 105 54.5 171.5t152.5 66.5q125 0 202 -117q26 -45 66 -45q34 0 50 30t9 81q-1 4 -4 15t-4 18h156q4 -16 4 -27q17 -117 -41 -193.5t-164 -76.5zM766 -20
q-140 0 -265 55.5t-215.5 152.5t-143 234.5t-52.5 294.5t52.5 294t142.5 233t215 151t266 55t266 -55.5t215 -152t142.5 -234t52.5 -295.5q0 -156 -52.5 -293t-143 -233t-215.5 -151.5t-265 -55.5zM764 178q204 0 335.5 150t131.5 379q0 155 -58.5 280t-165 196.5
t-241.5 71.5q-134 0 -239.5 -71t-163.5 -195t-58 -278q0 -230 129.5 -381.5t329.5 -151.5z" />
    <glyph glyph-name="Odieresis" unicode="&#xd6;" horiz-adv-x="1531" 
d="M457 1548v244h227v-244h-227zM838 1548v244h229v-244h-229zM766 -20q-140 0 -265 55.5t-215.5 152.5t-143 234.5t-52.5 294.5t52.5 294t142.5 233t215 151t266 55t266 -55.5t215 -152t142.5 -234t52.5 -295.5q0 -156 -52.5 -293t-143 -233t-215.5 -151.5t-265 -55.5z
M764 178q204 0 335.5 150t131.5 379q0 155 -58.5 280t-165 196.5t-241.5 71.5q-134 0 -239.5 -71t-163.5 -195t-58 -278q0 -230 129.5 -381.5t329.5 -151.5z" />
    <glyph glyph-name="multiply" unicode="&#xd7;" horiz-adv-x="1497" 
d="M399 115l-141 143l377 377l-377 379l141 141l379 -379l379 379l141 -141l-378 -379l378 -377l-141 -143l-379 379z" />
    <glyph glyph-name="Oslash" unicode="&#xd8;" horiz-adv-x="1568" 
d="M1450 1434l-182 -215q174 -206 174 -506q0 -156 -52.5 -293t-143 -233t-215.5 -151.5t-265 -55.5q-236 0 -418 149l-110 -129h-218l213 252q-143 199 -143 465q0 157 52.5 294t142.5 233t215 151t266 55q213 0 379 -119l88 103h217zM305 711q0 -162 70 -293l641 760
q-110 77 -250 77q-134 0 -239.5 -71t-163.5 -195t-58 -278zM1231 707q0 202 -98 350l-654 -772q120 -107 285 -107q204 0 335.5 150t131.5 379z" />
    <glyph glyph-name="Ugrave" unicode="&#xd9;" horiz-adv-x="1425" 
d="M641 1524l-264 268h252l209 -268h-197zM713 -16q-260 0 -416 153.5t-156 413.5v883h203v-883q0 -179 100 -278t269 -99q167 0 267.5 99.5t100.5 277.5v883h203v-883q0 -260 -155.5 -413.5t-415.5 -153.5z" />
    <glyph glyph-name="Uacute" unicode="&#xda;" horiz-adv-x="1425" 
d="M799 1522h-199l209 268h252zM713 -16q-260 0 -416 153.5t-156 413.5v883h203v-883q0 -179 100 -278t269 -99q167 0 267.5 99.5t100.5 277.5v883h203v-883q0 -260 -155.5 -413.5t-415.5 -153.5z" />
    <glyph glyph-name="Ucircumflex" unicode="&#xdb;" horiz-adv-x="1425" 
d="M567 1841h277l217 -321h-211l-143 204l-144 -204h-209zM713 -16q-260 0 -416 153.5t-156 413.5v883h203v-883q0 -179 100 -278t269 -99q167 0 267.5 99.5t100.5 277.5v883h203v-883q0 -260 -155.5 -413.5t-415.5 -153.5z" />
    <glyph glyph-name="Udieresis" unicode="&#xdc;" horiz-adv-x="1425" 
d="M414 1548v244h227v-244h-227zM795 1548v244h229v-244h-229zM713 -16q-260 0 -416 153.5t-156 413.5v883h203v-883q0 -179 100 -278t269 -99q167 0 267.5 99.5t100.5 277.5v883h203v-883q0 -260 -155.5 -413.5t-415.5 -153.5z" />
    <glyph glyph-name="Yacute" unicode="&#xdd;" horiz-adv-x="1310" 
d="M731 1522h-199l209 268h252zM555 0v582l-526 852h223l403 -668l420 668h207l-526 -852v-582h-201z" />
    <glyph glyph-name="Thorn" unicode="&#xde;" horiz-adv-x="1230" 
d="M162 0v1434h198v-275l402 2q187 0 303.5 -123t116.5 -311q0 -186 -119.5 -306t-312.5 -120h-390v-301h-198zM360 477h357q118 0 192 66.5t74 185.5q0 120 -74.5 188t-191.5 68h-355z" />
    <glyph glyph-name="germandbls" unicode="&#xdf;" horiz-adv-x="1288" 
d="M539 -4l-2 197h170q122 0 200 56.5t78 151.5q0 119 -93.5 179.5t-264.5 60.5h-68v180h62q151 0 244 75t93 187q0 97 -79.5 162.5t-200.5 65.5q-142 0 -225.5 -88t-83.5 -228v-999h-207v999q0 227 143 361.5t385 134.5q215 0 351.5 -110.5t136.5 -290.5q0 -109 -54 -197
t-149 -143q111 -47 172 -139t61 -212q0 -182 -138 -292.5t-363 -110.5h-168z" />
    <glyph glyph-name="agrave" unicode="&#xe0;" horiz-adv-x="1056" 
d="M451 1135l-265 268h252l209 -268h-196zM416 -20q-144 0 -245 83.5t-101 225.5q0 145 92 219q98 76 280 92q147 13 199 31q90 31 90 102q0 59 -52 98t-134 39q-103 0 -162.5 -52t-69.5 -126l-207 -2q15 157 132 258t299 101q187 0 293 -98t106 -255v-696h-205v129
q-55 -70 -138.5 -109.5t-176.5 -39.5zM446 152q65 -2 127 21.5t109 82t49 141.5l2 109q-58 -40 -252 -57q-98 -7 -149 -45t-51 -103q0 -64 46 -104t119 -45z" />
    <glyph glyph-name="aacute" unicode="&#xe1;" horiz-adv-x="1056" 
d="M610 1133h-198l209 268h251zM416 -20q-144 0 -245 83.5t-101 225.5q0 145 92 219q98 76 280 92q147 13 199 31q90 31 90 102q0 59 -52 98t-134 39q-103 0 -162.5 -52t-69.5 -126l-207 -2q15 157 132 258t299 101q187 0 293 -98t106 -255v-696h-205v129
q-55 -70 -138.5 -109.5t-176.5 -39.5zM446 152q65 -2 127 21.5t109 82t49 141.5l2 109q-58 -40 -252 -57q-98 -7 -149 -45t-51 -103q0 -64 46 -104t119 -45z" />
    <glyph glyph-name="acircumflex" unicode="&#xe2;" horiz-adv-x="1056" 
d="M379 1450h276l217 -322h-210l-144 205l-143 -205h-209zM416 -20q-144 0 -245 83.5t-101 225.5q0 145 92 219q98 76 280 92q147 13 199 31q90 31 90 102q0 59 -52 98t-134 39q-103 0 -162.5 -52t-69.5 -126l-207 -2q15 157 132 258t299 101q187 0 293 -98t106 -255v-696
h-205v129q-55 -70 -138.5 -109.5t-176.5 -39.5zM446 152q65 -2 127 21.5t109 82t49 141.5l2 109q-58 -40 -252 -57q-98 -7 -149 -45t-51 -103q0 -64 46 -104t119 -45z" />
    <glyph glyph-name="atilde" unicode="&#xe3;" horiz-adv-x="1056" 
d="M670 1130q-122 0 -203 117q-26 45 -66 45q-26 0 -42 -19t-19 -52q0 -31 12 -72h-157q-7 35 -7 59q-4 105 54.5 171.5t152.5 66.5q126 0 203 -117q26 -45 66 -45q34 0 50 30t9 81q-1 4 -4 14.5t-4 17.5h155q4 -16 4 -26q17 -117 -40.5 -194t-163.5 -77zM416 -20
q-144 0 -245 83.5t-101 225.5q0 145 92 219q98 76 280 92q147 13 199 31q90 31 90 102q0 59 -52 98t-134 39q-103 0 -162.5 -52t-69.5 -126l-207 -2q15 157 132 258t299 101q187 0 293 -98t106 -255v-696h-205v129q-55 -70 -138.5 -109.5t-176.5 -39.5zM446 152
q65 -2 127 21.5t109 82t49 141.5l2 109q-58 -40 -252 -57q-98 -7 -149 -45t-51 -103q0 -64 46 -104t119 -45z" />
    <glyph glyph-name="adieresis" unicode="&#xe4;" horiz-adv-x="1056" 
d="M225 1157v244h228v-244h-228zM606 1157v244h230v-244h-230zM416 -20q-144 0 -245 83.5t-101 225.5q0 145 92 219q98 76 280 92q147 13 199 31q90 31 90 102q0 59 -52 98t-134 39q-103 0 -162.5 -52t-69.5 -126l-207 -2q15 157 132 258t299 101q187 0 293 -98t106 -255
v-696h-205v129q-55 -70 -138.5 -109.5t-176.5 -39.5zM446 152q65 -2 127 21.5t109 82t49 141.5l2 109q-58 -40 -252 -57q-98 -7 -149 -45t-51 -103q0 -64 46 -104t119 -45z" />
    <glyph glyph-name="aring" unicode="&#xe5;" horiz-adv-x="1056" 
d="M535 1126q-79 0 -135 57t-56 134q0 78 56 134t135 56q76 0 131 -56t57 -134q0 -77 -56 -134t-132 -57zM535 1235q37 0 59 22t22 60t-22 62t-59 24q-38 0 -61 -24t-23 -62t23 -60t61 -22zM416 -20q-144 0 -245 83.5t-101 225.5q0 145 92 219q98 76 280 92q147 13 199 31
q90 31 90 102q0 59 -52 98t-134 39q-103 0 -162.5 -52t-69.5 -126l-207 -2q15 157 132 258t299 101q187 0 293 -98t106 -255v-696h-205v129q-55 -70 -138.5 -109.5t-176.5 -39.5zM446 152q65 -2 127 21.5t109 82t49 141.5l2 109q-58 -40 -252 -57q-98 -7 -149 -45t-51 -103
q0 -64 46 -104t119 -45z" />
    <glyph glyph-name="ae" unicode="&#xe6;" horiz-adv-x="1757" 
d="M1686 449h-738v-3q0 -136 77 -216t206 -80q48 0 94 14.5t92 56t66 105.5h186q-24 -155 -142 -252t-296 -97q-131 0 -232.5 50.5t-164.5 146.5q-35 -76 -146 -135t-248 -59q-93 0 -176.5 35t-138.5 107.5t-55 166.5q0 145 92 219q98 76 280 92q147 13 199 31q90 31 90 102
q0 59 -52 98t-134 39q-103 0 -162.5 -52t-69.5 -126l-207 -2q15 157 132 258t299 101q118 0 206.5 -40.5t139.5 -113.5q128 141 344 141q150 0 258.5 -77.5t159 -209.5t41.5 -300zM1221 864q-113 0 -186 -67t-81 -174h523q-8 108 -75.5 174.5t-180.5 66.5zM731 397l2 109
q-58 -40 -252 -57q-97 -6 -148.5 -44.5t-51.5 -103.5q0 -64 46 -104t119 -45q47 -2 95 11.5t91 42t70.5 78.5t28.5 113z" />
    <glyph glyph-name="ccedilla" unicode="&#xe7;" horiz-adv-x="1075" 
d="M557 162q97 0 161.5 55.5t80.5 136.5h205q-20 -155 -138 -257t-284 -111l-31 -58q38 9 76 2q74 -8 122 -60t48 -128q0 -92 -64.5 -155.5t-157.5 -63.5q-73 0 -142.5 42.5t-94.5 102.5l117 43q17 -28 52.5 -47.5t67.5 -19.5q41 0 69 29t28 69q0 34 -19 57t-49 29
q-50 13 -110 -16l-99 57l66 125q-176 31 -283.5 171.5t-107.5 346.5q0 235 137 383.5t354 148.5q175 0 299 -101t144 -261h-205q-20 81 -85 136.5t-159 55.5q-120 0 -198 -95.5t-78 -256.5q0 -164 78.5 -262t199.5 -98z" />
    <glyph glyph-name="egrave" unicode="&#xe8;" horiz-adv-x="1083" 
d="M467 1124l-264 269h252l209 -269h-197zM557 -23q-222 0 -354.5 141.5t-132.5 385.5q0 237 133 384.5t350 147.5q150 0 258.5 -77.5t159 -209.5t41.5 -300h-738v-3q0 -136 77 -216t208 -80q47 0 92.5 14.5t91.5 56t66 105.5h186q-24 -155 -142 -252t-296 -97zM281 623h522
q-8 108 -75.5 174.5t-180.5 66.5t-185.5 -67t-80.5 -174z" />
    <glyph glyph-name="eacute" unicode="&#xe9;" horiz-adv-x="1083" 
d="M627 1122h-199l209 269h252zM557 -23q-222 0 -354.5 141.5t-132.5 385.5q0 237 133 384.5t350 147.5q150 0 258.5 -77.5t159 -209.5t41.5 -300h-738v-3q0 -136 77 -216t208 -80q47 0 92.5 14.5t91.5 56t66 105.5h186q-24 -155 -142 -252t-296 -97zM281 623h522
q-8 108 -75.5 174.5t-180.5 66.5t-185.5 -67t-80.5 -174z" />
    <glyph glyph-name="ecircumflex" unicode="&#xea;" horiz-adv-x="1083" 
d="M395 1440h277l217 -322h-211l-143 205l-144 -205h-209zM557 -23q-222 0 -354.5 141.5t-132.5 385.5q0 237 133 384.5t350 147.5q150 0 258.5 -77.5t159 -209.5t41.5 -300h-738v-3q0 -136 77 -216t208 -80q47 0 92.5 14.5t91.5 56t66 105.5h186q-24 -155 -142 -252
t-296 -97zM281 623h522q-8 108 -75.5 174.5t-180.5 66.5t-185.5 -67t-80.5 -174z" />
    <glyph glyph-name="edieresis" unicode="&#xeb;" horiz-adv-x="1083" 
d="M242 1147v244h227v-244h-227zM623 1147v244h229v-244h-229zM557 -23q-222 0 -354.5 141.5t-132.5 385.5q0 237 133 384.5t350 147.5q150 0 258.5 -77.5t159 -209.5t41.5 -300h-738v-3q0 -136 77 -216t208 -80q47 0 92.5 14.5t91.5 56t66 105.5h186q-24 -155 -142 -252
t-296 -97zM281 623h522q-8 108 -75.5 174.5t-180.5 66.5t-185.5 -67t-80.5 -174z" />
    <glyph glyph-name="igrave" unicode="&#xec;" horiz-adv-x="485" 
d="M188 1114l-262 270h252l209 -270h-199zM170 0v1024h205v-1024h-205z" />
    <glyph glyph-name="iacute" unicode="&#xed;" horiz-adv-x="540" 
d="M272 1112h-198l209 268h252zM94 0v1024h207v-1024h-207z" />
    <glyph glyph-name="icircumflex" unicode="&#xee;" horiz-adv-x="614" 
d="M141 1430h277l215 -320h-209l-143 203l-144 -203h-209zM193 0v1024h206v-1024h-206z" />
    <glyph glyph-name="idieresis" unicode="&#xef;" horiz-adv-x="579" 
d="M-43 1139v243h227v-243h-227zM338 1139v243h227v-243h-227zM162 0v1024h207v-1024h-207z" />
    <glyph glyph-name="eth" unicode="&#xf0;" horiz-adv-x="1374" 
d="M1233 1298v-174h-176v-1124h-189v150q-34 -63 -123.5 -118t-207.5 -55q-86 0 -168 35t-149.5 99.5t-108.5 167.5t-41 227q0 123 38.5 225t103 167t147 100.5t171.5 35.5q118 0 204 -47t134 -119v256h-166v174h166v136h189v-136h176zM569 162q133 0 216 94.5t83 243.5
q0 156 -83 255t-216 99q-128 0 -209 -94.5t-81 -241.5q0 -157 80.5 -256.5t209.5 -99.5z" />
    <glyph glyph-name="ntilde" unicode="&#xf1;" 
d="M737 1128q-121 0 -202 117q-26 45 -66 45q-26 0 -42 -19t-19 -52q0 -31 12 -72h-158q-6 30 -6 59q-4 105 54.5 171.5t152.5 66.5q126 0 203 -117q26 -45 65 -45q34 0 50.5 30t9.5 81q-1 4 -4.5 14.5t-4.5 17.5h156q4 -16 4 -26q17 -117 -41 -194t-164 -77zM141 0v1024
h197v-133q39 60 120 110t191 50q51 0 101.5 -12t103 -43t91.5 -77t64 -121t25 -169v-629h-211v608q0 131 -59.5 198.5t-157.5 67.5q-112 0 -190 -95t-78 -251v-528h-197z" />
    <glyph glyph-name="ograve" unicode="&#xf2;" horiz-adv-x="1120" 
d="M479 1114l-264 268h252l209 -268h-197zM561 -10q-211 0 -351 147.5t-140 374.5q0 230 140 378t351 148q212 0 351 -148t139 -378q0 -227 -140.5 -374.5t-349.5 -147.5zM559 174q137 0 217 94t80 242q0 152 -78.5 248t-216.5 96q-134 0 -213.5 -95.5t-79.5 -246.5
q0 -148 78.5 -243t212.5 -95z" />
    <glyph glyph-name="oacute" unicode="&#xf3;" horiz-adv-x="1120" 
d="M637 1112h-199l209 268h252zM561 -10q-211 0 -351 147.5t-140 374.5q0 230 140 378t351 148q212 0 351 -148t139 -378q0 -227 -140.5 -374.5t-349.5 -147.5zM559 174q137 0 217 94t80 242q0 152 -78.5 248t-216.5 96q-134 0 -213.5 -95.5t-79.5 -246.5q0 -148 78.5 -243
t212.5 -95z" />
    <glyph glyph-name="ocircumflex" unicode="&#xf4;" horiz-adv-x="1120" 
d="M406 1432h276l217 -322h-211l-143 205l-144 -205h-208zM561 -10q-211 0 -351 147.5t-140 374.5q0 230 140 378t351 148q212 0 351 -148t139 -378q0 -227 -140.5 -374.5t-349.5 -147.5zM559 174q137 0 217 94t80 242q0 152 -78.5 248t-216.5 96q-134 0 -213.5 -95.5
t-79.5 -246.5q0 -148 78.5 -243t212.5 -95z" />
    <glyph glyph-name="otilde" unicode="&#xf5;" horiz-adv-x="1120" 
d="M696 1110q-121 0 -202 117q-26 45 -66 45q-26 0 -42 -19.5t-19 -52.5q0 -32 12 -72h-158q-6 30 -6 60q-4 105 54.5 171t152.5 66q126 0 203 -116q26 -45 65 -45q34 0 50.5 30t9.5 80q-1 4 -4.5 15t-4.5 18h156q4 -16 4 -27q17 -117 -41 -193.5t-164 -76.5zM561 -10
q-211 0 -351 147.5t-140 374.5q0 230 140 378t351 148q212 0 351 -148t139 -378q0 -227 -140.5 -374.5t-349.5 -147.5zM559 174q137 0 217 94t80 242q0 152 -78.5 248t-216.5 96q-134 0 -213.5 -95.5t-79.5 -246.5q0 -148 78.5 -243t212.5 -95z" />
    <glyph glyph-name="odieresis" unicode="&#xf6;" horiz-adv-x="1120" 
d="M252 1139v243h227v-243h-227zM633 1139v243h229v-243h-229zM561 -10q-211 0 -351 147.5t-140 374.5q0 230 140 378t351 148q212 0 351 -148t139 -378q0 -227 -140.5 -374.5t-349.5 -147.5zM559 174q137 0 217 94t80 242q0 152 -78.5 248t-216.5 96q-134 0 -213.5 -95.5
t-79.5 -246.5q0 -148 78.5 -243t212.5 -95z" />
    <glyph glyph-name="divide" unicode="&#xf7;" horiz-adv-x="1488" 
d="M631 850v244h227v-244h-227zM180 508v162h1137v-162h-1137zM631 70v245h227v-245h-227z" />
    <glyph glyph-name="oslash" unicode="&#xf8;" horiz-adv-x="1167" 
d="M1100 1024l-156 -172q107 -142 107 -340q0 -227 -140.5 -374.5t-349.5 -147.5q-174 0 -301 102l-82 -92h-184l172 190q-96 138 -96 322q0 230 140 378t351 148q161 0 287 -90l67 76h185zM268 512q0 -89 33 -170l420 467q-67 45 -160 45q-134 0 -213.5 -95.5t-79.5 -246.5
zM856 510q0 116 -43 195l-426 -474q69 -57 172 -57q137 0 217 94t80 242z" />
    <glyph glyph-name="ugrave" unicode="&#xf9;" 
d="M500 1114l-264 268h251l209 -268h-196zM516 -27q-51 0 -101.5 12t-103 43t-91.5 77t-64 121t-25 169v629h211v-608q0 -129 59.5 -197.5t157.5 -68.5q114 0 191 94.5t77 251.5v528h197v-1024h-197v133q-39 -60 -120 -110t-191 -50z" />
    <glyph glyph-name="uacute" unicode="&#xfa;" 
d="M657 1112h-198l209 268h252zM516 -27q-51 0 -101.5 12t-103 43t-91.5 77t-64 121t-25 169v629h211v-608q0 -129 59.5 -197.5t157.5 -68.5q114 0 191 94.5t77 251.5v528h197v-1024h-197v133q-39 -60 -120 -110t-191 -50z" />
    <glyph glyph-name="ucircumflex" unicode="&#xfb;" 
d="M426 1432h276l218 -322h-211l-144 205l-143 -205h-209zM516 -27q-51 0 -101.5 12t-103 43t-91.5 77t-64 121t-25 169v629h211v-608q0 -129 59.5 -197.5t157.5 -68.5q114 0 191 94.5t77 251.5v528h197v-1024h-197v133q-39 -60 -120 -110t-191 -50z" />
    <glyph glyph-name="udieresis" unicode="&#xfc;" 
d="M274 1139v243h228v-243h-228zM655 1139v243h230v-243h-230zM516 -27q-51 0 -101.5 12t-103 43t-91.5 77t-64 121t-25 169v629h211v-608q0 -129 59.5 -197.5t157.5 -68.5q114 0 191 94.5t77 251.5v528h197v-1024h-197v133q-39 -60 -120 -110t-191 -50z" />
    <glyph glyph-name="yacute" unicode="&#xfd;" horiz-adv-x="1003" 
d="M578 1112h-199l209 268h252zM78 -410l-2 181h92q129 0 186 145l54 147l-400 961h215l287 -723l270 723h215l-450 -1157q-55 -139 -142 -208t-217 -69h-108z" />
    <glyph glyph-name="thorn" unicode="&#xfe;" horiz-adv-x="1181" 
d="M131 -262v1603h188v-467q31 63 122 118t210 55q86 0 168 -35t149.5 -99.5t108.5 -167.5t41 -227q0 -123 -39 -225t-104 -167t-147.5 -100.5t-170.5 -35.5q-119 0 -205.5 47t-132.5 119v-418h-188zM616 170q130 0 210.5 94.5t80.5 241.5q0 157 -80.5 256.5t-210.5 99.5
q-131 0 -214 -95t-83 -243q0 -156 82.5 -255t214.5 -99z" />
    <glyph glyph-name="ydieresis" unicode="&#xff;" horiz-adv-x="1003" 
d="M193 1139v243h227v-243h-227zM573 1139v243h230v-243h-230zM78 -410l-2 181h92q129 0 186 145l54 147l-400 961h215l287 -723l270 723h215l-450 -1157q-55 -139 -142 -208t-217 -69h-108z" />
    <glyph glyph-name="Amacron" unicode="&#x100;" horiz-adv-x="1404" 
d="M391 1544v160h635v-160h-635zM281 0l-232 2l549 1432h209l549 -1434h-230l-139 365h-571zM475 551h455l-228 633z" />
    <glyph glyph-name="amacron" unicode="&#x101;" horiz-adv-x="1056" 
d="M223 1153v160h635v-160h-635zM416 -20q-144 0 -245 83.5t-101 225.5q0 145 92 219q98 76 280 92q147 13 199 31q90 31 90 102q0 59 -52 98t-134 39q-103 0 -162.5 -52t-69.5 -126l-207 -2q15 157 132 258t299 101q187 0 293 -98t106 -255v-696h-205v129
q-55 -70 -138.5 -109.5t-176.5 -39.5zM446 152q65 -2 127 21.5t109 82t49 141.5l2 109q-58 -40 -252 -57q-98 -7 -149 -45t-51 -103q0 -64 46 -104t119 -45z" />
    <glyph glyph-name="Abreve" unicode="&#x102;" horiz-adv-x="1404" 
d="M702 1518q-165 0 -260 104.5t-98 255.5h162q3 -92 54 -154t142 -61q94 1 145.5 64t53.5 151h162q-3 -151 -98.5 -255.5t-262.5 -104.5zM281 0l-232 2l549 1432h209l549 -1434h-230l-139 365h-571zM475 551h455l-228 633z" />
    <glyph glyph-name="abreve" unicode="&#x103;" horiz-adv-x="1056" 
d="M532 1128q-165 0 -260 105t-98 256h162q3 -92 54 -154t142 -61q94 1 145.5 64t53.5 151h162q-2 -72 -26 -136.5t-68 -115t-113 -80t-154 -29.5zM416 -20q-144 0 -245 83.5t-101 225.5q0 145 92 219q98 76 280 92q147 13 199 31q90 31 90 102q0 59 -52 98t-134 39
q-103 0 -162.5 -52t-69.5 -126l-207 -2q15 157 132 258t299 101q187 0 293 -98t106 -255v-696h-205v129q-55 -70 -138.5 -109.5t-176.5 -39.5zM446 152q65 -2 127 21.5t109 82t49 141.5l2 109q-58 -40 -252 -57q-98 -7 -149 -45t-51 -103q0 -64 46 -104t119 -45z" />
    <glyph glyph-name="Aogonek" unicode="&#x104;" horiz-adv-x="1228" 
d="M1389 -295l84 -117q-125 -128 -314 -118q-116 6 -188 64t-72 165q0 94 60 171t178 130h-11l-139 365h-571l-135 -365l-232 2l549 1432h209l547 -1428l18 -6q-127 -7 -210 -94.5t-83 -184.5q0 -54 33 -87t90 -33q53 0 105 29.5t82 74.5zM475 551h455l-228 633z" />
    <glyph glyph-name="aogonek" unicode="&#x105;" horiz-adv-x="1056" 
d="M954 -297l86 -117q-125 -128 -315 -118q-116 6 -188 64t-72 165q0 98 67.5 179t198.5 134v119q-55 -70 -138.5 -109.5t-176.5 -39.5q-144 0 -245 83.5t-101 225.5q0 145 92 219q98 76 280 92q147 13 199 31q90 31 90 102q0 59 -52 98t-134 39q-103 0 -162.5 -52
t-69.5 -126l-207 -2q15 157 132 258t299 101q187 0 293 -98t106 -255v-696h-4l6 -2q-127 -7 -210 -94.5t-83 -184.5q0 -54 33 -87t90 -33q54 0 105 29.5t81 74.5zM446 152q65 -2 127 21.5t109 82t49 141.5l2 109q-58 -40 -252 -57q-98 -7 -149 -45t-51 -103q0 -64 46 -104
t119 -45z" />
    <glyph glyph-name="Cacute" unicode="&#x106;" horiz-adv-x="1460" 
d="M834 1534h-199l209 268h252zM754 -10q-138 0 -261 54t-212 148.5t-140.5 229t-50.5 289.5q1 211 87 379t240 263t349 95q127 0 235.5 -39t185.5 -108t127 -161.5t66 -199.5h-229q-26 128 -132 217.5t-259 89.5q-132 0 -234 -72t-155.5 -193.5t-53.5 -272.5
q0 -224 120.5 -371.5t314.5 -147.5q158 0 266 93t133 219h229q-18 -107 -68.5 -199t-128 -162t-188.5 -110.5t-241 -40.5z" />
    <glyph glyph-name="cacute" unicode="&#x107;" horiz-adv-x="1075" 
d="M614 1112h-198l209 268h252zM553 -14q-213 0 -348 146.5t-135 379.5q0 235 137 383.5t354 148.5q175 0 299 -101t144 -261h-205q-20 81 -85 136.5t-159 55.5q-120 0 -198 -95.5t-78 -256.5q0 -164 78.5 -262t199.5 -98q97 0 161.5 55.5t80.5 136.5h205
q-22 -161 -148 -264.5t-303 -103.5z" />
    <glyph glyph-name="Ccircumflex" unicode="&#x108;" horiz-adv-x="1460" 
d="M602 1851h277l217 -321h-211l-144 205l-143 -205h-209zM754 -10q-138 0 -261 54t-212 148.5t-140.5 229t-50.5 289.5q1 211 87 379t240 263t349 95q127 0 235.5 -39t185.5 -108t127 -161.5t66 -199.5h-229q-26 128 -132 217.5t-259 89.5q-132 0 -234 -72t-155.5 -193.5
t-53.5 -272.5q0 -224 120.5 -371.5t314.5 -147.5q158 0 266 93t133 219h229q-18 -107 -68.5 -199t-128 -162t-188.5 -110.5t-241 -40.5z" />
    <glyph glyph-name="ccircumflex" unicode="&#x109;" horiz-adv-x="1075" 
d="M383 1432h276l218 -322h-211l-144 205l-143 -205h-209zM553 -14q-213 0 -348 146.5t-135 379.5q0 235 137 383.5t354 148.5q175 0 299 -101t144 -261h-205q-20 81 -85 136.5t-159 55.5q-120 0 -198 -95.5t-78 -256.5q0 -164 78.5 -262t199.5 -98q97 0 161.5 55.5
t80.5 136.5h205q-22 -161 -148 -264.5t-303 -103.5z" />
    <glyph glyph-name="Cdotaccent" unicode="&#x10a;" horiz-adv-x="1460" 
d="M639 1567v243h227v-243h-227zM754 -10q-138 0 -261 54t-212 148.5t-140.5 229t-50.5 289.5q1 211 87 379t240 263t349 95q127 0 235.5 -39t185.5 -108t127 -161.5t66 -199.5h-229q-26 128 -132 217.5t-259 89.5q-132 0 -234 -72t-155.5 -193.5t-53.5 -272.5
q0 -224 120.5 -371.5t314.5 -147.5q158 0 266 93t133 219h229q-18 -107 -68.5 -199t-128 -162t-188.5 -110.5t-241 -40.5z" />
    <glyph glyph-name="cdotaccent" unicode="&#x10b;" horiz-adv-x="1075" 
d="M420 1145v244h227v-244h-227zM553 -14q-213 0 -348 146.5t-135 379.5q0 235 137 383.5t354 148.5q175 0 299 -101t144 -261h-205q-20 81 -85 136.5t-159 55.5q-120 0 -198 -95.5t-78 -256.5q0 -164 78.5 -262t199.5 -98q97 0 161.5 55.5t80.5 136.5h205
q-22 -161 -148 -264.5t-303 -103.5z" />
    <glyph glyph-name="Ccaron" unicode="&#x10c;" horiz-adv-x="1460" 
d="M403 1878h203l150 -205l151 205h203l-217 -322h-277zM754 -10q-138 0 -261 54t-212 148.5t-140.5 229t-50.5 289.5q1 211 87 379t240 263t349 95q127 0 235.5 -39t185.5 -108t127 -161.5t66 -199.5h-229q-26 128 -132 217.5t-259 89.5q-132 0 -234 -72t-155.5 -193.5
t-53.5 -272.5q0 -224 120.5 -371.5t314.5 -147.5q158 0 266 93t133 219h229q-18 -107 -68.5 -199t-128 -162t-188.5 -110.5t-241 -40.5z" />
    <glyph glyph-name="ccaron" unicode="&#x10d;" horiz-adv-x="1075" 
d="M182 1456h203l150 -205l151 205h203l-217 -321h-277zM553 -14q-213 0 -348 146.5t-135 379.5q0 235 137 383.5t354 148.5q175 0 299 -101t144 -261h-205q-20 81 -85 136.5t-159 55.5q-120 0 -198 -95.5t-78 -256.5q0 -164 78.5 -262t199.5 -98q97 0 161.5 55.5
t80.5 136.5h205q-22 -161 -148 -264.5t-303 -103.5z" />
    <glyph glyph-name="Dcaron" unicode="&#x10e;" horiz-adv-x="1441" 
d="M367 1866h202l150 -205l151 205h203l-217 -322h-276zM162 -4v1438l516 4q192 2 346 -87.5t241 -253t87 -370.5q0 -157 -49.5 -292.5t-136 -230.5t-207.5 -149t-261 -55zM356 193l314 4q207 2 342 146.5t135 375.5q0 232 -133 376.5t-336 141.5l-322 -4v-1040z" />
    <glyph glyph-name="dcaron" unicode="&#x10f;" horiz-adv-x="1198" 
d="M537 -23q-86 0 -168 35t-149.5 99.5t-108.5 167.5t-41 227q0 123 38.5 225t103 167t147 100.5t171.5 35.5q118 0 204 -47t134 -119v566h189v-1434h-189v150q-34 -63 -123.5 -118t-207.5 -55zM113 1434h202l150 -205l151 205h203l-217 -322h-276zM569 162q133 0 216 94.5
t83 243.5q0 156 -83 255t-216 99q-128 0 -209 -94.5t-81 -241.5q0 -157 80.5 -256.5t209.5 -99.5z" />
    <glyph glyph-name="Dcroat" unicode="&#x110;" horiz-adv-x="1613" 
d="M762 1438q192 2 346 -87.5t241 -253t87 -370.5q0 -157 -49.5 -292.5t-136 -230.5t-207.5 -149t-261 -55l-536 -4v637h-148v170h148v631zM754 197q207 2 342 146.5t135 375.5q0 232 -133 376.5t-336 141.5l-322 -4v-430h357v-170h-357v-440z" />
    <glyph glyph-name="Emacron" unicode="&#x112;" horiz-adv-x="1159" 
d="M322 1544v160h634v-160h-634zM162 0v1434h928v-197h-730v-416h687v-190h-687v-434h730v-197h-928z" />
    <glyph glyph-name="emacron" unicode="&#x113;" horiz-adv-x="1083" 
d="M240 1143v160h634v-160h-634zM557 -23q-222 0 -354.5 141.5t-132.5 385.5q0 237 133 384.5t350 147.5q150 0 258.5 -77.5t159 -209.5t41.5 -300h-738v-3q0 -136 77 -216t208 -80q47 0 92.5 14.5t91.5 56t66 105.5h186q-24 -155 -142 -252t-296 -97zM281 623h522
q-8 108 -75.5 174.5t-180.5 66.5t-185.5 -67t-80.5 -174z" />
    <glyph glyph-name="Ebreve" unicode="&#x114;" horiz-adv-x="1159" 
d="M631 1518q-111 0 -193.5 51t-123 131.5t-42.5 177.5h162q3 -91 54 -153.5t143 -61.5q94 1 145 63.5t53 151.5h162q-3 -151 -98 -255.5t-262 -104.5zM162 0v1434h928v-197h-730v-416h687v-190h-687v-434h730v-197h-928z" />
    <glyph glyph-name="ebreve" unicode="&#x115;" horiz-adv-x="1083" 
d="M549 1118q-165 0 -260.5 105t-98.5 256h162q3 -91 54 -153.5t143 -61.5q94 1 145.5 64t53.5 151h161q-2 -98 -42 -178t-123 -131.5t-195 -51.5zM557 -23q-222 0 -354.5 141.5t-132.5 385.5q0 237 133 384.5t350 147.5q150 0 258.5 -77.5t159 -209.5t41.5 -300h-738v-3
q0 -136 77 -216t208 -80q47 0 92.5 14.5t91.5 56t66 105.5h186q-24 -155 -142 -252t-296 -97zM281 623h522q-8 108 -75.5 174.5t-180.5 66.5t-185.5 -67t-80.5 -174z" />
    <glyph glyph-name="Edotaccent" unicode="&#x116;" horiz-adv-x="1159" 
d="M514 1554v244h227v-244h-227zM162 0v1434h928v-197h-730v-416h687v-190h-687v-434h730v-197h-928z" />
    <glyph glyph-name="edotaccent" unicode="&#x117;" horiz-adv-x="1083" 
d="M432 1155v244h227v-244h-227zM557 -23q-222 0 -354.5 141.5t-132.5 385.5q0 237 133 384.5t350 147.5q150 0 258.5 -77.5t159 -209.5t41.5 -300h-738v-3q0 -136 77 -216t208 -80q47 0 92.5 14.5t91.5 56t66 105.5h186q-24 -155 -142 -252t-296 -97zM281 623h522
q-8 108 -75.5 174.5t-180.5 66.5t-185.5 -67t-80.5 -174z" />
    <glyph glyph-name="Eogonek" unicode="&#x118;" horiz-adv-x="1159" 
d="M1102 -295l86 -117q-62 -64 -145 -93.5t-171 -24.5q-116 6 -188 64t-72 165q0 93 60.5 170.5t179.5 130.5h-690v1434h928v-197h-730v-416h687v-190h-687v-434h730v-197h-5q-127 -7 -209.5 -94.5t-82.5 -184.5q0 -54 32.5 -87t89.5 -33q54 0 105.5 29.5t81.5 74.5z" />
    <glyph glyph-name="eogonek" unicode="&#x119;" horiz-adv-x="1083" 
d="M1012 449h-738v-3q0 -136 77 -216t208 -80q47 0 92.5 14.5t91.5 56t66 105.5h186q-22 -149 -131.5 -244.5t-275.5 -104.5q-81 -35 -129.5 -106.5t-48.5 -142.5q0 -54 32.5 -87.5t89.5 -33.5q54 0 105.5 29.5t81.5 74.5l86 -117q-62 -64 -145 -93.5t-171 -24.5
q-116 6 -188 64t-72 165q0 86 52.5 159.5t152.5 125.5q-170 37 -267 171.5t-97 342.5q0 237 133 384.5t350 147.5q150 0 258.5 -77.5t159 -209.5t41.5 -300zM547 864q-113 0 -185.5 -67t-80.5 -174h522q-8 108 -75.5 174.5t-180.5 66.5z" />
    <glyph glyph-name="Ecaron" unicode="&#x11a;" horiz-adv-x="1159" 
d="M276 1866h203l150 -205l151 205h203l-217 -322h-277zM162 0v1434h928v-197h-730v-416h687v-190h-687v-434h730v-197h-928z" />
    <glyph glyph-name="ecaron" unicode="&#x11b;" horiz-adv-x="1083" 
d="M195 1466h202l150 -204l151 204h203l-217 -321h-276zM557 -23q-222 0 -354.5 141.5t-132.5 385.5q0 237 133 384.5t350 147.5q150 0 258.5 -77.5t159 -209.5t41.5 -300h-738v-3q0 -136 77 -216t208 -80q47 0 92.5 14.5t91.5 56t66 105.5h186q-24 -155 -142 -252t-296 -97
zM281 623h522q-8 108 -75.5 174.5t-180.5 66.5t-185.5 -67t-80.5 -174z" />
    <glyph glyph-name="Gcircumflex" unicode="&#x11c;" horiz-adv-x="1540" 
d="M616 1841h277l217 -321h-211l-143 204l-144 -204h-209zM752 -10q-140 0 -263 54t-211 148.5t-138.5 229t-49.5 289.5q1 211 88 379t242 263t350 95q126 0 235 -39t186.5 -108t128 -161.5t66.5 -199.5h-229q-23 127 -131.5 217t-263.5 90q-131 0 -234 -71.5t-158 -194
t-55 -272.5q0 -223 124 -372.5t317 -148.5q68 1 133.5 21.5t125 60.5t103.5 109.5t62 159.5h-418v194l627 -2v-731h-179l-14 223q-69 -114 -188.5 -173.5t-255.5 -59.5z" />
    <glyph glyph-name="gcircumflex" unicode="&#x11d;" horiz-adv-x="1206" 
d="M446 1434h277l217 -322h-211l-143 205l-144 -205h-209zM561 -426q-200 0 -324.5 103.5t-132.5 254.5l197 -2q10 -48 36.5 -84.5t57 -55t67.5 -30t60.5 -14t44.5 -2.5q143 0 230.5 86t87.5 262v103q-47 -92 -147 -148.5t-216 -56.5q-139 0 -242 68t-156.5 187t-53.5 273
q0 230 129 379.5t329 149.5q110 0 209 -55t148 -146v178h190v-932q0 -256 -140 -387t-374 -131zM571 170q132 0 215.5 99.5t83.5 254.5q0 148 -83.5 243t-215.5 95q-129 0 -209.5 -99.5t-80.5 -256.5q0 -147 81 -241.5t209 -94.5z" />
    <glyph glyph-name="Gbreve" unicode="&#x11e;" horiz-adv-x="1540" 
d="M770 1518q-165 0 -260 104.5t-98 255.5h161q3 -91 54 -153.5t143 -61.5q94 1 145.5 64t53.5 151h161q-3 -151 -98 -255.5t-262 -104.5zM752 -10q-140 0 -263 54t-211 148.5t-138.5 229t-49.5 289.5q1 211 88 379t242 263t350 95q126 0 235 -39t186.5 -108t128 -161.5
t66.5 -199.5h-229q-23 127 -131.5 217t-263.5 90q-131 0 -234 -71.5t-158 -194t-55 -272.5q0 -223 124 -372.5t317 -148.5q68 1 133.5 21.5t125 60.5t103.5 109.5t62 159.5h-418v194l627 -2v-731h-179l-14 223q-69 -114 -188.5 -173.5t-255.5 -59.5z" />
    <glyph glyph-name="gbreve" unicode="&#x11f;" horiz-adv-x="1206" 
d="M602 1112q-165 0 -260 105t-98 256h162q3 -92 54 -154.5t142 -61.5q94 1 145.5 64t53.5 152h162q-2 -72 -26 -136.5t-68 -115t-113 -80t-154 -29.5zM561 -426q-200 0 -324.5 103.5t-132.5 254.5l197 -2q10 -48 36.5 -84.5t57 -55t67.5 -30t60.5 -14t44.5 -2.5
q143 0 230.5 86t87.5 262v103q-47 -92 -147 -148.5t-216 -56.5q-139 0 -242 68t-156.5 187t-53.5 273q0 230 129 379.5t329 149.5q110 0 209 -55t148 -146v178h190v-932q0 -256 -140 -387t-374 -131zM571 170q132 0 215.5 99.5t83.5 254.5q0 148 -83.5 243t-215.5 95
q-129 0 -209.5 -99.5t-80.5 -256.5q0 -147 81 -241.5t209 -94.5z" />
    <glyph glyph-name="Gdotaccent" unicode="&#x120;" horiz-adv-x="1540" 
d="M653 1554v244h228v-244h-228zM752 -10q-140 0 -263 54t-211 148.5t-138.5 229t-49.5 289.5q1 211 88 379t242 263t350 95q126 0 235 -39t186.5 -108t128 -161.5t66.5 -199.5h-229q-23 127 -131.5 217t-263.5 90q-131 0 -234 -71.5t-158 -194t-55 -272.5
q0 -223 124 -372.5t317 -148.5q68 1 133.5 21.5t125 60.5t103.5 109.5t62 159.5h-418v194l627 -2v-731h-179l-14 223q-69 -114 -188.5 -173.5t-255.5 -59.5z" />
    <glyph glyph-name="gdotaccent" unicode="&#x121;" horiz-adv-x="1206" 
d="M483 1149v244h228v-244h-228zM561 -426q-200 0 -324.5 103.5t-132.5 254.5l197 -2q10 -48 36.5 -84.5t57 -55t67.5 -30t60.5 -14t44.5 -2.5q143 0 230.5 86t87.5 262v103q-47 -92 -147 -148.5t-216 -56.5q-139 0 -242 68t-156.5 187t-53.5 273q0 230 129 379.5t329 149.5
q110 0 209 -55t148 -146v178h190v-932q0 -256 -140 -387t-374 -131zM571 170q132 0 215.5 99.5t83.5 254.5q0 148 -83.5 243t-215.5 95q-129 0 -209.5 -99.5t-80.5 -256.5q0 -147 81 -241.5t209 -94.5z" />
    <glyph glyph-name="uni0122" unicode="&#x122;" horiz-adv-x="1540" 
d="M752 -10q-140 0 -263 54t-211 148.5t-138.5 229t-49.5 289.5q1 211 88 379t242 263t350 95q126 0 235 -39t186.5 -108t128 -161.5t66.5 -199.5h-229q-23 127 -131.5 217t-263.5 90q-131 0 -234 -71.5t-158 -194t-55 -272.5q0 -223 124 -372.5t317 -148.5q68 1 133.5 21.5
t125 60.5t103.5 109.5t62 159.5h-418v194l627 -2v-731h-179l-14 223q-69 -114 -188.5 -173.5t-255.5 -59.5zM668 -592v115q110 3 104 119h-115v243h228l-2 -243q0 -118 -57 -176t-158 -58z" />
    <glyph glyph-name="uni0123" unicode="&#x123;" horiz-adv-x="1206" 
d="M561 -426q-200 0 -324.5 103.5t-132.5 254.5l197 -2q10 -48 36.5 -84.5t57 -55t67.5 -30t60.5 -14t44.5 -2.5q143 0 230.5 86t87.5 262v103q-47 -92 -147 -148.5t-216 -56.5q-139 0 -242 68t-156.5 187t-53.5 273q0 230 129 379.5t329 149.5q110 0 209 -55t148 -146v178
h190v-932q0 -256 -140 -387t-374 -131zM571 170q132 0 215.5 99.5t83.5 254.5q0 148 -83.5 243t-215.5 95q-129 0 -209.5 -99.5t-80.5 -256.5q0 -147 81 -241.5t209 -94.5zM502 -1001v114q110 3 104 119h-114v244h227l-2 -244q0 -118 -57 -175.5t-158 -57.5z" />
    <glyph glyph-name="Hcircumflex" unicode="&#x124;" horiz-adv-x="1452" 
d="M571 1841h277l217 -321h-211l-143 204l-144 -204h-209zM162 0v1434h215v-609h698v609h215v-1434h-215v645h-698v-645h-215z" />
    <glyph glyph-name="hcircumflex" unicode="&#x125;" 
d="M444 1942h277l217 -322h-211l-143 205l-144 -205h-209zM141 0v1434h197v-543q39 60 120 110t191 50q51 0 101.5 -12t103 -43t91.5 -77t64 -121t25 -169v-629h-211v608q0 129 -59.5 197.5t-157.5 68.5q-114 0 -191 -94.5t-77 -251.5v-528h-197z" />
    <glyph glyph-name="Hbar" unicode="&#x126;" horiz-adv-x="1558" 
d="M1382 1214v-176h-92v-1038h-215v645h-698v-645h-215v1038h-90v176h90v220h215v-220h698v220h215v-220h92zM1075 825v213h-698v-213h698z" />
    <glyph glyph-name="hbar" unicode="&#x127;" horiz-adv-x="1277" 
d="M762 1051q51 0 101.5 -12t103 -43t91.5 -77t64 -121t25 -169v-629h-211v608q0 129 -59.5 197.5t-157.5 68.5q-114 0 -191 -94.5t-77 -251.5v-528h-197v1143h-113v153h113v138h197v-138h219v-153h-219v-252q39 60 120 110t191 50z" />
    <glyph glyph-name="Itilde" unicode="&#x128;" horiz-adv-x="555" 
d="M414 1520q-122 0 -203 116q-26 45 -66 45q-26 0 -42 -19t-19 -52q0 -32 12 -72h-157q-7 35 -7 59q-4 105 54.5 171.5t152.5 66.5q126 0 203 -117q26 -45 66 -45q34 0 50 30t9 81q-1 4 -4 15t-4 18h155q4 -16 4 -27q17 -117 -40.5 -193.5t-163.5 -76.5zM172 0v1434h211
v-1434h-211z" />
    <glyph glyph-name="itilde" unicode="&#x129;" horiz-adv-x="620" 
d="M428 1110q-122 0 -203 117q-26 45 -65 45q-26 0 -42.5 -19.5t-19.5 -52.5q0 -28 13 -72h-158q-6 20 -6 60q-4 105 54 171t151 66q127 0 204 -116q23 -45 66 -45q34 0 49.5 29.5t9.5 80.5q-1 8 -10 33h158q4 -16 4 -27q17 -117 -41.5 -193.5t-163.5 -76.5zM188 0v1024h207
v-1024h-207z" />
    <glyph glyph-name="Imacron" unicode="&#x12a;" horiz-adv-x="489" 
d="M-66 1544v160h635v-160h-635zM139 0v1434h211v-1434h-211z" />
    <glyph glyph-name="imacron" unicode="&#x12b;" horiz-adv-x="581" 
d="M-37 1135v159h635v-159h-635zM172 0v1024h205v-1024h-205z" />
    <glyph glyph-name="Ibreve" unicode="&#x12c;" horiz-adv-x="491" 
d="M254 1518q-85 0 -153.5 29.5t-112 79.5t-67 114.5t-25.5 136.5h161q3 -92 53.5 -154t143.5 -61q94 1 145 63.5t54 151.5h161q-3 -151 -98 -255.5t-262 -104.5zM147 0v1434h211v-1434h-211z" />
    <glyph glyph-name="ibreve" unicode="&#x12d;" horiz-adv-x="657" 
d="M311 1108q-165 0 -260 104.5t-98 255.5h162q3 -92 54 -154t142 -61q94 1 145.5 64t53.5 151h162q-3 -151 -98.5 -255.5t-262.5 -104.5zM209 0v1024h207v-1024h-207z" />
    <glyph glyph-name="Iogonek" unicode="&#x12e;" horiz-adv-x="524" 
d="M389 -295l86 -119q-125 -128 -315 -118q-116 6 -188 64t-72 165q0 98 66.5 178.5t195.5 132.5v1426h211v-1434h-6l6 -2q-127 -7 -210 -94.5t-83 -184.5q0 -53 32.5 -85.5t90.5 -32.5q55 0 105.5 29t80.5 75z" />
    <glyph glyph-name="iogonek" unicode="&#x12f;" horiz-adv-x="483" 
d="M352 1434v-240h-221v240h221zM358 -295l86 -117q-125 -128 -315 -118q-116 6 -188 64t-72 165q0 99 68.5 180t201.5 133v1012h207v-1024h-4q-127 -7 -210 -94.5t-83 -184.5q0 -54 33 -87t90 -33q54 0 105 29.5t81 74.5z" />
    <glyph glyph-name="Idotaccent" unicode="&#x130;" horiz-adv-x="555" 
d="M160 1554v244h227v-244h-227zM172 0v1434h211v-1434h-211z" />
    <glyph glyph-name="dotlessi" unicode="&#x131;" horiz-adv-x="468" 
d="M131 0v1024h207v-1024h-207z" />
    <glyph glyph-name="Jcircumflex" unicode="&#x134;" horiz-adv-x="1064" 
d="M666 1829h276l217 -322h-211l-143 205l-143 -205h-209zM475 -16q-198 0 -321.5 120.5t-124.5 321.5v113h194v-107q1 -116 71 -186t181 -70q107 0 173.5 74.5t66.5 206.5v977h209v-983q0 -143 -61 -250.5t-162 -162t-226 -54.5z" />
    <glyph glyph-name="jcircumflex" unicode="&#x135;" horiz-adv-x="632" 
d="M190 1413h277l217 -321h-209l-145 204l-144 -204h-209zM49 -362v188h45q65 0 104.5 39t39.5 119v1040h196v-1073q0 -146 -86 -229.5t-223 -83.5h-76z" />
    <glyph glyph-name="uni0136" unicode="&#x136;" horiz-adv-x="1294" 
d="M162 0v1434h194v-713l650 713h249l-598 -656l619 -778h-260l-500 633l-160 -178v-455h-194zM545 -592v115q110 3 104 119h-114v243h227l-2 -243q0 -118 -57 -176t-158 -58z" />
    <glyph glyph-name="uni0137" unicode="&#x137;" horiz-adv-x="1046" 
d="M141 0v1434h195v-832l395 422h244l-383 -408l426 -614l-223 -2l-330 477l-129 -137v-340h-195zM420 -592v115q110 3 104 119h-114v243h227l-2 -243q0 -118 -57 -176t-158 -58z" />
    <glyph glyph-name="Lacute" unicode="&#x139;" horiz-adv-x="1054" 
d="M346 1522h-199l209 268h252zM162 0v1434h213v-1231h641v-203h-854z" />
    <glyph glyph-name="lacute" unicode="&#x13a;" horiz-adv-x="489" 
d="M319 1686h-198l209 268h252zM141 0v1434h207v-1434h-207z" />
    <glyph glyph-name="uni013B" unicode="&#x13b;" horiz-adv-x="1054" 
d="M162 0v1434h213v-1231h641v-203h-854zM424 -592v115q110 3 104 119h-114v243h227l-2 -243q0 -118 -57 -176t-158 -58z" />
    <glyph glyph-name="uni013C" unicode="&#x13c;" horiz-adv-x="489" 
d="M141 0v1434h207v-1434h-207zM141 -592v115q111 3 105 119h-115v243h227l-2 -243q0 -118 -57 -176t-158 -58z" />
    <glyph glyph-name="Lcaron" unicode="&#x13d;" horiz-adv-x="1054" 
d="M-84 1866h203l149 -205l152 205h203l-217 -322h-277zM162 0v1434h213v-1231h641v-203h-854z" />
    <glyph glyph-name="lcaron" unicode="&#x13e;" horiz-adv-x="489" 
d="M-111 2030h203l150 -205l151 205h203l-217 -322h-277zM141 0v1434h207v-1434h-207z" />
    <glyph glyph-name="Ldot" unicode="&#x13f;" horiz-adv-x="1054" 
d="M152 1522v243h227v-243h-227zM162 0v1434h213v-1231h641v-203h-854z" />
    <glyph glyph-name="ldot" unicode="&#x140;" horiz-adv-x="499" 
d="M129 1499v246h229v-246h-229zM141 0v1434h207v-1434h-207z" />
    <glyph glyph-name="Lslash" unicode="&#x141;" horiz-adv-x="1067" 
d="M375 203h641v-203h-854v571l-160 -79v176l160 80v686h213v-578l289 145v-176l-289 -145v-477z" />
    <glyph glyph-name="lslash" unicode="&#x142;" horiz-adv-x="559" 
d="M520 1040v-176l-172 -67v-797h-207v715l-114 -45v176l114 45v543h207v-461z" />
    <glyph glyph-name="Nacute" unicode="&#x143;" horiz-adv-x="1464" 
d="M809 1522h-199l209 268h252zM1038 0l-682 1128v-1128h-194v1434h248l698 -1158v1158h195v-1436z" />
    <glyph glyph-name="nacute" unicode="&#x144;" 
d="M676 1130h-199l209 269h252zM141 0v1024h197v-133q39 60 120 110t191 50q51 0 101.5 -12t103 -43t91.5 -77t64 -121t25 -169v-629h-211v608q0 131 -59.5 198.5t-157.5 67.5q-112 0 -190 -95t-78 -251v-528h-197z" />
    <glyph glyph-name="uni0145" unicode="&#x145;" horiz-adv-x="1464" 
d="M1038 0l-682 1128v-1128h-194v1434h248l698 -1158v1158h195v-1436zM631 -592v115q110 3 104 119h-114v243h227l-2 -243q0 -118 -57 -176t-158 -58z" />
    <glyph glyph-name="uni0146" unicode="&#x146;" 
d="M141 0v1024h197v-133q39 60 120 110t191 50q51 0 101.5 -12t103 -43t91.5 -77t64 -121t25 -169v-629h-211v608q0 131 -59.5 198.5t-157.5 67.5q-112 0 -190 -95t-78 -251v-528h-197zM479 -592v115q111 3 105 119h-115v243h227l-2 -243q0 -118 -57 -176t-158 -58z" />
    <glyph glyph-name="Ncaron" unicode="&#x147;" horiz-adv-x="1464" 
d="M379 1866h203l149 -205l152 205h202l-217 -322h-276zM1038 0l-682 1128v-1128h-194v1434h248l698 -1158v1158h195v-1436z" />
    <glyph glyph-name="ncaron" unicode="&#x148;" 
d="M246 1475h203l149 -205l152 205h202l-217 -322h-276zM141 0v1024h197v-133q39 60 120 110t191 50q51 0 101.5 -12t103 -43t91.5 -77t64 -121t25 -169v-629h-211v608q0 131 -59.5 198.5t-157.5 67.5q-112 0 -190 -95t-78 -251v-528h-197z" />
    <glyph glyph-name="Eng" unicode="&#x14a;" horiz-adv-x="1464" 
d="M1108 1434h195v-1436q-3 -215 -109 -320.5t-317 -105.5v180q72 0 134.5 34t61.5 103q-1 31 -8.5 52t-26.5 59l-682 1128v-1128h-194v1434h248l698 -1158v1158z" />
    <glyph glyph-name="eng" unicode="&#x14b;" 
d="M649 1051q51 0 101.5 -12t103 -43t91.5 -77t64 -121t25 -169v-629q0 -149 -84.5 -245.5t-240.5 -96.5v199q63 0 89.5 33.5t24.5 109.5v608q0 131 -59.5 198.5t-157.5 67.5q-112 0 -190 -95t-78 -251v-528h-197v1024h197v-133q39 60 120 110t191 50z" />
    <glyph glyph-name="Omacron" unicode="&#x14c;" horiz-adv-x="1531" 
d="M455 1544v160h635v-160h-635zM766 -20q-140 0 -265 55.5t-215.5 152.5t-143 234.5t-52.5 294.5t52.5 294t142.5 233t215 151t266 55t266 -55.5t215 -152t142.5 -234t52.5 -295.5q0 -156 -52.5 -293t-143 -233t-215.5 -151.5t-265 -55.5zM764 178q204 0 335.5 150
t131.5 379q0 155 -58.5 280t-165 196.5t-241.5 71.5q-134 0 -239.5 -71t-163.5 -195t-58 -278q0 -230 129.5 -381.5t329.5 -151.5z" />
    <glyph glyph-name="omacron" unicode="&#x14d;" horiz-adv-x="1120" 
d="M250 1135v159h635v-159h-635zM561 -10q-211 0 -351 147.5t-140 374.5q0 230 140 378t351 148q212 0 351 -148t139 -378q0 -227 -140.5 -374.5t-349.5 -147.5zM559 174q137 0 217 94t80 242q0 152 -78.5 248t-216.5 96q-134 0 -213.5 -95.5t-79.5 -246.5q0 -148 78.5 -243
t212.5 -95z" />
    <glyph glyph-name="Obreve" unicode="&#x14e;" horiz-adv-x="1531" 
d="M766 1518q-165 0 -260 104.5t-98 255.5h161q3 -91 54 -153.5t143 -61.5q94 1 145.5 64t53.5 151h161q-3 -151 -98 -255.5t-262 -104.5zM766 -20q-140 0 -265 55.5t-215.5 152.5t-143 234.5t-52.5 294.5t52.5 294t142.5 233t215 151t266 55t266 -55.5t215 -152t142.5 -234
t52.5 -295.5q0 -156 -52.5 -293t-143 -233t-215.5 -151.5t-265 -55.5zM764 178q204 0 335.5 150t131.5 379q0 155 -58.5 280t-165 196.5t-241.5 71.5q-134 0 -239.5 -71t-163.5 -195t-58 -278q0 -230 129.5 -381.5t329.5 -151.5z" />
    <glyph glyph-name="obreve" unicode="&#x14f;" horiz-adv-x="1120" 
d="M561 1108q-165 0 -260 104.5t-98 255.5h162q3 -92 54 -154t142 -61q94 1 145.5 64t53.5 151h162q-3 -151 -98.5 -255.5t-262.5 -104.5zM561 -10q-211 0 -351 147.5t-140 374.5q0 230 140 378t351 148q212 0 351 -148t139 -378q0 -227 -140.5 -374.5t-349.5 -147.5z
M559 174q137 0 217 94t80 242q0 152 -78.5 248t-216.5 96q-134 0 -213.5 -95.5t-79.5 -246.5q0 -148 78.5 -243t212.5 -95z" />
    <glyph glyph-name="Ohungarumlaut" unicode="&#x150;" horiz-adv-x="1531" 
d="M455 1554v244h227v-244h-227zM836 1554v244h229v-244h-229zM766 -20q-140 0 -265 55.5t-215.5 152.5t-143 234.5t-52.5 294.5t52.5 294t142.5 233t215 151t266 55t266 -55.5t215 -152t142.5 -234t52.5 -295.5q0 -156 -52.5 -293t-143 -233t-215.5 -151.5t-265 -55.5z
M764 178q204 0 335.5 150t131.5 379q0 155 -58.5 280t-165 196.5t-241.5 71.5q-134 0 -239.5 -71t-163.5 -195t-58 -278q0 -230 129.5 -381.5t329.5 -151.5z" />
    <glyph glyph-name="ohungarumlaut" unicode="&#x151;" horiz-adv-x="1120" 
d="M250 1145v244h227v-244h-227zM631 1145v244h229v-244h-229zM561 -10q-211 0 -351 147.5t-140 374.5q0 230 140 378t351 148q212 0 351 -148t139 -378q0 -227 -140.5 -374.5t-349.5 -147.5zM559 174q137 0 217 94t80 242q0 152 -78.5 248t-216.5 96q-134 0 -213.5 -95.5
t-79.5 -246.5q0 -148 78.5 -243t212.5 -95z" />
    <glyph glyph-name="OE" unicode="&#x152;" horiz-adv-x="2254" 
d="M2185 1237h-729v-416h686v-190h-686v-434h729v-197h-928v201q-93 -106 -219.5 -163.5t-271.5 -57.5q-140 0 -265 55.5t-215.5 152.5t-143 234.5t-52.5 294.5t52.5 294t142.5 233t215 151t266 55q145 0 271 -57t220 -162v203h928v-197zM764 178q204 0 335.5 150t131.5 379
q0 155 -58.5 280t-165 196.5t-241.5 71.5q-134 0 -239.5 -71t-163.5 -195t-58 -278q0 -230 129.5 -381.5t329.5 -151.5z" />
    <glyph glyph-name="oe" unicode="&#x153;" horiz-adv-x="1921" 
d="M1849 449h-737v-3q0 -136 77 -216t206 -80q48 0 94 14.5t92 56t66 105.5h186q-24 -155 -142 -252t-296 -97q-146 0 -255 62t-169 178q-65 -107 -172.5 -167t-237.5 -60q-211 0 -351 147.5t-140 374.5q0 230 140 378t351 148q134 0 243 -62.5t173 -172.5q61 110 168 171.5
t246 61.5q152 0 260 -77.5t157.5 -209.5t40.5 -300zM1384 864q-113 0 -185.5 -67t-80.5 -174h522q-8 108 -75.5 174.5t-180.5 66.5zM559 174q137 0 217 94t80 242q0 152 -78.5 248t-216.5 96q-134 0 -213.5 -95.5t-79.5 -246.5q0 -148 78.5 -243t212.5 -95z" />
    <glyph glyph-name="Racute" unicode="&#x154;" horiz-adv-x="1329" 
d="M741 1522h-198l209 268h252zM162 -2v1436l604 2q189 0 304.5 -111t115.5 -281q0 -127 -64.5 -222t-154.5 -126q96 -31 138.5 -112t53.5 -224q3 -42 7 -106t6 -87t7.5 -58.5t14.5 -58.5t23 -50h-230q-9 22 -15 42.5t-9.5 54t-5 52.5t-4.5 75.5t-5 84.5q-4 57 -8.5 91.5
t-16 75t-30.5 63.5t-49.5 44t-77 29.5t-109.5 8.5h-292v-623h-203zM365 797h356q117 0 190.5 59t73.5 172q0 117 -71.5 174.5t-192.5 57.5h-356v-463z" />
    <glyph glyph-name="racute" unicode="&#x155;" horiz-adv-x="679" 
d="M416 1112h-199l209 268h252zM141 0v1024h191v-129q9 17 20.5 32.5t37 38t56 38t79.5 26.5t106 10h37v-202l-27 -2q-309 8 -309 -299v-537h-191z" />
    <glyph glyph-name="uni0156" unicode="&#x156;" horiz-adv-x="1329" 
d="M162 -2v1436l604 2q189 0 304.5 -111t115.5 -281q0 -127 -64.5 -222t-154.5 -126q96 -31 138.5 -112t53.5 -224q3 -42 7 -106t6 -87t7.5 -58.5t14.5 -58.5t23 -50h-230q-9 22 -15 42.5t-9.5 54t-5 52.5t-4.5 75.5t-5 84.5q-4 57 -8.5 91.5t-16 75t-30.5 63.5t-49.5 44
t-77 29.5t-109.5 8.5h-292v-623h-203zM365 797h356q117 0 190.5 59t73.5 172q0 117 -71.5 174.5t-192.5 57.5h-356v-463zM561 -592v115q111 3 105 119h-115v243h227l-2 -243q0 -118 -57 -176t-158 -58z" />
    <glyph glyph-name="uni0157" unicode="&#x157;" horiz-adv-x="679" 
d="M141 0v1024h191v-129q9 17 20.5 32.5t37 38t56 38t79.5 26.5t106 10h37v-202l-27 -2q-309 8 -309 -299v-537h-191zM135 -592v115q111 3 105 119h-115v243h227l-2 -243q0 -118 -57 -176t-158 -58z" />
    <glyph glyph-name="Rcaron" unicode="&#x158;" horiz-adv-x="1329" 
d="M309 1866h203l150 -205l151 205h203l-217 -322h-277zM162 -2v1436l604 2q189 0 304.5 -111t115.5 -281q0 -127 -64.5 -222t-154.5 -126q96 -31 138.5 -112t53.5 -224q3 -42 7 -106t6 -87t7.5 -58.5t14.5 -58.5t23 -50h-230q-9 22 -15 42.5t-9.5 54t-5 52.5t-4.5 75.5
t-5 84.5q-4 57 -8.5 91.5t-16 75t-30.5 63.5t-49.5 44t-77 29.5t-109.5 8.5h-292v-623h-203zM365 797h356q117 0 190.5 59t73.5 172q0 117 -71.5 174.5t-192.5 57.5h-356v-463z" />
    <glyph glyph-name="rcaron" unicode="&#x159;" horiz-adv-x="679" 
d="M-14 1456h202l150 -205l151 205h203l-217 -321h-276zM141 0v1024h191v-129q9 17 20.5 32.5t37 38t56 38t79.5 26.5t106 10h37v-202l-27 -2q-309 8 -309 -299v-537h-191z" />
    <glyph glyph-name="Sacute" unicode="&#x15a;" horiz-adv-x="1269" 
d="M711 1522h-199l209 268h252zM664 -14q-109 0 -208.5 28.5t-181 83.5t-134 144t-60.5 200h229q25 -126 117.5 -195t241.5 -69q135 0 214 68.5t79 163.5q0 92 -66 144.5t-221 72.5q-555 66 -555 409q0 171 144 290.5t358 119.5q244 0 387 -121.5t151 -333.5h-217
q-9 121 -97 188.5t-224 67.5q-124 0 -198.5 -61.5t-74.5 -143.5q0 -90 83.5 -143.5t230.5 -73.5q149 -19 253.5 -56t163.5 -92t85 -120.5t26 -148.5q0 -191 -146.5 -306.5t-379.5 -115.5z" />
    <glyph glyph-name="sacute" unicode="&#x15b;" horiz-adv-x="950" 
d="M551 1112h-199l209 268h252zM496 -23q-180 0 -304 92t-133 259h191q15 -87 81.5 -135t160.5 -48q90 0 142 45.5t52 112.5q0 55 -44.5 90t-158.5 53q-98 14 -170.5 39.5t-114 54.5t-67 67t-33.5 71t-8 72q0 121 104.5 206.5t270.5 85.5q76 0 143.5 -20t124.5 -60t93 -109
t42 -159h-184q-6 52 -29 88.5t-55.5 54.5t-64 25.5t-66.5 7.5q-73 0 -126.5 -32t-53.5 -90q0 -110 194 -136q223 -30 315.5 -105.5t92.5 -203.5q0 -98 -57 -173.5t-146 -114t-192 -38.5z" />
    <glyph glyph-name="Scircumflex" unicode="&#x15c;" horiz-adv-x="1269" 
d="M479 1841h277l217 -321h-211l-144 204l-143 -204h-209zM664 -14q-109 0 -208.5 28.5t-181 83.5t-134 144t-60.5 200h229q25 -126 117.5 -195t241.5 -69q135 0 214 68.5t79 163.5q0 92 -66 144.5t-221 72.5q-555 66 -555 409q0 171 144 290.5t358 119.5q244 0 387 -121.5
t151 -333.5h-217q-9 121 -97 188.5t-224 67.5q-124 0 -198.5 -61.5t-74.5 -143.5q0 -90 83.5 -143.5t230.5 -73.5q149 -19 253.5 -56t163.5 -92t85 -120.5t26 -148.5q0 -191 -146.5 -306.5t-379.5 -115.5z" />
    <glyph glyph-name="scircumflex" unicode="&#x15d;" horiz-adv-x="950" 
d="M319 1432h277l217 -322h-211l-143 205l-144 -205h-209zM496 -23q-180 0 -304 92t-133 259h191q15 -87 81.5 -135t160.5 -48q90 0 142 45.5t52 112.5q0 55 -44.5 90t-158.5 53q-98 14 -170.5 39.5t-114 54.5t-67 67t-33.5 71t-8 72q0 121 104.5 206.5t270.5 85.5
q76 0 143.5 -20t124.5 -60t93 -109t42 -159h-184q-6 52 -29 88.5t-55.5 54.5t-64 25.5t-66.5 7.5q-73 0 -126.5 -32t-53.5 -90q0 -110 194 -136q223 -30 315.5 -105.5t92.5 -203.5q0 -98 -57 -173.5t-146 -114t-192 -38.5z" />
    <glyph glyph-name="Scedilla" unicode="&#x15e;" horiz-adv-x="1269" 
d="M1190 408q0 -188 -141.5 -302.5t-368.5 -119.5l-33 -60q34 8 78 4q75 -11 121.5 -62t46.5 -126q0 -92 -63.5 -156.5t-155.5 -64.5q-75 0 -144 42.5t-94 102.5l115 43q19 -28 54 -46.5t69 -18.5q40 0 67 28.5t27 69.5q0 33 -18.5 55.5t-49.5 28.5q-47 13 -110 -16l-98 59
l67 123q-94 13 -175.5 47.5t-147.5 89t-107.5 135t-48.5 178.5h229q25 -126 117.5 -195t241.5 -69q135 0 214 68.5t79 163.5q0 92 -66 144.5t-221 72.5q-555 66 -555 409q0 171 144 290.5t358 119.5q244 0 387 -121.5t151 -333.5h-217q-9 121 -97 188.5t-224 67.5
q-124 0 -198.5 -61.5t-74.5 -143.5q0 -90 83.5 -143.5t230.5 -73.5q149 -19 253.5 -56t163.5 -92t85 -120.5t26 -148.5z" />
    <glyph glyph-name="scedilla" unicode="&#x15f;" horiz-adv-x="950" 
d="M891 303q0 -95 -53.5 -169.5t-138 -113.5t-183.5 -43l-27 -49q38 9 76 2q74 -8 122 -60t48 -128q0 -92 -64.5 -155.5t-156.5 -63.5q-74 0 -143.5 42.5t-94.5 102.5l117 43q17 -28 53 -47.5t68 -19.5q41 0 68.5 29t27.5 69q0 34 -18.5 57t-48.5 29q-51 13 -111 -16l-98 57
l61 117q-144 25 -236.5 112t-99.5 230h191q15 -87 81.5 -135t160.5 -48q90 0 142 45.5t52 112.5q0 55 -44.5 90t-158.5 53q-98 14 -170.5 39.5t-114 54.5t-67 67t-33.5 71t-8 72q0 121 104.5 206.5t270.5 85.5q76 0 143.5 -20t124.5 -60t93 -109t42 -159h-184
q-6 52 -29 88.5t-55.5 54.5t-64 25.5t-66.5 7.5q-73 0 -126.5 -32t-53.5 -90q0 -110 194 -136q223 -30 315.5 -105.5t92.5 -203.5z" />
    <glyph glyph-name="Scaron" unicode="&#x160;" horiz-adv-x="1269" 
d="M281 1866h202l150 -205l151 205h203l-217 -322h-276zM664 -14q-109 0 -208.5 28.5t-181 83.5t-134 144t-60.5 200h229q25 -126 117.5 -195t241.5 -69q135 0 214 68.5t79 163.5q0 92 -66 144.5t-221 72.5q-555 66 -555 409q0 171 144 290.5t358 119.5q244 0 387 -121.5
t151 -333.5h-217q-9 121 -97 188.5t-224 67.5q-124 0 -198.5 -61.5t-74.5 -143.5q0 -90 83.5 -143.5t230.5 -73.5q149 -19 253.5 -56t163.5 -92t85 -120.5t26 -148.5q0 -191 -146.5 -306.5t-379.5 -115.5z" />
    <glyph glyph-name="scaron" unicode="&#x161;" horiz-adv-x="950" 
d="M121 1456h203l149 -205l152 205h202l-217 -321h-276zM496 -23q-180 0 -304 92t-133 259h191q15 -87 81.5 -135t160.5 -48q90 0 142 45.5t52 112.5q0 55 -44.5 90t-158.5 53q-98 14 -170.5 39.5t-114 54.5t-67 67t-33.5 71t-8 72q0 121 104.5 206.5t270.5 85.5
q76 0 143.5 -20t124.5 -60t93 -109t42 -159h-184q-6 52 -29 88.5t-55.5 54.5t-64 25.5t-66.5 7.5q-73 0 -126.5 -32t-53.5 -90q0 -110 194 -136q223 -30 315.5 -105.5t92.5 -203.5q0 -98 -57 -173.5t-146 -114t-192 -38.5z" />
    <glyph glyph-name="uni0162" unicode="&#x162;" horiz-adv-x="1218" 
d="M723 25q75 -11 121.5 -62.5t46.5 -126.5q0 -92 -63.5 -156.5t-155.5 -64.5q-75 0 -144 42.5t-94 102.5l115 43q19 -28 54 -46.5t69 -18.5q40 0 67 28.5t27 69.5q0 33 -18.5 55.5t-49.5 28.5q-47 13 -110 -16l-99 59l21 37l2 1243h-502l-2 191h1200l2 -191l-499 2
l-2 -1220h14z" />
    <glyph glyph-name="uni0163" unicode="&#x163;" horiz-adv-x="634" 
d="M420 0q-33 0 -60 6l-32 -61q50 7 78 2q74 -9 120.5 -61t46.5 -128q0 -92 -63.5 -155.5t-155.5 -63.5q-74 0 -143 42.5t-94 103.5l116 41q17 -28 52 -47t69 -19q41 0 68 28t27 70q0 33 -18.5 55.5t-49.5 28.5q-48 13 -111 -16l-96 59l84 160q-113 76 -113 225v586h-157
v168h157v319h195v-319h256v-168h-256v-543q0 -77 27.5 -107t97.5 -30h133v-176h-178z" />
    <glyph glyph-name="Tcaron" unicode="&#x164;" horiz-adv-x="1218" 
d="M254 1866h203l149 -205l152 205h203l-218 -322h-276zM510 0l2 1243h-502l-2 191h1200l2 -191l-499 2l-2 -1245h-199z" />
    <glyph glyph-name="tcaron" unicode="&#x165;" horiz-adv-x="626" 
d="M-109 1776h203l150 -205l151 205h203l-217 -322h-277zM420 0q-122 0 -198.5 74.5t-76.5 195.5v586h-157v168h157v319h195v-319h256v-168h-256v-543q0 -77 27.5 -107t97.5 -30h133v-176h-178z" />
    <glyph glyph-name="Tbar" unicode="&#x166;" horiz-adv-x="1218" 
d="M299 1544v160h635v-160h-635zM510 0l2 1243h-502l-2 191h1200l2 -191l-499 2l-2 -1245h-199z" />
    <glyph glyph-name="tbar" unicode="&#x167;" horiz-adv-x="659" 
d="M631 563h-260v-250q0 -76 28 -106.5t97 -30.5h135l-2 -176h-178q-122 0 -197.5 74.5t-75.5 195.5v293h-151v160h151v133h-160v168h160v319h193v-319h256v-168h-256v-133h260v-160z" />
    <glyph glyph-name="Utilde" unicode="&#x168;" horiz-adv-x="1425" 
d="M858 1520q-122 0 -203 116q-26 45 -65 45q-26 0 -42.5 -19t-19.5 -52q0 -28 13 -72h-158q-6 30 -6 59q-4 105 54.5 171.5t152.5 66.5q125 0 202 -117q26 -45 66 -45q34 0 50 30t9 81q-1 4 -4 15t-4 18h156q4 -16 4 -27q17 -117 -41 -193.5t-164 -76.5zM713 -16
q-260 0 -416 153.5t-156 413.5v883h203v-883q0 -179 100 -278t269 -99q167 0 267.5 99.5t100.5 277.5v883h203v-883q0 -260 -155.5 -413.5t-415.5 -153.5z" />
    <glyph glyph-name="utilde" unicode="&#x169;" 
d="M719 1110q-122 0 -203 117q-26 45 -65 45q-26 0 -42.5 -19.5t-19.5 -52.5q0 -32 12 -72h-157q-6 30 -6 60q-4 105 54 171t152 66q126 0 203 -116q26 -45 66 -45q34 0 50 29.5t9 80.5q-1 4 -4 15t-4 18h156q4 -16 4 -27q17 -117 -41 -193.5t-164 -76.5zM516 -27
q-51 0 -101.5 12t-103 43t-91.5 77t-64 121t-25 169v629h211v-608q0 -129 59.5 -197.5t157.5 -68.5q114 0 191 94.5t77 251.5v528h197v-1024h-197v133q-39 -60 -120 -110t-191 -50z" />
    <glyph glyph-name="Umacron" unicode="&#x16a;" horiz-adv-x="1425" 
d="M412 1544v160h635v-160h-635zM713 -16q-260 0 -416 153.5t-156 413.5v883h203v-883q0 -179 100 -278t269 -99q167 0 267.5 99.5t100.5 277.5v883h203v-883q0 -260 -155.5 -413.5t-415.5 -153.5z" />
    <glyph glyph-name="umacron" unicode="&#x16b;" 
d="M270 1135v159h635v-159h-635zM516 -27q-51 0 -101.5 12t-103 43t-91.5 77t-64 121t-25 169v629h211v-608q0 -129 59.5 -197.5t157.5 -68.5q114 0 191 94.5t77 251.5v528h197v-1024h-197v133q-39 -60 -120 -110t-191 -50z" />
    <glyph glyph-name="Ubreve" unicode="&#x16c;" horiz-adv-x="1425" 
d="M723 1518q-165 0 -260 104.5t-98 255.5h161q3 -91 54 -153.5t143 -61.5q94 1 145.5 64t53.5 151h161q-3 -151 -98 -255.5t-262 -104.5zM713 -16q-260 0 -416 153.5t-156 413.5v883h203v-883q0 -179 100 -278t269 -99q167 0 267.5 99.5t100.5 277.5v883h203v-883
q0 -260 -155.5 -413.5t-415.5 -153.5z" />
    <glyph glyph-name="ubreve" unicode="&#x16d;" 
d="M582 1108q-111 0 -193.5 51t-123 131.5t-42.5 177.5h162q3 -91 54 -153.5t143 -61.5q94 1 145 63.5t53 151.5h162q-3 -151 -98 -255.5t-262 -104.5zM516 -27q-51 0 -101.5 12t-103 43t-91.5 77t-64 121t-25 169v629h211v-608q0 -129 59.5 -197.5t157.5 -68.5
q114 0 191 94.5t77 251.5v528h197v-1024h-197v133q-39 -60 -120 -110t-191 -50z" />
    <glyph glyph-name="Uring" unicode="&#x16e;" horiz-adv-x="1425" 
d="M723 1518q-79 0 -135 56.5t-56 133.5q0 78 56 134t135 56q76 0 131 -56t57 -134q0 -77 -56 -133.5t-132 -56.5zM723 1626q37 0 59.5 22t22.5 60t-22.5 62t-59.5 24q-38 0 -61 -24t-23 -62t23 -60t61 -22zM713 -16q-260 0 -416 153.5t-156 413.5v883h203v-883
q0 -179 100 -278t269 -99q167 0 267.5 99.5t100.5 277.5v883h203v-883q0 -260 -155.5 -413.5t-415.5 -153.5z" />
    <glyph glyph-name="uring" unicode="&#x16f;" 
d="M584 1108q-79 0 -135 56.5t-56 133.5q0 78 56 134.5t135 56.5q76 0 131 -56.5t57 -134.5q0 -77 -56 -133.5t-132 -56.5zM584 1217q37 0 59.5 21.5t22.5 59.5t-22.5 62t-59.5 24q-38 0 -61 -24t-23 -62t22.5 -59.5t61.5 -21.5zM516 -27q-51 0 -101.5 12t-103 43t-91.5 77
t-64 121t-25 169v629h211v-608q0 -129 59.5 -197.5t157.5 -68.5q114 0 191 94.5t77 251.5v528h197v-1024h-197v133q-39 -60 -120 -110t-191 -50z" />
    <glyph glyph-name="Uhungarumlaut" unicode="&#x170;" horiz-adv-x="1425" 
d="M412 1554v244h227v-244h-227zM793 1554v244h229v-244h-229zM713 -16q-260 0 -416 153.5t-156 413.5v883h203v-883q0 -179 100 -278t269 -99q167 0 267.5 99.5t100.5 277.5v883h203v-883q0 -260 -155.5 -413.5t-415.5 -153.5z" />
    <glyph glyph-name="uhungarumlaut" unicode="&#x171;" 
d="M272 1145v244h228v-244h-228zM653 1145v244h230v-244h-230zM516 -27q-51 0 -101.5 12t-103 43t-91.5 77t-64 121t-25 169v629h211v-608q0 -129 59.5 -197.5t157.5 -68.5q114 0 191 94.5t77 251.5v528h197v-1024h-197v133q-39 -60 -120 -110t-191 -50z" />
    <glyph glyph-name="Uogonek" unicode="&#x172;" horiz-adv-x="1425" 
d="M1081 1434h203v-883q0 -242 -135.5 -392.5t-366.5 -170.5q-87 -35 -139.5 -109.5t-52.5 -148.5q0 -54 33 -87.5t90 -33.5q54 0 105 29.5t81 74.5l86 -116q-63 -64 -145 -94t-170 -25q-116 6 -188 64t-72 165q0 178 202 283q-218 29 -344.5 178.5t-126.5 382.5v883h203
v-883q0 -179 100 -278t269 -99q167 0 267.5 99.5t100.5 277.5v883z" />
    <glyph glyph-name="uogonek" unicode="&#x173;" 
d="M1036 -295l86 -117q-125 -128 -315 -118q-116 6 -188 64t-72 165q0 101 71 183t209 134v117q-39 -60 -120 -110t-191 -50q-51 0 -101.5 12t-103 43t-91.5 77t-64 121t-25 169v629h211v-608q0 -129 59.5 -197.5t157.5 -68.5q114 0 191 94.5t77 251.5v528h197v-1024h-4
q-127 -7 -210 -94.5t-83 -184.5q0 -54 33 -87t90 -33q54 0 105 29.5t81 74.5z" />
    <glyph glyph-name="Wcircumflex" unicode="&#x174;" horiz-adv-x="1937" 
d="M813 1841h277l217 -321h-211l-144 204l-143 -204h-209zM463 0l-424 1434h207l319 -1145l309 1145h193l324 -1147l301 1147h206l-409 -1434h-199l-319 1122l-307 -1122h-201z" />
    <glyph glyph-name="wcircumflex" unicode="&#x175;" horiz-adv-x="1509" 
d="M600 1432h277l217 -322h-211l-144 205l-143 -205h-209zM350 0l-332 1024h213l222 -760l219 760h164l221 -760l217 760h217l-334 -1024h-203l-198 682l-201 -682h-205z" />
    <glyph glyph-name="Ycircumflex" unicode="&#x176;" horiz-adv-x="1310" 
d="M500 1841h276l217 -321h-211l-143 204l-143 -204h-209zM555 0v582l-526 852h223l403 -668l420 668h207l-526 -852v-582h-201z" />
    <glyph glyph-name="ycircumflex" unicode="&#x177;" horiz-adv-x="1003" 
d="M346 1432h277l217 -322h-211l-144 205l-143 -205h-209zM78 -410l-2 181h92q129 0 186 145l54 147l-400 961h215l287 -723l270 723h215l-450 -1157q-55 -139 -142 -208t-217 -69h-108z" />
    <glyph glyph-name="Ydieresis" unicode="&#x178;" horiz-adv-x="1310" 
d="M346 1548v244h227v-244h-227zM727 1548v244h229v-244h-229zM555 0v582l-526 852h223l403 -668l420 668h207l-526 -852v-582h-201z" />
    <glyph glyph-name="Zacute" unicode="&#x179;" horiz-adv-x="1316" 
d="M735 1522h-198l208 268h252zM90 0v201l907 1032h-895v201h1145v-201l-895 -1032h883v-201h-1145z" />
    <glyph glyph-name="zacute" unicode="&#x17a;" horiz-adv-x="987" 
d="M578 1112h-199l209 268h252zM70 0v182l587 662h-587v182l827 -2v-180l-586 -662h586v-182h-827z" />
    <glyph glyph-name="Zdotaccent" unicode="&#x17b;" horiz-adv-x="1316" 
d="M541 1554v244h227v-244h-227zM90 0v201l907 1032h-895v201h1145v-201l-895 -1032h883v-201h-1145z" />
    <glyph glyph-name="zdotaccent" unicode="&#x17c;" horiz-adv-x="987" 
d="M385 1145v244h227v-244h-227zM70 0v182l587 662h-587v182l827 -2v-180l-586 -662h586v-182h-827z" />
    <glyph glyph-name="Zcaron" unicode="&#x17d;" horiz-adv-x="1316" 
d="M305 1866h203l149 -205l152 205h203l-217 -322h-277zM90 0v201l907 1032h-895v201h1145v-201l-895 -1032h883v-201h-1145z" />
    <glyph glyph-name="zcaron" unicode="&#x17e;" horiz-adv-x="987" 
d="M147 1456h203l150 -205l151 205h203l-217 -321h-277zM70 0v182l587 662h-587v182l827 -2v-180l-586 -662h586v-182h-827z" />
    <glyph glyph-name="uni018F" unicode="&#x18f;" horiz-adv-x="1083" 
d="M526 1456q222 0 355 -141t133 -385q0 -237 -133.5 -385t-350.5 -148q-150 0 -258.5 77.5t-159 210t-40.5 300.5h737v2q0 136 -77 216.5t-208 80.5q-47 0 -93 -14.5t-92 -56t-67 -105.5h-184q22 155 140.5 251.5t297.5 96.5zM803 811h-522q6 -108 74.5 -175t181.5 -67
q112 0 184.5 67.5t81.5 174.5z" />
    <glyph glyph-name="uni0218" unicode="&#x218;" horiz-adv-x="1269" 
d="M664 -14q-109 0 -208.5 28.5t-181 83.5t-134 144t-60.5 200h229q25 -126 117.5 -195t241.5 -69q135 0 214 68.5t79 163.5q0 92 -66 144.5t-221 72.5q-555 66 -555 409q0 171 144 290.5t358 119.5q244 0 387 -121.5t151 -333.5h-217q-9 121 -97 188.5t-224 67.5
q-124 0 -198.5 -61.5t-74.5 -143.5q0 -90 83.5 -143.5t230.5 -73.5q149 -19 253.5 -56t163.5 -92t85 -120.5t26 -148.5q0 -191 -146.5 -306.5t-379.5 -115.5zM532 -592v115q111 3 105 119h-115v243h228l-2 -243q0 -118 -57.5 -176t-158.5 -58z" />
    <glyph glyph-name="uni0219" unicode="&#x219;" horiz-adv-x="950" 
d="M496 -23q-180 0 -304 92t-133 259h191q15 -87 81.5 -135t160.5 -48q90 0 142 45.5t52 112.5q0 55 -44.5 90t-158.5 53q-98 14 -170.5 39.5t-114 54.5t-67 67t-33.5 71t-8 72q0 121 104.5 206.5t270.5 85.5q76 0 143.5 -20t124.5 -60t93 -109t42 -159h-184q-6 52 -29 88.5
t-55.5 54.5t-64 25.5t-66.5 7.5q-73 0 -126.5 -32t-53.5 -90q0 -110 194 -136q223 -30 315.5 -105.5t92.5 -203.5q0 -98 -57 -173.5t-146 -114t-192 -38.5zM373 -592v115q110 3 104 119h-115v243h228l-2 -243q0 -118 -57 -176t-158 -58z" />
    <glyph glyph-name="uni021A" unicode="&#x21a;" horiz-adv-x="1218" 
d="M510 0l2 1243h-502l-2 191h1200l2 -191l-499 2l-2 -1245h-199zM506 -592v115q110 3 104 119h-114v243h227l-2 -243q0 -118 -57 -176t-158 -58z" />
    <glyph glyph-name="uni021B" unicode="&#x21b;" horiz-adv-x="626" 
d="M420 0q-122 0 -198.5 74.5t-76.5 195.5v586h-157v168h157v319h195v-319h256v-168h-256v-543q0 -77 27.5 -107t97.5 -30h133v-176h-178zM272 -592v115q111 3 105 119h-115v243h227l-2 -243q0 -118 -57 -176t-158 -58z" />
    <glyph glyph-name="uni0232" unicode="&#x232;" horiz-adv-x="1310" 
d="M344 1544v160h635v-160h-635zM555 0v582l-526 852h223l403 -668l420 668h207l-526 -852v-582h-201z" />
    <glyph glyph-name="uni0233" unicode="&#x233;" horiz-adv-x="1003" 
d="M190 1135v159h635v-159h-635zM78 -410l-2 181h92q129 0 186 145l54 147l-400 961h215l287 -723l270 723h215l-450 -1157q-55 -139 -142 -208t-217 -69h-108z" />
    <glyph glyph-name="uni0237" unicode="&#x237;" horiz-adv-x="473" 
d="M-33 -362v188h45q65 0 104.5 39t39.5 119v1040h196v-1073q0 -146 -85.5 -229.5t-223.5 -83.5h-76z" />
    <glyph glyph-name="circumflex" unicode="&#x2c6;" horiz-adv-x="108" 
d="M250 1507h276l217 -321h-211l-143 205l-143 -205h-209z" />
    <glyph glyph-name="caron" unicode="&#x2c7;" horiz-adv-x="108" 
d="M37 1507h203l149 -204l152 204h202l-217 -321h-276z" />
    <glyph glyph-name="breve" unicode="&#x2d8;" horiz-adv-x="108" 
d="M588 1145q-111 0 -193.5 51t-123 131.5t-42.5 177.5h162q3 -91 54 -153.5t143 -61.5q94 1 145 63.5t53 151.5h162q-3 -151 -98 -255.5t-262 -104.5z" />
    <glyph glyph-name="dotaccent" unicode="&#x2d9;" horiz-adv-x="108" 
d="M197 1198v244h227v-244h-227z" />
    <glyph glyph-name="ring" unicode="&#x2da;" horiz-adv-x="108" 
d="M174 1147q-79 0 -134.5 56.5t-55.5 133.5q0 78 55.5 134.5t134.5 56.5q76 0 131 -56.5t57 -134.5q0 -77 -56 -133.5t-132 -56.5zM174 1255q37 0 59.5 22t22.5 60t-22.5 62t-59.5 24q-38 0 -61 -24t-23 -62t23 -60t61 -22z" />
    <glyph glyph-name="ogonek" unicode="&#x2db;" horiz-adv-x="108" 
d="M256 -530q-116 6 -188 64t-72 165q0 113 89 202t259 138l125 -39q-127 -7 -210 -94.5t-83 -184.5q0 -54 33 -87t90 -33q54 0 105 29.5t81 74.5l86 -117q-125 -128 -315 -118z" />
    <glyph glyph-name="tilde" unicode="&#x2dc;" horiz-adv-x="0" 
d="M-293 1233q-122 0 -203 117q-26 45 -65 45q-26 0 -42.5 -19.5t-19.5 -52.5q0 -28 13 -72h-158q-6 30 -6 60q-4 105 54.5 171t152.5 66q125 0 202 -116q27 -46 66 -46q34 0 50 30t9 81q-1 4 -4 15t-4 18h156q4 -16 4 -27q17 -117 -41 -193.5t-164 -76.5z" />
    <glyph glyph-name="hungarumlaut" unicode="&#x2dd;" horiz-adv-x="108" 
d="M137 1214v244h228v-244h-228zM518 1214v244h230v-244h-230z" />
    <glyph glyph-name="gravecomb" unicode="&#x300;" horiz-adv-x="0" 
d="M-268 1188l-264 268h251l209 -268h-196z" />
    <glyph glyph-name="acutecomb" unicode="&#x301;" horiz-adv-x="0" 
d="M-907 1188h-199l209 268h252z" />
    <glyph glyph-name="tildecomb" unicode="&#x303;" horiz-adv-x="0" 
d="M-293 1233q-122 0 -203 117q-26 45 -65 45q-26 0 -42.5 -19.5t-19.5 -52.5q0 -28 13 -72h-158q-6 30 -6 60q-4 105 54.5 171t152.5 66q125 0 202 -116q27 -46 66 -46q34 0 50 30t9 81q-1 4 -4 15t-4 18h156q4 -16 4 -27q17 -117 -41 -193.5t-164 -76.5z" />
    <glyph glyph-name="dotbelowcomb" unicode="&#x323;" horiz-adv-x="0" 
d="M-289 -520v244h228v-244h-228z" />
    <glyph glyph-name="uni0326" unicode="&#x326;" horiz-adv-x="0" 
d="M-733 -592v115q110 3 104 119h-114v243h227l-2 -243q0 -118 -57 -176t-158 -58z" />
    <glyph glyph-name="Wgrave" unicode="&#x1e80;" horiz-adv-x="1937" 
d="M885 1524l-264 268h251l209 -268h-196zM463 0l-424 1434h207l319 -1145l309 1145h193l324 -1147l301 1147h206l-409 -1434h-199l-319 1122l-307 -1122h-201z" />
    <glyph glyph-name="wgrave" unicode="&#x1e81;" horiz-adv-x="1509" 
d="M672 1114l-264 268h251l209 -268h-196zM350 0l-332 1024h213l222 -760l219 760h164l221 -760l217 760h217l-334 -1024h-203l-198 682l-201 -682h-205z" />
    <glyph glyph-name="Wacute" unicode="&#x1e82;" horiz-adv-x="1937" 
d="M1044 1522h-198l209 268h252zM463 0l-424 1434h207l319 -1145l309 1145h193l324 -1147l301 1147h206l-409 -1434h-199l-319 1122l-307 -1122h-201z" />
    <glyph glyph-name="wacute" unicode="&#x1e83;" horiz-adv-x="1509" 
d="M829 1112h-198l209 268h252zM350 0l-332 1024h213l222 -760l219 760h164l221 -760l217 760h217l-334 -1024h-203l-198 682l-201 -682h-205z" />
    <glyph glyph-name="Wdieresis" unicode="&#x1e84;" horiz-adv-x="1937" 
d="M659 1548v244h228v-244h-228zM1040 1548v244h230v-244h-230zM463 0l-424 1434h207l319 -1145l309 1145h193l324 -1147l301 1147h206l-409 -1434h-199l-319 1122l-307 -1122h-201z" />
    <glyph glyph-name="wdieresis" unicode="&#x1e85;" horiz-adv-x="1509" 
d="M446 1139v243h228v-243h-228zM827 1139v243h230v-243h-230zM350 0l-332 1024h213l222 -760l219 760h164l221 -760l217 760h217l-334 -1024h-203l-198 682l-201 -682h-205z" />
    <glyph glyph-name="uni1ECA" unicode="&#x1eca;" horiz-adv-x="555" 
d="M172 0v1434h211v-1434h-211zM166 -346v244h227v-244h-227z" />
    <glyph glyph-name="uni1ECB" unicode="&#x1ecb;" horiz-adv-x="514" 
d="M166 0v1024h205v-1024h-205zM156 -367v246h227v-246h-227z" />
    <glyph glyph-name="uni1ECC" unicode="&#x1ecc;" horiz-adv-x="1531" 
d="M766 -20q-140 0 -265 55.5t-215.5 152.5t-143 234.5t-52.5 294.5t52.5 294t142.5 233t215 151t266 55t266 -55.5t215 -152t142.5 -234t52.5 -295.5q0 -156 -52.5 -293t-143 -233t-215.5 -151.5t-265 -55.5zM764 178q204 0 335.5 150t131.5 379q0 155 -58.5 280
t-165 196.5t-241.5 71.5q-134 0 -239.5 -71t-163.5 -195t-58 -278q0 -230 129.5 -381.5t329.5 -151.5zM653 -346v244h228v-244h-228z" />
    <glyph glyph-name="uni1ECD" unicode="&#x1ecd;" horiz-adv-x="1120" 
d="M561 -10q-211 0 -351 147.5t-140 374.5q0 230 140 378t351 148q212 0 351 -148t139 -378q0 -227 -140.5 -374.5t-349.5 -147.5zM559 174q137 0 217 94t80 242q0 152 -78.5 248t-216.5 96q-134 0 -213.5 -95.5t-79.5 -246.5q0 -148 78.5 -243t212.5 -95zM449 -346v244h227
v-244h-227z" />
    <glyph glyph-name="uni1EE4" unicode="&#x1ee4;" horiz-adv-x="1425" 
d="M713 -16q-260 0 -416 153.5t-156 413.5v883h203v-883q0 -179 100 -278t269 -99q167 0 267.5 99.5t100.5 277.5v883h203v-883q0 -260 -155.5 -413.5t-415.5 -153.5zM600 -346v244h227v-244h-227z" />
    <glyph glyph-name="uni1EE5" unicode="&#x1ee5;" 
d="M516 -27q-51 0 -101.5 12t-103 43t-91.5 77t-64 121t-25 169v629h211v-608q0 -129 59.5 -197.5t157.5 -68.5q114 0 191 94.5t77 251.5v528h197v-1024h-197v133q-39 -60 -120 -110t-191 -50zM469 -346v244h227v-244h-227z" />
    <glyph glyph-name="Ygrave" unicode="&#x1ef2;" horiz-adv-x="1310" 
d="M573 1524l-264 268h252l209 -268h-197zM555 0v582l-526 852h223l403 -668l420 668h207l-526 -852v-582h-201z" />
    <glyph glyph-name="ygrave" unicode="&#x1ef3;" horiz-adv-x="1003" 
d="M420 1114l-264 268h252l208 -268h-196zM78 -410l-2 181h92q129 0 186 145l54 147l-400 961h215l287 -723l270 723h215l-450 -1157q-55 -139 -142 -208t-217 -69h-108z" />
    <glyph glyph-name="endash" unicode="&#x2013;" horiz-adv-x="1406" 
d="M193 451v143h1024v-143h-1024z" />
    <glyph glyph-name="emdash" unicode="&#x2014;" horiz-adv-x="2086" 
d="M20 451v143h2048v-143h-2048z" />
    <glyph glyph-name="quoteleft" unicode="&#x2018;" horiz-adv-x="337" 
d="M59 1157l2 244q0 118 57 175.5t158 57.5v-114q-110 -3 -104 -119h115v-244h-228z" />
    <glyph glyph-name="quoteright" unicode="&#x2019;" horiz-adv-x="270" 
d="M66 1155v117q107 3 104 117h-117v245h230l-2 -245q-1 -118 -58 -176t-157 -58z" />
    <glyph glyph-name="quotesinglbase" unicode="&#x201a;" horiz-adv-x="489" 
d="M96 -233v114q108 3 105 119h-117v244h229l-2 -244q-1 -118 -58 -175.5t-157 -57.5z" />
    <glyph glyph-name="quotedblleft" unicode="&#x201c;" horiz-adv-x="600" 
d="M29 1157l2 244q1 118 58 175.5t157 57.5v-114q-108 -3 -105 -119h117v-244h-229zM348 1157l2 244q0 118 57 175.5t158 57.5v-114q-110 -3 -104 -119h114v-244h-227z" />
    <glyph glyph-name="quotedblright" unicode="&#x201d;" horiz-adv-x="589" 
d="M18 1155v115q111 3 105 119h-115v243h228l-3 -243q0 -118 -57 -176t-158 -58zM342 1155v115q107 3 104 119h-116v243h229l-2 -243q-1 -118 -58 -176t-157 -58z" />
    <glyph glyph-name="quotedblbase" unicode="&#x201e;" horiz-adv-x="794" 
d="M102 -233v114q108 3 105 119h-117v244h229l-2 -244q-1 -118 -58 -175.5t-157 -57.5zM426 -233v114q107 3 104 119h-116v244h229l-2 -244q-1 -118 -58 -175.5t-157 -57.5z" />
    <glyph glyph-name="bullet" unicode="&#x2022;" horiz-adv-x="1228" 
d="M373 473v442h411v-442h-411z" />
    <glyph glyph-name="ellipsis" unicode="&#x2026;" horiz-adv-x="1529" 
d="M145 0v244h228v-244h-228zM651 0v244h230v-244h-230zM1159 0v244h227v-244h-227z" />
    <glyph glyph-name="perthousand" unicode="&#x2030;" horiz-adv-x="2101" 
d="M109 0l1056 1536h203l-1057 -1536h-202zM408 971q-111 0 -189 80.5t-78 195.5t78.5 196t188.5 81t188 -81t78 -196t-78 -195.5t-188 -80.5zM408 1116q47 0 80.5 37.5t33.5 91.5t-33 90.5t-81 36.5q-47 0 -80 -36.5t-33 -90.5t33 -91.5t80 -37.5zM1704 0q-110 0 -188 80.5
t-78 195.5t78 196t188 81t188 -81t78 -196t-78 -195.5t-188 -80.5zM1081 -4q-110 0 -188 80.5t-78 195.5t78 196t188 81t188.5 -81t78.5 -196t-78 -195.5t-189 -80.5zM1704 145q47 0 81 37.5t34 91.5t-33.5 90.5t-81.5 36.5t-81.5 -36.5t-33.5 -90.5t34 -91.5t81 -37.5z
M1081 141q47 0 81 37.5t34 91.5t-33.5 90.5t-81.5 36.5q-47 0 -79.5 -36.5t-32.5 -90.5t32.5 -91.5t79.5 -37.5z" />
    <glyph glyph-name="guilsinglleft" unicode="&#x2039;" horiz-adv-x="694" 
d="M424 195l-311 376l311 377h184l-311 -377l311 -376h-184z" />
    <glyph glyph-name="guilsinglright" unicode="&#x203a;" horiz-adv-x="694" 
d="M121 195l311 376l-311 377h184l311 -377l-311 -376h-184z" />
    <glyph glyph-name="Euro" unicode="&#x20ac;" horiz-adv-x="1318" 
d="M725 129q146 -1 231.5 88t102.5 260h192q-19 -235 -156.5 -377t-359.5 -141q-106 1 -197 33.5t-165 97.5t-123.5 170.5t-65.5 243.5h-137v174h129v100h-129v160h137q16 137 65.5 242.5t123.5 170.5t165 98t197 34q222 1 359.5 -140t152.5 -372h-192q-9 166 -97 253
t-235 85q-138 0 -228.5 -100.5t-103.5 -270.5h418v-160h-426v-100h426v-174h-418q13 -171 103.5 -272t230.5 -103z" />
    <glyph glyph-name="trademark" unicode="&#x2122;" horiz-adv-x="1538" 
d="M422 938v420h-189v76h455v-76l-186 2l-2 -422h-78zM760 940v492h98l174 -385l168 385h94v-492h-77v344l-150 -344h-74l-155 346l2 -346h-80z" />
    <glyph glyph-name="estimated" unicode="&#x212e;" horiz-adv-x="1880" 
d="M938 -18q-178 0 -340 62t-279 167.5t-186.5 250.5t-69.5 304q0 161 69.5 307.5t186.5 252t279 168t340 62.5q239 0 440.5 -105.5t319 -287.5t117.5 -397v-21h-1418q-12 0 -12 -8v-430q0 -24 18 -49q106 -109 245 -171t292 -62q167 0 313.5 69.5t251.5 192.5h125
q-119 -141 -301.5 -223t-390.5 -82zM397 788h1088q8 0 8 15v430q0 34 -20 51q-106 105 -243.5 165t-289.5 60q-151 0 -288.5 -61.5t-245.5 -169.5q-21 -24 -21 -53v-422q0 -15 12 -15z" />
    <glyph glyph-name="minus" unicode="&#x2212;" horiz-adv-x="1488" 
d="M131 508v162h1229v-162h-1229z" />
    <glyph glyph-name="notequal" unicode="&#x2260;" horiz-adv-x="1488" 
d="M1360 655h-428l-191 -223h619v-160h-754l-231 -270h-168l231 270h-307v160h442l191 223h-633v160h770l178 211h168l-178 -211h291v-160z" />
    <glyph glyph-name="lessequal" unicode="&#x2264;" horiz-adv-x="1636" 
d="M1337 180l-1130 568v124l1130 562v-172l-938 -453l938 -455v-174zM1116 51v-90h-690v90h690z" />
    <glyph glyph-name="greaterequal" unicode="&#x2265;" horiz-adv-x="1538" 
d="M205 180v174l936 455l-936 453v172l1130 -562v-124zM201 51l915 17l225 -107l-915 -16z" />
    <glyph glyph-name="dslash" horiz-adv-x="1126" 
d="M1198 600v-158h-141v-442h-189v150q-34 -63 -123.5 -118t-207.5 -55q-80 0 -157.5 30.5t-143 87.5t-110 147t-54.5 200h-80v158h84q18 136 86.5 236t163.5 149t204 49q118 0 204 -47t134 -119v566h189v-834h141zM569 854q-109 0 -184.5 -69.5t-97.5 -184.5h571
q-25 115 -102.5 184.5t-186.5 69.5zM569 162q119 0 199.5 77.5t95.5 202.5h-579q19 -127 95.5 -203.5t188.5 -76.5z" />
    <glyph glyph-name="R.sc" horiz-adv-x="1196" 
d="M82 -2v1436l600 2q187 0 303.5 -123.5t116.5 -311.5q0 -150 -80 -259.5t-217 -147.5l346 -594h-219l-334 575h-317v-577h-199zM281 752h356q118 0 192 66t74 186q0 121 -74 188.5t-192 67.5h-354z" />
    <glyph glyph-name="a.sc" horiz-adv-x="1177" 
d="M555 -23q-200 0 -329.5 150t-129.5 379q0 230 127.5 379t325.5 149q210 0 330 -151v141h194v-1024h-194v143q-49 -76 -133.5 -121t-190.5 -45zM584 150q131 0 214 96.5t83 251.5q0 161 -83 261.5t-214 100.5q-128 0 -208.5 -98t-80.5 -256t80.5 -257t208.5 -99z" />
    <glyph glyph-name="l.sc" horiz-adv-x="456" 
d="M289 0q-137 0 -223 83.5t-86 229.5l8 1121h196l-8 -1088q-1 -79 38.5 -118.5t104.5 -39.5h48v-188h-78z" />
    </font>
</defs>
</svg>
